<?xml version="1.0" encoding="UTF-8" standalone="no"?>
<!-- Created with Inkscape (http://www.inkscape.org/) -->

<svg
   width="149mm"
   height="140mm"
   viewBox="0 0 149 140"
   version="1.1"
   id="svg1"
   inkscape:version="1.4.2 (f4327f4, 2025-05-13)"
   sodipodi:docname="ghostNet.svg"
   xmlns:inkscape="http://www.inkscape.org/namespaces/inkscape"
   xmlns:sodipodi="http://sodipodi.sourceforge.net/DTD/sodipodi-0.dtd"
   xmlns="http://www.w3.org/2000/svg"
   xmlns:svg="http://www.w3.org/2000/svg">
  <sodipodi:namedview
     id="namedview1"
     pagecolor="#ffffff"
     bordercolor="#000000"
     borderopacity="0.25"
     inkscape:showpageshadow="2"
     inkscape:pageopacity="0.0"
     inkscape:pagecheckerboard="0"
     inkscape:deskcolor="#d1d1d1"
     inkscape:document-units="mm"
     inkscape:zoom="0.68862935"
     inkscape:cx="396.43968"
     inkscape:cy="328.91424"
     inkscape:window-width="1920"
     inkscape:window-height="991"
     inkscape:window-x="-9"
     inkscape:window-y="-9"
     inkscape:window-maximized="1"
     inkscape:current-layer="layer1" />
  <defs
     id="defs1" />
  <g
     inkscape:label="Layer 1"
     inkscape:groupmode="layer"
     id="layer1">
    <path
       style="fill:#4d4d4d;stroke-width:0.264583"
       id="path1"
       d="M 22.649756,0.05747726 C 21.155069,0.35973948 19.863931,1.1873614 18.63582,2.0509083 c -1.390721,0.908012 -2.204921,2.3100147 -3.008385,3.7150133 -0.971339,1.7520851 -1.923862,3.5037255 -2.761091,5.3242514 -0.983255,1.968128 -1.813633,4.005835 -2.557692,6.074842 -0.6026168,1.664081 -1.1798289,3.337592 -1.7923877,4.997909 -0.3964009,1.053004 -0.7345466,2.124478 -1.1323595,3.176804 -0.6171472,1.409639 -1.1222508,2.865593 -1.5990289,4.327916 -0.5232096,1.385422 -1.0884252,2.750529 -1.5463851,4.160001 -0.4251806,1.333442 -0.910935,2.64685 -1.3321855,3.98148 -0.3168172,1.059862 -0.346205,2.172258 -0.5258005,3.258534 -0.1487785,1.018386 -0.435505,2.009333 -0.7405533,2.990045 -0.4011871,1.09365 -0.5537488,2.239992 -0.64037081,3.39444 -0.0631579,1.201915 -0.0685416,2.406 -0.0684135,3.609288 -0.00883,1.235175 0.0336575,2.470099 -0.0248489,3.704145 -0.13450324,1.437344 -0.23462062,2.87637 -0.30053235,4.318394 -0.0382721,1.10417 -0.0572188,2.208948 -0.0580717,3.313756 0.007838,1.420201 0.019825,2.840352 0.0174175,4.260588 -0.004752,1.336307 -0.005835,2.672614 -0.008917,4.008926 0.0231341,1.739855 -0.0156123,3.479623 0.0659816,5.217944 0.12318843,1.991127 0.50275496,3.943413 1.02981726,5.863142 0.4511807,1.675532 1.0967498,3.289549 1.7121568,4.909479 1.2663977,3.35417 2.5713074,6.692945 3.873605,10.033545 1.4095492,3.712439 2.8307906,7.422429 4.5424976,11.007639 0.777313,1.4606 1.416987,3.0287 2.420959,4.35911 0.50885,0.6743 0.95757,1.07706 1.55816,1.67568 2.169475,1.91597 4.624775,3.46665 6.988482,5.1264 3.430803,2.35375 7.027482,4.4844 10.770233,6.30482 2.086639,1.01492 3.257481,1.48132 5.396542,2.39193 3.684307,1.48152 7.405952,2.94732 11.278708,3.86112 1.591096,0.3849 3.228914,0.34563 4.840491,0.57848 8.095002,1.26921 16.130596,2.89497 24.165965,4.4926 7.652374,1.37904 15.270207,3.15177 23.030707,3.82055 3.06317,0.11338 6.05039,-0.70196 8.94478,-1.62099 2.04807,-0.61394 3.93776,-1.59759 5.78482,-2.65451 1.95857,-1.02937 3.7568,-2.32354 5.65394,-3.45445 2.16987,-1.31548 4.23159,-2.78749 6.30613,-4.24486 1.53613,-1.16945 3.04932,-2.37542 4.3636,-3.79423 0.90044,-0.9852 1.70526,-2.05588 2.4031,-3.19325 0.44494,-0.69691 0.71485,-1.49159 1.1501,-2.19356 0.33847,-0.54588 0.9168,-1.30509 1.28346,-1.80252 0.97835,-1.36674 2.16999,-2.56947 3.18095,-3.90927 0.62108,-0.82312 0.87003,-1.29678 1.39865,-2.184 1.32208,-2.34457 2.36336,-4.83217 3.25625,-7.36729 0.91031,-2.67808 1.44273,-5.463481 2.05355,-8.220053 0.4935,-2.298319 0.73294,-4.634259 0.84302,-6.978634 0.065,-1.981216 0.0463,-3.963824 0.0389,-5.945717 -0.002,-1.816372 0.002,-3.632718 0.001,-5.449093 0.0489,-1.726378 -0.17834,-3.436157 -0.48587,-5.1298 -0.33573,-2.006984 -0.75025,-3.998333 -1.16694,-5.989558 -0.50965,-2.131013 -1.0018,-4.264832 -1.38411,-6.422941 -0.24222,-1.61799 -0.83602,-3.145924 -1.2148,-4.730977 -0.23941,-1.230455 -0.48688,-2.45913 -0.72366,-3.690146 -0.21991,-1.152504 -0.31642,-2.322137 -0.36461,-3.492802 0.0113,-1.355246 -0.34296,-2.671355 -0.64188,-3.982215 -0.24774,-1.477893 -0.58473,-2.927865 -1.04552,-4.352715 -0.23082,-1.041337 -0.76944,-1.947223 -1.25014,-2.882612 -0.51938,-1.03864 -0.95254,-2.117169 -1.47535,-3.153693 -0.57064,-1.280435 -1.34474,-2.433328 -2.17839,-3.55373 -1.19697,-1.562904 -2.56625,-2.975049 -4.06567,-4.246778 -1.60851,-1.359638 -3.34305,-2.524738 -5.15659,-3.58771 -4.29645,-2.753162 -8.96419,-4.783407 -13.62666,-6.809096 -3.13627,-1.3954 -6.30549,-2.692776 -9.59882,-3.665709 C 100.96701,10.456757 97.272921,9.9511677 93.602346,9.3813208 89.583097,8.7639876 85.609723,7.8901326 81.636067,7.0348236 78.555881,6.3615797 75.480658,5.6877063 72.374008,5.1488138 70.80311,4.9342246 69.270048,4.5202673 67.717598,4.2172157 65.360308,3.9116182 62.989647,3.6905144 60.621732,3.4739439 58.245581,3.2568655 55.861328,3.1479627 53.476474,3.0918449 51.837581,3.0657913 50.198347,3.0727049 48.559299,3.0743003 47.093774,3.0901171 45.627861,3.13754 44.189046,2.8222149 43.128826,2.5771046 42.053139,2.41534 40.983222,2.2204739 39.857926,2.0019565 38.737577,1.7742588 37.597863,1.638592 36.433418,1.3984461 35.268696,1.1608353 34.086323,1.0316118 31.371521,0.83276153 28.645799,0.8366512 25.925084,0.803859 24.306018,0.785728 25.090339,0.7932469 23.572126,0.7808437 c 0,0 3.127978,2.2743905 3.127978,2.2743905 v 0 c 1.496642,-0.00116 0.723712,-0.00138 2.31879,9.26e-4 2.732119,0.019301 5.472766,0.026841 8.193058,0.3076493 1.186855,0.1737143 2.35802,0.4294447 3.540834,0.6278626 1.132218,0.1503563 2.245693,0.3921849 3.368585,0.596893 1.068022,0.1970681 2.141008,0.3659701 3.201794,0.6010379 1.455688,0.2301504 2.924411,0.1884579 4.394221,0.17854 1.634311,-0.0027 3.268719,-0.00723 4.902896,0.018037 2.357573,0.044765 4.714584,0.1393241 7.063436,0.355786 2.390262,0.2228091 4.783518,0.4671624 7.154725,0.8417439 1.53285,0.3371984 3.070312,0.6566815 4.62322,0.8897723 3.062489,0.5221512 6.100003,1.158074 9.137208,1.811673 3.990081,0.8632688 7.977159,1.7600058 12.018,2.3581498 3.676649,0.571851 7.368799,1.113531 10.913359,2.292376 3.25742,0.996336 6.40438,2.2821 9.51865,3.659612 2.55565,1.111327 5.10643,2.220721 7.59147,3.484718 0.50222,0.255451 1.94367,1.127526 1.49863,0.781958 -0.60494,-0.469721 -1.32268,-0.77257 -1.98402,-1.158855 0.0349,0.02038 1.88743,1.100332 2.03622,1.196533 1.0871,0.702887 2.07021,1.555544 3.11163,2.320856 1.51711,1.222112 2.87497,2.620057 4.07865,4.153365 0.83442,1.095558 1.62598,2.212946 2.17671,3.482975 0.55049,1.016908 0.96775,2.095847 1.46402,3.139689 0.4518,0.940972 1.07654,1.799606 1.29555,2.84168 0.47364,1.413563 0.86571,2.842924 1.07557,4.323411 0.27571,1.289428 0.66468,2.575777 0.64637,3.906684 0.0454,1.190342 0.13997,2.377993 0.35194,3.551886 0.23463,1.237207 0.4797,2.471462 0.71994,3.707106 0.3715,1.592982 0.98195,3.114834 1.26125,4.730305 0.39562,2.158757 0.85691,4.303652 1.38155,6.43459 0.42303,1.982586 0.8304,3.968533 1.15187,5.970582 0.30912,1.671294 0.56849,3.359237 0.51338,5.065025 0.002,1.820468 0.0143,3.640841 0.0215,5.461296 0.001,1.975477 0.0108,3.951452 -0.0389,5.92646 -0.0867,2.331376 -0.28461,4.659715 -0.75942,6.948255 -0.57891,2.746369 -1.16952,5.498938 -2.05704,8.165488 -0.85828,2.51987 -1.88884,4.98712 -3.21035,7.30243 -0.5876,0.97867 -0.69747,1.22125 -1.38156,2.12732 -1.01522,1.34462 -2.1851,2.56891 -3.18443,3.92644 -0.21228,0.27597 -1.14193,1.47072 -1.37132,1.81739 -0.45274,0.68423 -0.69778,1.48543 -1.14861,2.1709 -0.68486,1.11604 -1.45662,2.17504 -2.34756,3.13676 -1.2912,1.39699 -2.74836,2.62038 -4.27413,3.75427 -2.05825,1.46253 -4.11528,2.92382 -6.28206,4.22463 -1.90001,1.1303 -3.72221,2.39085 -5.6756,3.43205 -1.82545,1.04078 -3.70424,1.98391 -5.72174,2.59898 -2.83463,0.90956 -5.75855,1.69569 -8.762296,1.56842 -7.607736,-0.5977 -15.098214,-2.19184 -22.595789,-3.54462 -8.238908,-1.63192 -16.453011,-3.39811 -24.719608,-4.88242 -1.593408,-0.20657 -3.212401,-0.19473 -4.781529,-0.58126 -3.79659,-0.91036 -7.460511,-2.30778 -11.069814,-3.78004 -2.179915,-0.93859 -3.278426,-1.37611 -5.401665,-2.43107 -0.827108,-0.41097 -1.611204,-0.90809 -2.45215,-1.28994 -0.445019,-0.20208 1.652479,1.04092 1.260576,0.74888 -1.015699,-0.75689 -2.203133,-1.26367 -3.183873,-2.07452 -2.337591,-1.6576 -4.765435,-3.19723 -6.958421,-5.0478 -0.457643,-0.44122 -1.163927,-1.09219 -1.571166,-1.59667 -1.053737,-1.30534 -1.713958,-2.87954 -2.510449,-4.339 -1.759205,-3.5759 -3.227227,-7.2807 -4.623235,-11.011765 C 9.3283404,94.950813 8.0928974,91.624468 6.8744403,88.289798 6.2724558,86.679702 5.6543963,85.072158 5.1725385,83.421041 4.6166262,81.528572 4.2074509,79.601712 4.0803668,77.628182 4.0104107,75.90284 4.0463149,74.176084 4.0543794,72.449601 c -0.00324,-1.339675 -0.00468,-2.679345 -0.010562,-4.019015 -0.00365,-1.414534 0.00567,-2.829013 0.014031,-4.243515 0.00343,-1.10323 -0.00327,-2.206741 0.033501,-3.309559 0.049329,-1.441855 0.1467442,-2.880516 0.2868975,-4.316515 0.090029,-1.236546 0.05421,-2.475728 0.055369,-3.715007 5.35e-5,-1.195282 -0.010176,-2.391455 0.052747,-3.585567 0.077536,-1.125016 0.2098574,-2.244633 0.5989,-3.311575 0.3221201,-0.993159 0.6220306,-2.001179 0.7759657,-3.035718 0.1749433,-1.072391 0.2067145,-2.165163 0.4898247,-3.217715 0.3989446,-1.341035 0.886205,-2.653572 1.3161045,-3.98467 0.4466799,-1.41393 1.0182418,-2.776582 1.5458916,-4.160226 0.4596934,-1.459129 0.9638076,-2.908292 1.5907896,-4.304694 0.422124,-1.047205 0.771415,-2.115725 1.146179,-3.180648 0.591264,-1.671666 1.116702,-3.367081 1.73291,-5.030414 0.749886,-2.05373 1.562502,-4.088681 2.570242,-6.031667 0.824624,-1.811724 1.742364,-3.5702354 2.741609,-5.2925292 0.79132,-1.3502024 1.586523,-2.6877269 2.933728,-3.5617301 C 23.130062,3.3132503 24.4038,2.525927 25.886649,2.3397363 Z" />
    <path
       style="fill:#4d4d4d;stroke-width:0.264583"
       id="path2"
       d="m 16.314821,19.984199 c 3.566971,-0.113261 7.100256,-0.800798 10.605369,-1.434971 2.296927,-0.448151 4.628536,-0.775919 6.897208,-1.362387 1.101275,-0.284688 1.947553,-0.586638 3.022476,-0.944825 2.208649,-0.817947 4.417787,-1.631144 6.600716,-2.51579 1.618819,-0.690364 3.278018,-1.282684 4.914853,-1.930863 1.53172,-0.535964 3.034336,-1.144166 4.533397,-1.7631 1.143026,-0.3579294 2.193065,-0.9245073 3.258127,-1.4582661 0.927986,-0.4044148 1.827268,-0.8675788 2.751476,-1.2816774 0.715258,-0.2821585 0.358947,-0.153316 1.068318,-0.3882347 0,0 -3.256462,-2.2040141 -3.256462,-2.2040141 v 0 c -0.718987,0.2595055 -0.35778,0.1202547 -1.083138,0.4189973 -0.933183,0.4137383 -1.84749,0.8663705 -2.775747,1.290863 -1.043736,0.5444945 -2.093499,1.0712479 -3.210954,1.4525434 -1.491162,0.6249347 -2.998994,1.2066418 -4.516165,1.7656347 -1.638966,0.6413629 -3.298417,1.2338599 -4.911235,1.9384579 -2.161852,0.881396 -4.33741,1.727101 -6.528173,2.534309 -3.205231,1.060801 -6.504567,1.726723 -9.828558,2.30501 -3.53826,0.639544 -7.11852,1.324541 -10.727969,1.263213 z" />
    <path
       style="fill:#4d4d4d;stroke-width:0.264583"
       id="path3"
       d="m 9.591468,38.117422 c 1.798038,0.172792 3.605243,0.207378 5.409932,0.248812 2.665819,0.186311 5.288667,-0.115261 7.920052,-0.504785 3.739885,-0.591408 7.455056,-1.331535 11.159664,-2.111391 3.907258,-0.774592 7.694536,-2.038774 11.468254,-3.292785 4.32527,-1.463267 8.556535,-3.194092 12.792889,-4.89476 3.587798,-1.502636 7.23582,-2.85317 10.79382,-4.426064 1.700718,-0.630603 3.346948,-1.360094 4.984036,-2.133528 1.206748,-0.476608 2.409928,-0.960325 3.606752,-1.461594 1.41704,-0.589758 2.778406,-1.305276 4.109265,-2.067867 1.297617,-0.765127 2.468039,-1.72041 3.722201,-2.554616 1.100566,-0.763744 2.238562,-1.465923 3.330876,-2.243009 0.591286,-0.386562 1.147403,-0.821402 1.734331,-1.213849 0,0 -3.317894,-2.1197449 -3.317894,-2.1197449 v 0 c -0.582334,0.4038772 -1.149043,0.8295679 -1.740416,1.2205919 -1.079912,0.776108 -2.194123,1.496253 -3.283984,2.257362 -1.249193,0.831829 -2.435789,1.759497 -3.732255,2.516492 -1.317715,0.75089 -2.652535,1.480143 -4.067686,2.033159 -1.216178,0.480874 -2.430113,0.966458 -3.635634,1.472291 -1.603679,0.792415 -3.236055,1.503235 -4.892908,2.180455 -3.520519,1.59978 -7.127636,2.994435 -10.700937,4.4705 -4.232648,1.708826 -8.471488,3.419447 -12.80508,4.857979 -3.773297,1.241287 -7.556835,2.493026 -11.465057,3.244291 -3.701341,0.785305 -7.416162,1.52277 -11.159467,2.079763 -2.641274,0.350951 -5.276506,0.585941 -7.944129,0.410348 -1.821683,-0.04619 -3.6502457,-0.08821 -5.4574417,-0.341249 z" />
    <path
       style="fill:#4d4d4d;stroke-width:0.264583"
       id="path4"
       d="m 103.32252,12.628532 c -2.31328,2.464556 -4.417263,5.113446 -6.523531,7.753924 -2.053688,2.600336 -4.193157,5.119771 -6.514476,7.484384 -1.786506,1.893117 -3.803375,3.525541 -5.948661,4.99051 -2.027095,1.396007 -4.124196,2.685584 -6.254462,3.916926 -1.962298,1.147625 -3.970218,2.206267 -6.033111,3.16121 -2.336125,1.010015 -4.690607,1.975929 -7.034884,2.966809 -3.093212,1.269233 -6.148171,2.624643 -9.249908,3.873373 -3.583723,1.422816 -7.178172,2.818485 -10.798172,4.146537 -2.430071,0.917228 -4.89549,1.715336 -7.430108,2.281111 -2.111502,0.397692 -4.227515,0.756872 -6.325124,1.224854 -2.321539,0.633544 -4.692264,0.984207 -7.086784,1.172284 -2.175676,0.134374 -4.356647,0.132773 -6.535563,0.139845 -1.87231,0.0058 -3.744564,-0.01098 -5.616793,-0.02556 -1.092796,-0.0076 -2.1856323,-0.0059 -3.2784511,-0.0085 -0.8468596,-0.0021 -1.6937215,-0.0032 -2.5405837,-0.0037 -0.7688929,-2.64e-4 -1.5377855,-2.64e-4 -2.3066784,-2.64e-4 -0.1277157,2e-6 -0.2554314,5e-6 -0.3831471,8e-6 0,0 3.1984661,2.323819 3.1984661,2.323819 v 0 c 0.1277215,0 0.255443,3e-6 0.3831645,3e-6 0.7685871,-3e-6 1.5371741,1.6e-5 2.3057612,-2.65e-4 0.8434495,-5.29e-4 1.6868985,-0.0016 2.5303465,-0.0036 1.087359,-0.0021 2.174712,5.29e-4 3.262065,-0.0026 1.857823,-0.007 3.715653,-0.01304 5.573491,-0.0078 2.183578,-0.0013 4.368641,-0.01786 6.548046,-0.169095 2.404732,-0.207479 4.77692,-0.60433 7.114109,-1.215565 2.105631,-0.448908 4.229666,-0.790321 6.339342,-1.218636 2.526054,-0.579269 4.960123,-1.455603 7.38065,-2.376369 3.614028,-1.355651 7.216944,-2.741049 10.810235,-4.150595 3.110304,-1.246442 6.173864,-2.601601 9.279749,-3.858742 2.370638,-0.967097 4.737685,-1.943666 7.092358,-2.948532 2.063141,-0.971227 4.059769,-2.065708 6.037296,-3.199929 2.129438,-1.244272 4.228751,-2.540495 6.251538,-3.953246 2.156338,-1.488916 4.21091,-3.11264 5.972636,-5.064701 2.304552,-2.392799 4.463851,-4.91106 6.495824,-7.540362 2.07981,-2.637795 4.1418,-5.327174 6.63991,-7.589714 z" />
    <path
       style="fill:#4d4d4d;stroke-width:0.264583"
       id="path5"
       d="m 5.1288132,70.702524 c 1.6750217,-0.02222 3.3502337,-0.014 5.0253508,-0.01556 2.613292,0.0048 5.226375,-0.02757 7.839631,-0.037 3.400027,0.08781 6.787079,-0.328234 10.122216,-0.954177 2.605421,-0.414004 5.183828,-0.957035 7.75793,-1.531258 2.853282,-0.583903 5.608357,-1.510477 8.37996,-2.384499 4.116604,-1.334026 8.295677,-2.447695 12.501509,-3.459416 5.061075,-1.226159 10.174891,-2.216965 15.252404,-3.36953 4.147992,-1.087316 8.361815,-1.926344 12.496101,-3.061999 2.974676,-0.85821 5.958829,-1.682202 8.844682,-2.810296 1.813264,-0.707199 3.578484,-1.549934 5.269884,-2.512501 2.185029,-1.205566 4.279569,-2.546411 6.296099,-4.014756 1.59099,-1.111814 3.04995,-2.371794 4.49184,-3.66441 0.97609,-0.994903 1.98115,-1.960923 2.94305,-2.969549 1.1727,-1.452557 2.13519,-3.05504 2.98774,-4.711287 0.89571,-1.678707 1.61767,-3.440324 2.4478,-5.149538 0.71893,-1.430768 1.40342,-2.871507 2.21458,-4.252721 0.43208,-0.909488 1.00128,-1.735771 1.51747,-2.596088 0.54264,-0.740896 1.11254,-1.465539 1.55657,-2.272233 0,0 -3.42601,-1.966464 -3.42601,-1.966464 v 0 c -0.43314,0.806273 -1.00956,1.518487 -1.53897,2.261423 -0.5244,0.858637 -1.08721,1.693673 -1.50813,2.611494 -0.7916,1.403259 -1.47421,2.856133 -2.19121,4.298307 -0.82396,1.70892 -1.56913,3.455961 -2.44362,5.141714 -0.83031,1.627879 -1.77625,3.196429 -2.96249,4.594146 -0.96168,0.994884 -1.94087,1.972191 -2.91615,2.953565 -1.41664,1.290854 -2.8543,2.547001 -4.41829,3.66191 -2.011837,1.460161 -4.108639,2.779099 -6.297243,3.960159 -1.6881,0.933101 -3.442711,1.748285 -5.228133,2.477519 -2.852343,1.138687 -5.801632,1.982096 -8.753607,2.821376 -4.118475,1.115396 -8.287115,2.048737 -12.424298,3.092566 -5.077071,1.166916 -10.18962,2.173579 -15.260349,3.368956 -4.231799,1.012811 -8.434719,2.129522 -12.588248,3.430233 -2.77735,0.85572 -5.544241,1.746001 -8.394875,2.33567 -2.569408,0.569801 -5.149696,1.078248 -7.743354,1.525257 -3.307806,0.612245 -6.658839,1.041077 -10.031179,0.933145 -2.647206,-0.0095 -5.2942467,-0.04165 -7.9414881,-0.037 -1.6893815,-0.0016 -3.3788522,0.0065 -5.0681415,-0.01553 z" />
    <path
       style="fill:#4d4d4d;stroke-width:0.264583"
       id="path6"
       d="m 125.6948,23.229397 c -0.54786,1.619883 -0.96791,3.278381 -1.52592,4.894597 -0.60866,1.527823 -1.22361,3.053193 -1.81593,4.587737 -0.60153,1.510202 -1.22771,2.998983 -2.0305,4.414242 -0.87771,1.468395 -1.85748,2.870568 -2.76631,4.320072 -0.84125,1.316572 -1.80332,2.554433 -2.79362,3.761562 -1.49837,1.929678 -3.22826,3.658288 -4.92194,5.413002 -1.93327,2.076683 -4.06223,3.958087 -6.24766,5.762802 -2.42739,1.944196 -4.836774,3.910383 -7.25442,5.866548 -1.860193,1.564487 -3.839789,2.992493 -5.983317,4.142232 -2.25416,1.141696 -4.580805,2.120601 -6.933218,3.037959 -2.899272,1.153721 -5.78291,2.344431 -8.667091,3.534881 -2.925024,1.257348 -5.913096,2.353816 -8.939458,3.338759 -1.922497,0.540533 -3.854024,1.059516 -5.80072,1.505947 -2.874219,0.659932 -5.785665,1.140664 -8.69591,1.611016 -3.477222,0.575842 -6.996787,0.760958 -10.514094,0.867492 -3.25465,0.07648 -6.51038,0.0631 -9.765623,0.0524 -2.443554,0.0031 -4.887019,-0.0195 -7.330546,-0.02524 -1.886847,-0.0049 -3.773706,-0.004 -5.660559,-0.003 -1.99318,0.0047 -3.986353,0.0021 -5.979533,-1.85e-4 C 10.765321,80.30852 9.4622312,80.30018 8.1591255,80.29537 7.2570897,80.26044 6.3430247,80.37086 5.4491717,80.23003 5.0527486,80.15421 4.6539393,80.093994 4.2543399,80.038106 c 0,0 3.1630434,2.369011 3.1630434,2.369011 v 0 c 0.4001326,0.06109 0.799275,0.12895 1.2010059,0.179033 0.908562,0.05947 1.8202808,0.01101 2.7302958,0.02657 1.287625,-0.0048 2.575234,-0.01318 3.862863,-0.01691 1.992956,-0.0024 3.985906,-0.005 5.978862,-2.65e-4 1.885449,0.0011 3.770895,0.0021 5.656342,2.65e-4 2.429259,-0.0013 4.858507,-0.01545 7.28777,-0.0059 3.248287,-0.0056 6.49714,-0.0067 9.744681,-0.08288 3.523766,-0.117152 7.047767,-0.325655 10.529213,-0.916001 2.940743,-0.470106 5.890569,-0.917469 8.796827,-1.572728 1.947039,-0.457526 3.885149,-0.96306 5.796769,-1.55207 3.012094,-1.021289 5.968736,-2.190805 8.915564,-3.386129 2.892814,-1.174287 5.76611,-2.397416 8.68149,-3.516212 2.37676,-0.910865 4.720749,-1.903198 6.989135,-3.061745 2.137659,-1.193136 4.145944,-2.614605 5.99616,-4.218533 2.395289,-1.983436 4.808939,-3.941741 7.244379,-5.875316 2.19267,-1.81927 4.35168,-3.694279 6.28847,-5.788739 1.69581,-1.771256 3.45128,-3.491368 4.98711,-5.407859 1.0079,-1.214821 1.98319,-2.465289 2.82484,-3.802263 0.90906,-1.454886 1.88178,-2.867975 2.76133,-4.340926 0.82318,-1.429047 1.47414,-2.924268 2.07742,-4.457507 0.57892,-1.545085 1.20539,-3.071556 1.80712,-4.607526 0.54756,-1.61127 0.96037,-3.265567 1.57472,-4.854673 z" />
    <path
       style="fill:#4d4d4d;stroke-width:0.264583"
       id="path7"
       d="m 7.6872186,91.455173 c 1.296261,-0.01281 2.5926064,-0.01212 3.8889154,-0.02008 2.532574,-0.0075 5.065131,-0.01445 7.597685,-0.02915 4.507457,-0.01886 9.014958,-0.02291 13.522444,-0.03119 4.31241,-0.01439 8.624724,0.02498 12.937088,0.03155 5.051449,-0.302877 10.041609,-1.308291 15.013424,-2.213513 5.738241,-1.034269 11.485023,-2.021593 17.210566,-3.124824 2.77119,-0.497036 5.502796,-1.185339 8.266142,-1.719506 3.047997,-0.515189 6.080191,-1.11284 9.106201,-1.745157 3.444089,-0.821428 6.826626,-1.902854 10.112546,-3.219566 2.42287,-0.927921 4.65203,-2.262587 6.87594,-3.581075 2.47886,-1.511549 5.01395,-2.929041 7.47201,-4.477176 1.66536,-1.046162 3.23353,-2.225738 4.68324,-3.552891 1.11915,-1.0781 2.06327,-2.321401 3.07207,-3.501297 1.24033,-1.507903 2.52825,-2.973266 3.7195,-4.521235 1.24765,-1.482442 2.5297,-2.91965 3.60938,-4.531698 0.8577,-1.249696 1.40515,-2.662283 1.99377,-4.048207 0.71396,-1.965077 1.50809,-3.898464 2.26233,-5.847784 0.65177,-1.511054 1.06603,-3.09885 1.50885,-4.67763 0.17564,-0.579342 0.31622,-1.167487 0.44711,-1.758129 0,0 -3.46771,-1.858815 -3.46771,-1.858815 v 0 c -0.11786,0.587158 -0.24576,1.171985 -0.41536,1.746928 -0.43486,1.570389 -0.82796,3.155616 -1.4579,4.664323 -0.73467,1.94921 -1.5299,3.875657 -2.28914,5.815436 -0.58475,1.360776 -1.10265,2.762155 -1.94068,3.99506 -1.071,1.603156 -2.33843,3.043325 -3.5772,4.517724 -1.20818,1.526354 -2.47677,3.000925 -3.71743,4.500517 -1.00944,1.162145 -1.98038,2.364364 -3.0739,3.448275 -1.41508,1.319257 -2.95323,2.485813 -4.57957,3.535103 -2.45137,1.557721 -4.98274,2.976475 -7.47853,4.458817 -2.21062,1.298405 -4.41865,2.622579 -6.8184,3.549843 -3.260294,1.316704 -6.614756,2.41876 -10.050002,3.180603 -3.040579,0.629521 -6.093902,1.184556 -9.154486,1.70628 -2.733164,0.544536 -5.43592,1.222354 -8.163779,1.792314 -5.683274,1.173657 -11.402134,2.16291 -17.114454,3.18307 -5.005935,0.88057 -10.037611,1.837682 -15.124527,2.053732 -4.283417,0.0065 -8.566783,0.04611 -12.850249,0.03155 -4.536102,-0.0083 -9.072219,-0.01238 -13.608292,-0.03119 -2.559301,-0.01463 -5.118605,-0.02164 -7.6779263,-0.02915 -1.314726,-0.0079 -2.6294869,-0.0074 -3.9441673,-0.02008 z" />
    <path
       style="fill:#4d4d4d;stroke-width:0.264583"
       id="path8"
       d="m 15.099255,104.00359 c 2.054781,-0.39938 4.151071,-0.49967 6.237647,-0.58755 2.46285,-0.0842 4.927494,-0.0897 7.391503,-0.0925 1.988204,0.001 3.976338,0.0191 5.964526,0.0251 2.150308,-0.20657 4.309266,-0.2605 6.460463,-0.44905 4.009702,-0.43983 7.966496,-1.24807 11.944186,-1.90591 4.861666,-0.78635 9.69091,-1.740987 14.554311,-2.516105 8.173797,-1.270325 16.388752,-2.271157 24.53369,-3.721058 4.258456,-0.742026 8.495379,-1.584348 12.659569,-2.747126 3.48282,-1.036468 6.94208,-2.143442 10.38154,-3.315192 2.50898,-0.952352 5.03831,-1.835285 7.5037,-2.896949 2.20725,-0.955869 4.43063,-1.874298 6.66198,-2.772344 1.82997,-0.774134 3.55574,-1.746335 5.20344,-2.850542 1.35879,-0.996148 2.68333,-2.075838 3.89664,-3.247371 1.16667,-1.016542 2.09168,-2.256875 2.99251,-3.50397 0.74493,-1.21049 1.50735,-2.408653 2.2855,-3.5985 0.72066,-1.045538 1.45447,-2.078101 2.16001,-3.134148 0.10808,-0.172318 0.21616,-0.344633 0.32423,-0.516951 0,0 -3.39254,-1.977056 -3.39254,-1.977056 v 0 c -0.10767,0.168677 -0.21533,0.337354 -0.323,0.506031 -0.70744,1.055643 -1.42546,2.100948 -2.14168,3.15047 -0.77045,1.1874 -1.55764,2.363177 -2.28325,3.578972 -0.88158,1.231968 -1.7916,2.449232 -2.94184,3.449018 -1.2155,1.136708 -2.49329,2.230424 -3.84662,3.19836 -1.63654,1.071229 -3.3354,2.042856 -5.14514,2.795733 -2.22656,0.90438 -4.44163,1.836991 -6.6469,2.792113 -2.45342,1.047917 -4.9743,1.918992 -7.45693,2.894513 -3.42011,1.190516 -6.86736,2.297435 -10.34388,3.312427 -4.121838,1.127371 -8.299699,2.013805 -12.495448,2.821218 -8.130135,1.535022 -16.329622,2.630236 -24.530825,3.709569 -4.906052,0.70834 -9.771192,1.62909 -14.659586,2.447139 -3.989379,0.643374 -7.957256,1.454609 -11.983114,1.839089 -2.17624,0.14439 -4.357216,0.18904 -6.531909,0.36065 -1.968791,0.002 -3.937547,0.0146 -5.906336,0.0183 -2.47468,0.004 -4.950777,-0.0151 -7.423811,0.0906 -2.122467,0.10797 -4.250939,0.22045 -6.347106,0.59257 z" />
    <path
       style="fill:#4d4d4d;stroke-width:0.264583"
       id="path9"
       d="m 20.913814,115.85461 c 2.667572,-0.68117 5.328205,-1.39043 7.9979,-2.06446 2.004099,-0.54802 4.054274,-0.93287 6.041821,-1.54202 0.518763,-0.15899 2.144948,-0.72177 2.65262,-0.89596 3.906951,-1.30384 7.967281,-2.06365 11.987109,-2.92665 5.417116,-1.01552 10.838825,-2.00604 16.23736,-3.11697 5.463373,-1.0918 10.916557,-2.23366 16.377155,-3.33917 4.396407,-0.97376 8.852215,-1.63872 13.258816,-2.560621 2.71676,-0.653396 5.454145,-1.210402 8.186395,-1.792692 1.79154,-0.489029 3.61189,-0.844328 5.42961,-1.217388 2.48428,-0.472199 4.94822,-1.044157 7.421,-1.571844 1.75969,-0.432308 3.54004,-0.764487 5.31551,-1.12141 1.85884,-0.459177 3.71893,-0.891548 5.61111,-1.189477 1.7248,-0.279974 3.41062,-0.74277 5.11694,-1.11007 1.18052,-0.383646 2.42049,-0.478218 3.62768,-0.726937 1.43246,-0.324194 2.79938,-0.925388 4.14976,-1.496304 1.468,-0.714965 2.93474,-1.451035 4.3364,-2.289077 0.99986,-0.588359 1.88144,-1.31173 2.70684,-2.120741 0.57578,-0.662652 1.18943,-1.289187 1.76465,-1.952344 0.0985,-0.116176 0.19708,-0.232352 0.29561,-0.348528 0,0 -3.37981,-2.034347 -3.37981,-2.034347 v 0 c -0.0981,0.114578 -0.19628,0.229153 -0.29442,0.343731 -0.57238,0.65097 -1.17624,1.272376 -1.7428,1.928744 -0.80428,0.780901 -1.66234,1.485929 -2.63217,2.056783 -1.39409,0.813864 -2.82479,1.571821 -4.28616,2.258065 -1.34592,0.557745 -2.71349,1.114655 -4.14669,1.401543 -1.21067,0.220565 -2.42858,0.400249 -3.6122,0.751009 -1.68863,0.390861 -3.36632,0.834541 -5.0799,1.108885 -1.89802,0.324773 -3.77052,0.764119 -5.64967,1.181658 -1.75734,0.370422 -3.51594,0.732044 -5.25949,1.165059 -2.47287,0.541985 -4.94404,1.091374 -7.43283,1.557758 -1.82701,0.367792 -3.66041,0.704908 -5.45733,1.206643 -2.688761,0.621879 -5.381103,1.227081 -8.064761,1.87103 -4.398478,0.911965 -8.836253,1.620829 -13.224761,2.583061 -5.439183,1.133261 -10.868703,2.313431 -16.32222,3.377011 -5.417719,1.10059 -10.859648,2.07047 -16.294748,3.08032 -4.061672,0.85088 -8.156601,1.6195 -12.11212,2.89558 -2.83845,0.96232 -5.720386,1.75567 -8.639462,2.43889 -2.705792,0.69391 -5.417633,1.3547 -8.137893,1.98823 z" />
    <path
       style="fill:#4d4d4d;stroke-width:0.264583"
       id="path10"
       d="m 29.616593,121.87237 c 2.074714,0.17463 4.15794,0.2089 6.238666,0.24438 2.417344,0.0148 4.836461,0.136 7.247667,-0.0609 0.483722,-0.0445 0.96951,-0.0703 1.451166,-0.13334 0.767228,-0.10037 3.204879,-0.54284 3.872066,-0.65473 2.030428,-0.3405 4.069088,-0.62425 6.102154,-0.94796 3.509494,-0.55455 6.95326,-1.44387 10.411441,-2.2467 2.289847,-0.53859 4.6306,-0.80286 6.943117,-1.21723 1.462918,-0.26214 2.918232,-0.56508 4.377996,-0.84424 4.327642,-0.94021 8.690891,-1.69285 13.047157,-2.48298 2.632978,-0.6004 5.321827,-0.88676 7.967173,-1.41542 2.004642,-0.39992 3.989034,-0.89713 5.981354,-1.35555 1.96559,-0.428 3.92221,-0.88917 5.90515,-1.23249 3.22509,-0.67616 6.4636,-1.26567 9.72528,-1.73532 2.76633,-0.27117 5.36908,-1.13563 7.95404,-2.10453 2.74555,-1.10059 5.50669,-2.16516 8.22188,-3.33945 1.58736,-0.63947 3.19388,-1.22445 4.78269,-1.85955 0.97993,-0.28907 1.87307,-0.774751 2.79522,-1.196415 0.84563,-0.50778 1.69115,-1.000823 2.5642,-1.459418 0.13827,-0.08214 0.27654,-0.16429 0.41481,-0.246435 0,0 -3.30728,-2.145848 -3.30728,-2.145848 v 0 c -0.13512,0.07719 -0.27025,0.154387 -0.40538,0.231579 -0.86804,0.454642 -1.69193,0.978207 -2.5527,1.445488 -0.90727,0.433578 -1.81439,0.861671 -2.76714,1.191273 -1.57102,0.65283 -3.17166,1.229231 -4.7339,1.904006 -2.69208,1.19211 -5.42886,2.28306 -8.17528,3.3429 -2.56432,0.9249 -5.16054,1.72233 -7.87656,2.06358 -3.2833,0.5037 -6.55641,1.06605 -9.82083,1.68071 -1.97996,0.35452 -3.93149,0.82747 -5.8946,1.26249 -1.997053,0.44353 -3.983881,0.9315 -5.988793,1.33766 -2.622719,0.51356 -5.273201,0.88102 -7.882101,1.46876 -4.337471,0.81298 -8.675732,1.61752 -12.99614,2.51926 -3.793588,0.68461 -7.608369,1.25372 -11.382441,2.03901 -3.453162,0.80097 -6.899534,1.65318 -10.400197,2.22456 -3.801131,0.6444 -7.614015,1.30111 -11.451253,1.67292 -2.40841,0.12646 -4.820833,0.0519 -7.231719,0.0313 -2.104596,-0.0481 -4.216011,-0.0853 -6.30746,-0.34568 z" />
    <path
       style="fill:#4d4d4d;stroke-width:0.264583"
       id="path11"
       d="m 44.555245,129.17693 c 1.61157,0.1697 3.232306,0.21417 4.851168,0.25297 2.363253,0.0841 4.71529,-0.23086 7.033291,-0.65924 3.190613,-0.57834 6.364296,-1.25178 9.532231,-1.94341 3.956931,-0.97458 8.000762,-1.44711 12.028829,-2.01706 4.364685,-0.53643 8.70653,-1.21119 13.025255,-2.03537 3.291644,-0.68031 6.577703,-1.37688 9.913381,-1.80291 2.25382,-0.27151 4.5238,-0.328 6.79115,-0.35239 2.69881,-0.0226 5.39779,-0.015 8.09666,-0.009 2.77158,-10e-4 5.54317,0.002 8.31473,0.0155 1.56539,0.0134 3.1308,0.0169 4.69624,0.0167 1.50049,-0.0945 2.99018,-0.34036 4.46583,-0.62364 1.31005,-0.18773 2.4936,-0.80413 3.71751,-1.26765 0.80394,-0.2835 1.55905,-0.63842 2.27957,-1.09058 0,0 -3.28298,-2.12485 -3.28298,-2.12485 v 0 c -0.72473,0.4113 -1.47947,0.74057 -2.26436,1.02284 -1.1912,0.4822 -2.36386,1.04639 -3.65209,1.22199 -1.4652,0.2611 -2.94046,0.52111 -4.43114,0.56047 -1.55039,-1.5e-4 -3.10076,0.003 -4.65111,0.016 -2.76275,0.0118 -5.52553,0.0127 -8.28829,0.003 -2.71278,-0.003 -5.42553,-0.0163 -8.13831,-0.0144 -2.26288,0.0298 -4.52684,0.11948 -6.77221,0.42291 -3.324473,0.46101 -6.604243,1.16908 -9.890011,1.84712 -4.291253,0.85268 -8.613415,1.51606 -12.954838,2.06042 -4.054859,0.56095 -8.13353,0.98571 -12.110799,1.99427 -3.181506,0.69312 -6.37222,1.34454 -9.582632,1.89089 -2.3134,0.40176 -4.654968,0.70507 -7.008921,0.57966 -1.632503,-0.0481 -3.270699,-0.10094 -4.888971,-0.33709 z" />
    <path
       style="fill:#4d4d4d;stroke-width:0.264583"
       id="path12"
       d="m 74.185803,134.93575 c 2.341374,0.24371 4.682844,0.11577 7.022624,-0.0567 2.893382,-0.14011 5.764027,-0.51135 8.610941,-1.03674 2.452179,-0.53656 4.922287,-0.97834 7.382486,-1.4759 2.253612,-0.53289 4.488266,-1.09475 6.783086,-1.42102 2.2607,-0.17094 4.46782,-0.68154 6.67663,-1.16066 1.68918,-0.33679 3.39738,-0.58302 5.07771,-0.96319 1.09259,-0.20277 2.16082,-0.51182 3.25423,-0.71 0.94692,-0.15445 1.90902,-0.15509 2.86568,-0.16682 0.9812,-0.006 1.96242,7.9e-4 2.94362,0.005 0.79111,0.003 1.58222,0.004 2.37333,0.004 0,0 -3.19823,-2.32387 -3.19823,-2.32387 v 0 c -0.78951,-2.7e-4 -1.57902,-8e-4 -2.36854,-0.002 -0.97831,-5.3e-4 -1.95665,-10e-4 -2.93492,0.009 -0.9745,0.0141 -1.95535,0.0244 -2.91452,0.21839 -1.08446,0.22489 -2.15395,0.51683 -3.24073,0.73176 -1.67039,0.36134 -3.35402,0.65663 -5.02889,0.99569 -2.20156,0.48358 -4.40958,0.93199 -6.65789,1.14157 -2.296447,0.35124 -4.540352,0.9144 -6.803034,1.43376 -2.446205,0.51333 -4.906584,0.94979 -7.347291,1.48973 -2.840906,0.51142 -5.701342,0.8639 -8.586341,1.00315 -2.360321,0.16441 -4.728426,0.25826 -7.080498,-0.08 z" />
    <path
       style="fill:#4d4d4d;stroke-width:0.264583"
       id="path13"
       d="m 14.937568,11.738683 c 1.167373,0.592384 3.699369,1.71296 -1.457488,-0.893543 -0.251052,-0.126893 0.4742,0.306118 0.687035,0.490048 0.719489,0.621777 0.894476,0.939643 1.480016,1.708793 1.531576,2.053756 2.237401,4.478557 2.899553,6.910043 0.741308,2.856354 1.365586,5.739942 2.016186,8.617425 0.647491,2.146853 1.210745,4.312089 1.744545,6.490425 0.911417,3.779144 1.752031,7.575473 2.560981,11.37776 1.403699,5.83179 2.063253,11.783984 2.443369,17.757619 0.204121,3.912457 0.224436,7.83077 0.194061,11.747346 -0.02476,1.616822 -0.03665,3.233449 -0.03662,4.850408 0.0062,1.877827 0.0074,3.755604 -0.0058,5.6334 7.93e-4,1.474036 -0.0034,2.948038 -0.01249,4.422045 0.05123,1.391623 -0.06826,2.768941 -0.357555,4.129315 -0.343138,1.553823 -0.639862,3.11664 -0.972158,4.672962 -0.332472,1.368341 -0.688417,2.730861 -0.866876,4.129451 -0.117068,1.07212 -0.380464,2.10786 -0.78561,3.1049 -0.510835,1.03199 -0.874725,2.12445 -1.293192,3.19429 -0.546252,1.31199 -1.114292,2.61552 -1.685721,3.91786 -0.36697,0.81479 -0.799395,1.59743 -1.201461,2.39513 0,0 3.410228,1.94285 3.410228,1.94285 v 0 c 0.404271,-0.80502 0.826775,-1.6017 1.192942,-2.42498 0.564893,-1.30893 1.16606,-2.60278 1.719595,-3.91588 0.417007,-1.06736 0.767691,-2.1631 1.291068,-3.1865 0.432123,-1.02532 0.699141,-2.09507 0.833657,-3.20082 0.157774,-1.39297 0.471607,-2.75751 0.818312,-4.11475 0.33502,-1.554539 0.650867,-3.111284 0.979977,-4.666796 0.31061,-1.377545 0.468042,-2.77999 0.415864,-4.194188 -0.0092,-1.478179 -0.01371,-2.956359 -0.01236,-4.43457 -0.01212,-1.877377 -0.01024,-3.754747 0.0058,-5.632106 0.01074,-1.623616 0.02424,-3.247194 0.0016,-4.870839 -0.0519,-3.959415 -0.196408,-7.917005 -0.392213,-11.871827 C 30.20619,59.84038 29.527352,53.887298 28.171441,48.038424 27.40887,44.262471 26.654625,40.483287 25.78569,36.730133 25.252535,34.553858 24.734625,32.377623 24.042923,30.244753 23.343646,27.369084 22.693245,24.481251 22.000429,21.603903 21.38163,19.1352 20.678828,16.68013 19.184828,14.573688 c -0.433551,-0.618138 -0.844592,-1.273932 -1.3946,-1.802176 -0.204065,-0.19599 -0.436705,-0.3629 -0.677865,-0.510874 -1.717132,-1.053619 -3.42375,-2.171663 -5.279666,-2.9758308 z" />
    <path
       style="fill:#4d4d4d;stroke-width:0.264583"
       id="path14"
       d="m 7.6531853,29.047149 c 1.4367052,0.858509 1.9942415,2.430639 2.5595547,3.916174 0.700247,1.975559 1.105987,4.027451 1.335713,6.105398 0.178515,2.070201 0.182991,4.150641 0.179953,6.22703 0.0017,1.765326 -0.01112,3.530623 -0.01382,5.295931 -0.0096,1.727015 -0.0037,3.454022 0.0058,5.181026 7.4e-4,2.003526 0.0417,4.002148 -0.141749,5.998874 -0.248212,2.004407 -0.569299,4.000079 -0.875238,5.996787 -0.215182,1.503373 -0.565008,2.980832 -0.769364,4.485909 -0.1480896,1.148125 -0.1545068,2.307164 -0.1598826,3.462745 0.00305,1.314474 0.029994,2.621984 -0.1318126,3.928179 -0.2062585,1.707684 -0.5171355,3.397028 -0.8770466,5.077846 -0.3329789,1.365017 -0.6421125,2.731704 -0.8062936,4.127921 -0.05326,1.011095 -0.3320616,1.992707 -0.6436418,2.950747 -0.049083,0.147095 -0.098167,0.29419 -0.1472502,0.441285 0,0 3.4546764,1.901674 3.4546764,1.901674 v 0 c 0.04849,-0.147743 0.09699,-0.295486 0.145482,-0.443227 0.325076,-0.979916 0.622513,-1.99263 0.672261,-3.028497 0.140375,-1.388814 0.419997,-2.753554 0.764641,-4.105963 0.352884,-1.691627 0.667453,-3.389186 0.889659,-5.103778 0.192805,-1.317395 0.203943,-2.632451 0.174294,-3.962411 0.01026,-1.141047 0.01708,-2.284674 0.138709,-3.420573 0.18052,-1.509035 0.515415,-2.989836 0.73446,-4.492916 0.310552,-2.004965 0.588709,-4.016692 0.863439,-6.026507 0.214584,-2.004872 0.187599,-4.013427 0.169095,-6.027915 0.01,-1.723646 0.01635,-3.447298 0.01248,-5.170974 0.0037,-1.767432 0.0031,-3.534878 0.0052,-5.302316 -0.0146,-2.089856 -0.02475,-4.181401 -0.169876,-6.267315 -0.220199,-2.10552 -0.619441,-4.183174 -1.298315,-6.19371 -0.532639,-1.48203 -1.02453,-3.168714 -2.383583,-4.108583 z" />
    <path
       style="fill:#4d4d4d;stroke-width:0.264583"
       id="path15"
       d="m 30.193702,1.7776819 c 0.553773,2.1449237 1.085167,4.296415 1.644092,6.4408158 0.75353,2.9728953 1.277834,5.9955733 1.910426,8.9950363 0.604533,2.602792 1.299213,5.18465 1.802088,7.809891 0.233222,1.705987 0.55041,3.392512 0.969399,5.062065 0.468146,1.929617 0.773932,3.894317 1.136253,5.846032 0.401405,2.024999 0.893691,4.030369 1.344163,6.044764 0.524634,2.403893 0.6428,4.870103 0.725273,7.32165 0.06976,2.270993 0.06559,4.543446 0.04885,6.815188 -0.0029,1.783244 -0.01061,3.566451 -0.01426,5.349695 -0.01447,1.543073 -0.0021,3.086126 -0.0026,4.629229 -0.0068,1.355635 -0.0079,2.711257 -0.0097,4.066892 0.0021,1.57526 0.0098,3.150497 0.01728,4.725736 0.119653,2.449065 -0.331586,4.854702 -0.757438,7.252263 -0.453369,1.992234 -0.761976,4.012346 -1.153173,6.016734 -0.1767,1.266132 -0.525685,2.4955 -0.780799,3.745328 -0.41956,2.101762 -0.946351,4.176831 -1.336352,6.284751 -0.442188,2.533978 -1.04435,5.035778 -1.640123,7.536888 -0.407588,1.9227 -0.674786,3.87109 -1.004242,5.80846 -0.242483,0.96845 -0.421722,1.95301 -0.707186,2.90995 -0.366295,1.21349 -0.525153,2.47747 -0.640408,3.73607 0.0269,0.93104 -0.183015,1.78941 -0.462272,2.66557 -0.235361,0.54444 -0.391044,1.11535 -0.527744,1.69074 0,0 3.473866,1.87031 3.473866,1.87031 v 0 c 0.1266,-0.56762 0.276447,-1.12913 0.517472,-1.66098 0.281649,-0.90479 0.541753,-1.78835 0.487622,-2.75142 0.09152,-1.23348 0.22607,-2.47466 0.603316,-3.65834 0.313669,-0.97088 0.481981,-1.97657 0.716991,-2.96862 0.288939,-1.9427 0.531945,-3.89418 0.926053,-5.81876 0.575601,-2.51129 1.224835,-5.00804 1.654132,-7.550531 0.380913,-2.102205 0.935681,-4.160165 1.390029,-6.246709 0.258593,-1.252871 0.639333,-2.478045 0.776869,-3.754999 0.363027,-2.017821 0.645226,-4.049842 1.095346,-6.051618 0.429384,-2.410632 0.917329,-4.82804 0.829085,-7.291597 0.0075,-1.569384 0.01505,-3.138762 0.01722,-4.708168 -0.0019,-1.358931 -0.003,-2.717847 -0.0098,-4.076776 -5.29e-4,-1.54341 0.01201,-3.086756 9.3e-5,-4.630148 -5.29e-4,-1.785583 -0.0021,-3.571158 5.29e-4,-5.356738 -0.01336,-2.280015 -0.01003,-4.560385 -0.06461,-6.839916 C 43.065908,48.570573 42.973669,46.085587 42.487074,43.659829 42.059926,41.644003 41.537421,39.64986 41.140644,37.627388 40.778665,35.670767 40.474018,33.701529 40.022539,31.763411 39.607,30.098441 39.281676,28.417059 39.040027,26.717667 38.516628,24.082278 37.777552,21.496691 37.186801,18.876235 36.549144,15.871954 36.011588,12.846316 35.275734,9.8636335 34.748287,7.7404946 34.216972,5.6182249 33.770154,3.4763522 Z" />
    <path
       style="fill:#4d4d4d;stroke-width:0.264583"
       id="path16"
       d="m 50.107196,5.617293 c 0.06468,2.5581681 0.06265,5.117574 0.06802,7.676404 0.0011,3.307037 -0.02429,6.61179 0.09957,9.916816 0.15838,2.654987 0.592518,5.284318 1.039032,7.903362 0.382468,2.404253 0.985067,4.760584 1.519589,7.132545 0.633826,2.573573 1.065559,5.181005 1.328841,7.816559 0.202041,1.940425 0.112599,3.896122 0.350446,5.83198 0.442867,1.572106 0.72599,3.153127 0.86746,4.779624 0.203639,2.346438 0.109016,4.695335 -0.01053,7.0423 -0.04672,2.08792 -0.507617,4.128911 -0.938446,6.1624 -0.434152,1.761059 -0.805606,3.534415 -1.125077,5.319779 -0.352031,2.029957 -0.876144,4.022976 -1.270857,6.044218 -0.303255,1.411065 -0.537141,2.834852 -0.889754,4.234984 -0.354293,1.272215 -0.580864,2.574452 -0.845518,3.867066 -0.342665,1.674294 -0.865537,3.300809 -1.359591,4.934153 -0.640265,2.171285 -1.277607,4.343255 -1.936763,6.509047 -0.407771,1.41458 -0.625091,2.87435 -0.965705,4.30465 -0.343744,1.19132 -0.528564,2.41484 -0.742649,3.63318 -0.19953,1.1803 -0.432334,2.35696 -0.768937,3.50651 -0.296103,0.87968 -0.404299,1.80348 -0.608886,2.70563 -0.313714,1.10306 -0.739643,2.16726 -1.051285,3.27156 -0.331639,0.98724 -0.707593,1.95857 -1.050821,2.94173 -0.288923,1.13986 -0.548249,2.28334 -0.931006,3.3971 -0.294317,0.87435 -0.589362,1.74971 -0.905274,2.61661 0,0 3.445811,1.91006 3.445811,1.91006 v 0 c 0.316267,-0.86977 0.595548,-1.75368 0.897779,-2.62843 0.384522,-1.11172 0.665724,-2.24967 0.937239,-3.39271 0.34263,-0.99272 0.736883,-1.96682 1.053663,-2.96858 0.303517,-1.11255 0.74162,-2.17643 1.07945,-3.27789 0.202229,-0.89547 0.310208,-1.80994 0.592154,-2.68604 0.344868,-1.1643 0.556913,-2.3635 0.759798,-3.55928 0.225153,-1.20795 0.425186,-2.41832 0.750964,-3.60513 0.335497,-1.42844 0.529064,-2.88958 0.916618,-4.30684 0.623064,-2.17489 1.250246,-4.349304 1.928603,-6.507661 0.519449,-1.637374 1.057093,-3.269604 1.396818,-4.956751 0.267742,-1.283965 0.540665,-2.568078 0.856099,-3.841023 0.36345,-1.409512 0.577469,-2.847821 0.87522,-4.271719 0.360622,-2.030396 0.886317,-4.023693 1.266097,-6.050274 0.316201,-1.782049 0.692801,-3.550185 1.130517,-5.306174 0.401738,-2.061364 0.888754,-4.124513 0.927182,-6.234076 0.11751,-2.357485 0.237022,-4.716626 0.05598,-7.075199 -0.115795,-1.631143 -0.302728,-3.235436 -0.838123,-4.790778 -0.30048,-1.934438 -0.168035,-3.896069 -0.397841,-5.839786 -0.276431,-2.645518 -0.689554,-5.269737 -1.311376,-7.858034 -0.518723,-2.370985 -1.144352,-4.718016 -1.53217,-7.11699 -0.440007,-2.612351 -0.903377,-5.227259 -1.086837,-7.87324 -0.153545,-3.30153 -0.140562,-6.604257 -0.119232,-9.908856 0.0053,-2.535722 0.0028,-5.0720507 0.06802,-7.6070932 z" />
    <path
       style="fill:#4d4d4d;stroke-width:0.264583"
       id="path17"
       d="m 67.39946,6.048734 c -0.02453,2.7958113 0.274304,5.572331 0.574463,8.347382 0.121875,1.815936 0.701802,3.54651 1.049478,5.321034 0.209005,1.066744 0.247774,1.470049 0.391919,2.537097 0.265518,2.148867 0.304382,4.315314 0.330462,6.477497 0.02524,2.356527 0.0141,4.713134 0.0026,7.069706 -0.03232,2.056681 0.03383,4.114049 -0.0519,6.169454 -0.15217,2.37336 -0.821076,4.665345 -1.270442,6.990022 -0.35448,2.262774 -0.734144,4.520239 -1.133943,6.775264 -0.274338,1.96754 -0.642181,3.911307 -1.095393,5.844937 -0.538692,2.014598 -0.784077,4.085175 -1.061937,6.146864 -0.226132,1.631455 -0.331767,3.274255 -0.394081,4.918903 -0.0467,1.052806 -0.0088,2.106816 -0.06455,3.158889 -0.146201,1.555515 -0.228396,3.115638 -0.284901,4.67668 -0.03821,1.461439 -0.04747,2.923336 -0.05566,4.385172 0.08092,1.296943 -0.122791,2.559291 -0.424564,3.814853 -0.332296,1.579136 -0.872691,3.105991 -1.404234,4.626911 -0.464635,1.07506 -0.976963,2.123101 -1.420476,3.207927 -0.337405,0.890355 -0.600133,1.807819 -0.877708,2.718298 -0.451892,1.206656 -0.617588,2.481636 -0.80101,3.748146 -0.14061,1.51992 -0.483822,3.00171 -0.794155,4.49204 -0.415584,1.86155 -0.589436,3.75524 -0.69963,5.65517 -0.174934,1.55516 -0.267583,3.12038 -0.462954,4.67297 -0.227068,1.09938 -0.517962,2.18188 -0.684747,3.2931 -0.109421,0.80616 -0.123219,1.6204 -0.13098,2.43258 0.04376,0.76668 -0.03101,1.51457 -0.156106,2.26891 -0.07763,0.77724 -0.301273,1.52483 -0.424725,2.29441 -0.146146,0.87851 -0.113501,1.77277 -0.212794,2.65472 -0.08587,0.532 -0.04213,0.26622 -0.131199,0.79734 0,0 3.490251,1.85162 3.490251,1.85162 v 0 c 0.08888,-0.5364 0.04339,-0.26598 0.136543,-0.81125 0.125273,-0.87609 0.06202,-1.7692 0.204695,-2.64564 0.121137,-0.76942 0.359222,-1.51129 0.429202,-2.28879 0.129175,-0.77333 0.245697,-1.53598 0.185296,-2.32403 0.0038,-0.79753 0.0087,-1.59693 0.09875,-2.39042 0.145941,-1.11808 0.417504,-2.20905 0.666446,-3.30761 0.207428,-1.56484 0.250367,-3.14994 0.438028,-4.71794 0.100938,-1.87839 0.266867,-3.75455 0.700706,-5.59016 0.302467,-1.49771 0.667161,-2.98194 0.807088,-4.50786 0.198422,-1.24308 0.325919,-2.50617 0.794189,-3.6875 0.273122,-0.89931 0.553154,-1.797922 0.86641,-2.683818 0.441375,-1.093541 0.926082,-2.162643 1.399167,-3.242487 0.532297,-1.532456 1.061339,-3.074594 1.428274,-4.655661 0.321985,-1.279338 0.566504,-2.568083 0.474848,-3.894588 -0.0039,-1.460658 -0.0047,-2.921653 0.03471,-4.381897 0.04735,-1.553826 0.119187,-3.107391 0.296304,-4.652758 0.100407,-1.05631 0.04036,-2.116847 0.0674,-3.17699 0.03597,-1.639133 0.124159,-3.27742 0.334921,-4.904533 0.270652,-2.049672 0.507203,-4.110435 1.051605,-6.110571 0.445592,-1.944505 0.853847,-3.889436 1.084445,-5.87375 0.399616,-2.254231 0.79762,-4.507521 1.124227,-6.774055 0.448305,-2.341195 1.122932,-4.644859 1.317125,-7.028929 0.09854,-2.060898 0.03757,-4.126008 0.05063,-6.188805 -0.0032,-2.356763 0.0026,-4.713491 0.0065,-7.070217 -0.01778,-2.180331 -0.06284,-4.365172 -0.33221,-6.531658 C 72.694136,22.669844 72.52139,21.385041 72.224358,20.121386 71.943013,18.924462 71.833909,18.885024 71.59847,17.625815 71.50288,17.114566 71.448808,16.596421 71.373979,16.081724 71.0662,13.346196 70.762593,10.599455 70.918784,7.8419173 Z" />
    <path
       style="fill:#4d4d4d;stroke-width:0.264583"
       id="path18"
       d="m 86.678914,9.8874137 c 0.513713,1.8662823 0.990458,3.7434393 1.407163,5.6338963 0.513191,3.00395 1.216856,5.96977 1.847554,8.950093 0.403532,2.310978 0.850262,4.613264 1.280363,6.919412 0.262229,1.316307 0.353992,2.653678 0.39619,3.992176 0.03606,1.698373 0.02964,3.397326 0.03051,5.095988 0.04034,2.62027 -0.275616,5.229974 -0.588618,7.826841 -0.292291,2.021316 -0.569958,4.046831 -1.063972,6.030502 -0.40935,1.406292 -0.669774,2.842234 -0.930894,4.2809 -0.196617,1.236594 -0.472006,2.454683 -0.796576,3.663162 -0.308448,1.577837 -0.626716,3.15078 -0.988483,4.717314 -0.299416,1.555882 -0.546891,3.121681 -0.874234,4.672219 -0.282522,1.270918 -0.647012,2.521114 -0.934098,3.791077 -0.289282,1.57126 -0.978548,3.021129 -1.442767,4.541023 -0.347031,1.511135 -0.672217,3.027325 -1.001025,4.54258 -0.316688,1.375953 -0.622469,2.754511 -0.948418,4.128432 -0.20117,1.063482 -0.589785,2.076516 -0.859866,3.121646 -0.202965,1.078215 -0.428416,2.151555 -0.666033,3.222964 -0.302022,1.24438 -0.699267,2.459974 -0.959705,3.714242 -0.205303,1.001702 -0.247933,2.022569 -0.272362,3.041379 -0.0041,0.87688 0.01016,1.74769 -0.101952,2.61841 -0.115498,1.02263 -0.429106,2.00588 -0.684601,2.99854 -0.243446,1.1038 -0.45593,2.21375 -0.665337,3.32472 -0.264983,1.12221 -0.28801,2.28199 -0.477438,3.41394 -0.188233,1.21505 -0.381024,2.42575 -0.648071,3.62664 -0.217379,1.09754 -0.572047,2.1617 -0.932741,3.21887 -0.48257,1.48316 -1.134763,2.90352 -1.755894,4.33193 -1.367718,3.36643 -2.721784,6.75436 -3.671784,10.26594 -0.522208,2.53761 0.06774,1.5549 3.460925,3.56082 0,0 -3.144195,-2.41901 -3.144195,-2.41901 v 0 c 1.030565,0.66313 2.061133,1.32627 3.091699,1.9894 -0.05527,-0.11596 -0.161526,-0.21949 -0.165828,-0.34788 -0.01085,-0.32353 0.08126,-0.64231 0.121891,-0.96346 0.816337,-3.52627 2.199875,-6.8915 3.663897,-10.1933 0.656659,-1.42103 1.36711,-2.82752 1.84109,-4.32356 0.376121,-1.0688 0.732623,-2.15068 0.941842,-3.26626 0.261803,-1.20374 0.484183,-2.41319 0.684771,-3.62837 0.195892,-1.13247 0.172286,-2.29997 0.440484,-3.42463 0.213198,-1.10066 0.469881,-2.19127 0.676193,-3.29274 0.249946,-1.00805 0.586782,-1.9992 0.712674,-3.03388 0.126087,-0.88552 0.144322,-1.76489 0.121377,-2.65955 0.01508,-0.99887 0.04761,-2.00058 0.226333,-2.98619 0.243139,-1.255923 0.640305,-2.468908 0.953034,-3.708282 0.239234,-1.066295 0.497594,-2.127581 0.669478,-3.207298 0.265721,-1.050234 0.668478,-2.06362 0.852614,-3.135045 0.316278,-1.379447 0.625581,-2.760115 0.936284,-4.140636 0.334775,-1.503739 0.646539,-3.012438 0.994577,-4.513387 0.446796,-1.535306 1.128355,-2.994885 1.460995,-4.563232 0.276008,-1.274074 0.662995,-2.519341 0.936373,-3.793781 0.330454,-1.550461 0.540023,-3.124258 0.846323,-4.679431 0.358791,-1.558907 0.703532,-3.11885 1.014801,-4.688081 0.322628,-1.221062 0.616855,-2.446604 0.795393,-3.69874 0.26633,-1.430176 0.505778,-2.862238 0.919438,-4.260411 0.491217,-2.009952 0.710941,-4.068746 1.01164,-6.113031 0.298727,-2.603809 0.668948,-5.214035 0.660868,-7.839583 0.0064,-1.696317 0.01937,-3.392693 0.0079,-5.089006 -0.03069,-1.362747 -0.11062,-2.725748 -0.396015,-4.063 C 94.25464,30.769962 93.7788,28.453921 93.357713,26.126051 92.714984,23.158116 92.046924,20.194085 91.549799,17.197124 91.177313,15.315309 90.683061,13.462872 90.244884,11.595666 Z" />
    <path
       style="fill:#4d4d4d;stroke-width:0.264583"
       id="path19"
       d="m 87.545819,137.37345 c 0.754317,-1.94285 1.747271,-3.77936 2.753471,-5.60039 1.006597,-1.75897 1.752624,-3.63382 2.162003,-5.61623 0.322702,-1.80627 0.728369,-3.59563 0.935948,-5.42006 0.144843,-1.83402 0.164309,-3.67365 0.264255,-5.51059 0.167219,-2.44324 0.167045,-4.89327 0.284107,-7.33829 0.14369,-2.14097 0.27546,-4.28256 0.338397,-6.42756 -0.05353,-2.431663 0.224507,-4.84111 0.520274,-7.249374 0.488278,-3.89968 1.283417,-7.749802 2.171729,-11.575089 0.956156,-3.520218 1.643076,-7.103004 2.433574,-10.661766 0.285578,-1.571128 0.755883,-3.098449 1.122153,-4.649973 0.23355,-1.666581 0.61696,-3.297648 1.01925,-4.930905 0.74934,-3.308511 1.33516,-6.652175 2.00975,-9.976667 0.55033,-2.772672 1.27085,-5.507636 1.8555,-8.272407 0.45828,-2.157053 0.65479,-4.357918 0.7778,-6.556182 0.0716,-1.35356 0.0737,-2.709444 0.0722,-4.06451 0.001,-1.242597 -0.009,-2.485144 -0.014,-3.72772 7.9e-4,-1.358503 -0.003,-2.716985 0.003,-4.075481 0.007,-1.02379 0.009,-2.047588 0.006,-3.071396 0.002,-1.239966 -0.0105,-2.479893 -0.0107,-3.71985 0.0201,-1.132159 -0.10114,-2.26743 -0.29629,-3.38177 -0.0656,-0.489239 -0.21819,-0.948954 -0.39869,-1.404878 0,0 -3.58897,-1.639601 -3.58897,-1.639601 v 0 c 0.21971,0.420941 0.38863,0.843952 0.44484,1.321994 0.22256,1.090832 0.34904,2.215089 0.3525,3.327736 -2.2e-4,1.236323 -0.0123,2.472617 -0.0107,3.708948 -0.003,1.025783 -0.002,2.051555 0.006,3.07732 0.006,1.360109 0.002,2.72021 0.006,4.080325 -0.002,1.240811 -0.008,2.481617 0.003,3.722412 0.004,1.354423 0.013,2.709164 -0.0313,4.063129 -0.0914,2.18607 -0.25628,4.37474 -0.71371,6.519315 -0.59623,2.769277 -1.23147,5.529993 -1.80646,8.303861 -0.659293,3.315372 -1.236651,6.65081 -2.048758,9.933045 -0.430054,1.621076 -0.89131,3.233502 -1.09088,4.902827 -0.351509,1.565341 -0.812643,3.106899 -1.049186,4.697804 -0.707938,3.582305 -1.38811,7.172666 -2.340983,10.700565 -0.921383,3.824063 -1.693736,7.679727 -2.26164,11.573465 -0.306078,2.408867 -0.662715,4.815435 -0.596384,7.251763 -0.05612,2.14768 -0.155162,4.29343 -0.301154,6.43701 -0.127738,2.44041 -0.116652,4.88687 -0.299858,7.32508 -0.126484,1.82581 -0.159922,3.6528 -0.28525,5.47834 -0.196196,1.81641 -0.560054,3.6035 -0.906915,5.39602 -0.386987,1.94887 -1.099468,3.79642 -2.085498,5.52509 -1.002118,1.84316 -1.988625,3.69484 -2.85836,5.60514 z" />
    <path
       style="fill:#4d4d4d;stroke-width:0.264583"
       id="path20"
       d="m 113.19889,16.504925 c 0.54848,2.268053 1.05856,4.545175 1.61019,6.812442 0.83195,2.730125 1.64875,5.466233 2.47625,8.198765 0.56309,1.946325 1.24701,3.853664 1.8592,5.784032 0.46844,1.271257 0.70567,2.603656 0.93434,3.933605 0.26404,1.754371 0.31419,3.530942 0.34576,5.301885 0.0143,1.069991 0.007,2.140085 0.002,3.210108 7.9e-4,0.602612 7.9e-4,0.300418 7e-5,0.906584 0,0 3.51443,1.791528 3.51443,1.791528 v 0 c 0.002,-0.605348 2.6e-4,-0.303742 0.004,-0.904825 -0.002,-1.079881 -0.009,-2.159807 -0.038,-3.239354 -0.0504,-1.784895 -0.0973,-3.573595 -0.3142,-5.34775 -0.21468,-1.347103 -0.42874,-2.702627 -0.9111,-3.985726 -0.62821,-1.942058 -1.35619,-3.851302 -1.92914,-5.811935 -0.84719,-2.717991 -1.63464,-5.455222 -2.47566,-8.173815 -0.55215,-2.241321 -1.07146,-4.49288 -1.52956,-6.755088 z" />
    <path
       style="fill:#4d4d4d;stroke-width:0.264583"
       id="path21"
       d="m 120.03227,49.370845 c 0.0923,1.563113 -0.15359,3.114294 -0.39823,4.652893 -0.34145,2.061126 -0.75096,4.111816 -1.2758,6.13419 -0.61916,2.044869 -1.37031,4.048051 -2.09428,6.057932 -0.52142,1.429239 -1.15719,2.810528 -1.68865,4.236699 -0.4375,0.98458 -0.73948,2.016627 -1.06141,3.041999 -0.33527,0.903708 -0.54554,1.84378 -0.77556,2.777627 -0.25495,1.300618 -0.51401,2.60073 -0.82557,3.889013 -0.35153,1.402315 -0.80143,2.777958 -1.23614,4.15645 -0.37234,1.248159 -0.98756,2.401475 -1.49233,3.596839 -0.52712,1.399418 -1.23227,2.719998 -1.76204,4.117464 -0.48716,1.372934 -1.04622,2.71853 -1.52473,4.09425 -0.57411,1.465 -1.09432,2.949128 -1.66138,4.416719 -0.41172,1.13971 -0.80497,2.28693 -1.17927,3.43958 -0.21602,1.12504 -0.38708,2.26194 -0.51934,3.40033 -0.10495,1.21517 -0.14488,2.4346 -0.16766,3.65368 0.0298,1.15996 -0.0614,2.31193 -0.15743,3.4667 -0.0668,1.39366 -0.31902,2.76836 -0.48254,4.15212 -0.10549,0.9635 -0.1256,1.93395 -0.13244,2.90238 -0.003,1.1199 0.005,2.23974 0.004,3.35963 -0.002,0.9367 -0.005,1.87339 -0.007,2.8101 0.004,1.02931 -0.0136,2.0589 0.0511,3.08647 0.1087,1.02574 0.18189,2.0549 0.38294,3.06751 0.0859,0.79335 0.34786,1.50907 0.67833,2.22621 0.24609,0.71914 0.50832,1.19987 1.06703,1.72489 0,0 3.65641,1.44874 3.65641,1.44874 v 0 c -0.15602,-0.0843 -0.33369,-0.13723 -0.46807,-0.25298 -0.3377,-0.29092 -0.48761,-0.88225 -0.65715,-1.27258 -0.30306,-0.71039 -0.68725,-1.35652 -0.724,-2.15523 -0.21874,-0.99996 -0.31329,-2.01351 -0.42588,-3.03078 -0.0864,-1.01453 -0.0293,-2.03155 -0.0411,-3.04902 -0.002,-0.93988 -0.006,-1.87974 -0.0108,-2.81961 -0.003,-1.11694 -0.001,-2.23392 0.005,-3.35085 0.01,-0.95756 0.0158,-1.91657 0.10773,-2.87068 0.14019,-1.39244 0.37591,-2.77421 0.465,-4.17146 0.10337,-1.15844 0.2486,-2.31315 0.19679,-3.47879 0.008,-1.20906 0.0257,-2.41973 0.13795,-3.62444 0.1242,-1.11397 0.30333,-2.22146 0.50342,-3.32365 0.34953,-1.15429 0.7203,-2.30372 1.12293,-3.44032 0.57793,-1.46749 1.09375,-2.957252 1.67875,-4.422028 0.48804,-1.36974 1.03002,-2.718773 1.51015,-4.091522 0.52907,-1.392737 1.24059,-2.703203 1.77869,-4.092691 0.50413,-1.209813 1.12076,-2.376596 1.49963,-3.635973 0.42441,-1.390346 0.90014,-2.766708 1.24358,-4.179663 0.31692,-1.283837 0.59106,-2.577835 0.85211,-3.874113 0.22697,-0.926029 0.43181,-1.860394 0.7702,-2.754096 0.31145,-1.023392 0.59515,-2.056204 1.02288,-3.039882 0.51855,-1.433859 1.16446,-2.813498 1.67897,-4.248248 0.69719,-2.032701 1.42387,-4.055602 2.06809,-6.105687 0.56227,-2.024298 0.97611,-4.084743 1.31218,-6.158396 0.26168,-1.545032 0.5429,-3.096371 0.50455,-4.669483 z" />
    <path
       style="fill:#4d4d4d;stroke-width:0.264583"
       id="path22"
       d="m 119.71935,134.66926 c -0.047,-1.904 -0.0442,-3.80897 -0.0401,-5.71344 0.004,-1.62959 0.0183,-3.25912 0.02,-4.88872 7.9e-4,-1.67375 -0.01,-3.34747 -0.018,-5.02119 -0.0961,-2.15158 -0.22582,-4.30125 -0.30463,-6.45366 -0.14773,-1.8058 -0.29895,-3.61037 -0.38157,-5.42055 -0.0661,-1.61619 -0.0623,-3.23405 -0.0753,-4.85123 0.0131,-1.77652 -0.0538,-3.555257 0.0448,-5.329846 0.18568,-1.653628 0.85158,-3.184943 1.37065,-4.749758 0.32825,-1.580062 0.94319,-3.070958 1.5429,-4.561536 0.59608,-1.61169 1.34942,-3.15745 1.98748,-4.751093 0.72101,-1.847477 1.4447,-3.694139 2.18727,-5.533189 0.87444,-1.984537 1.59909,-4.016941 2.14508,-6.115471 0.52984,-2.279515 0.9316,-4.585919 1.4332,-6.871745 0.47378,-1.709367 0.81039,-3.444674 1.11907,-5.189013 0.28485,-1.28528 0.52764,-2.579452 0.85381,-3.854985 0.2873,-1.129199 0.34535,-2.292884 0.36773,-3.452148 0.0228,-1.597403 0.0197,-3.195085 0.0257,-4.792628 0.009,-1.171559 0.003,-2.343132 0.006,-3.514707 -0.002,-1.074126 -0.001,-2.148247 0.002,-3.222371 -0.007,-1.172993 -0.007,-2.345996 -0.005,-3.519011 0.0528,-1.266719 -0.0447,-2.523405 -0.21805,-3.777279 -0.22071,-1.285345 -0.38928,-2.577737 -0.4843,-3.878334 -0.0546,-0.836707 -0.0586,-1.675431 -0.0602,-2.513552 -0.004,-0.645134 0.0233,-1.289578 -0.0322,-1.932692 0,0 -3.54338,-1.753108 -3.54338,-1.753108 v 0 c 0.0968,0.626346 0.0412,1.259439 0.0532,1.891857 0.002,0.849028 0.005,1.698728 0.0617,2.546254 0.0993,1.313252 0.27076,2.61932 0.50082,3.916207 0.18237,1.233072 0.25836,2.47029 0.22184,3.716961 0.002,1.171337 0.002,2.342664 -0.005,3.513979 0.003,1.0751 0.004,2.150192 0.003,3.225295 0.004,1.174938 8e-4,2.349894 0.0139,3.52479 0.009,1.594254 0.0153,3.18875 -0.0201,4.782761 -0.0417,1.127945 -0.0797,2.263183 -0.34987,3.365085 -0.31668,1.28983 -0.53906,2.598415 -0.84433,3.891386 -0.30859,1.742889 -0.58368,3.491015 -1.07203,5.197202 -0.4896,2.283153 -0.89352,4.584629 -1.42624,6.858217 -0.53532,2.084498 -1.26063,4.098081 -2.1252,6.068991 -0.73971,1.839905 -1.48517,3.677637 -2.21074,5.522854 -0.62502,1.598774 -1.39806,3.135374 -1.9917,4.748022 -0.58961,1.501132 -1.23948,2.990718 -1.56781,4.577718 -0.50073,1.606042 -1.17487,3.164626 -1.40591,4.843232 -0.10723,1.781408 -0.0135,3.569473 -0.0502,5.353345 -0.006,1.62217 0.01,3.24441 0.0663,4.86573 0.0833,1.81095 0.23583,3.61616 0.39007,5.42223 0.0924,2.14967 0.24991,4.29594 0.32455,6.44643 -0.008,1.66759 -0.0189,3.33517 -0.0181,5.00279 0.002,1.63638 0.0155,3.2727 0.02,4.90907 0.004,1.89086 0.007,3.78223 -0.0401,5.67261 z" />
    <path
       style="fill:#4d4d4d;stroke-width:0.264583"
       id="path23"
       d="m 137.32453,42.886373 c 0.0239,1.303091 0.0161,2.606542 0.0175,3.909798 0.001,1.199811 -0.009,2.399607 -0.008,3.59941 0.0102,1.296252 0.0468,2.585471 -0.13088,3.871899 -0.22781,1.363398 -0.57052,2.702116 -0.77934,4.068623 -0.24888,1.582877 -0.88832,3.065787 -1.30978,4.605898 -0.39971,1.381165 -0.90093,2.730439 -1.36374,4.091249 -0.32826,1.172888 -0.7737,2.306466 -1.24368,3.428527 -0.5995,1.248354 -0.9834,2.580383 -1.46932,3.873746 -0.63696,1.69668 -1.31124,3.377771 -1.98188,5.061489 -0.61454,1.401154 -0.94561,2.884292 -1.28504,4.366088 -0.28411,0.986253 -0.34619,2.006068 -0.39271,3.025048 -0.0324,1.481775 -0.0211,2.964309 -0.0281,4.446431 -0.15006,1.161621 -0.63327,2.24006 -0.89294,3.381327 -0.24551,1.131711 -0.24316,2.293488 -0.26015,3.445389 -0.0219,1.387665 0.12116,2.775075 0.4166,4.129725 0.41185,1.46701 0.93847,2.89154 1.24619,4.38663 0.14831,1.04834 0.25376,2.09816 0.41913,3.14446 0.16149,0.81373 0.39955,1.60845 0.70323,2.37978 0.33237,0.75131 0.65631,1.50492 0.96488,2.26653 0.34672,0.75702 0.62219,1.54296 0.94504,2.30994 0.0649,0.1206 0.1299,0.24119 0.19486,0.36178 0,0 3.6143,1.5982 3.6143,1.5982 v 0 c -0.073,-0.10496 -0.14605,-0.20993 -0.21908,-0.31489 -0.34846,-0.753 -0.58587,-1.54947 -0.95057,-2.29526 -0.29591,-0.76925 -0.62118,-1.52409 -0.96039,-2.2745 -0.33326,-0.73771 -0.54473,-1.51446 -0.75385,-2.29501 -0.15252,-1.05724 -0.31884,-2.10843 -0.43334,-3.17116 -0.28571,-1.50518 -0.80601,-2.93378 -1.24756,-4.39698 -0.29708,-1.32673 -0.47596,-2.68152 -0.448,-4.044192 0.0145,-1.125683 0.0236,-2.259311 0.23347,-3.36936 0.25005,-1.174983 0.74694,-2.276369 0.91454,-3.466184 -0.008,-1.474375 -0.011,-2.949096 0.0367,-4.422931 0.0403,-0.996093 0.10336,-1.993011 0.36418,-2.960487 0.32699,-1.468326 0.58016,-2.956068 1.1946,-4.345228 0.67541,-1.682216 1.39589,-3.345066 2.02254,-5.046617 0.49302,-1.284783 0.87443,-2.612142 1.47486,-3.85345 0.48433,-1.127236 0.93315,-2.272628 1.25094,-3.45939 0.45353,-1.373024 0.97455,-2.724542 1.36875,-4.116245 0.40704,-1.5601 1.05158,-3.052241 1.33807,-4.640696 0.2009,-1.369259 0.54746,-2.707447 0.77353,-4.072464 0.20449,-1.298123 0.19526,-2.599561 0.17984,-3.91142 5.3e-4,-1.202627 -0.01,-2.405243 -0.008,-3.607877 0.002,-1.297294 -0.006,-2.594787 0.0175,-3.891912 z" />
  </g>
</svg>
