<?xml version="1.0" encoding="UTF-8" standalone="no"?>
<!-- Created with Inkscape (http://www.inkscape.org/) -->

<svg
   width="49.000999mm"
   height="13mm"
   viewBox="0 0 49.000999 13"
   version="1.1"
   id="svg1"
   inkscape:version="1.4.2 (f4327f4, 2025-05-13)"
   sodipodi:docname="jaggedPlastic.svg"
   xmlns:inkscape="http://www.inkscape.org/namespaces/inkscape"
   xmlns:sodipodi="http://sodipodi.sourceforge.net/DTD/sodipodi-0.dtd"
   xmlns="http://www.w3.org/2000/svg"
   xmlns:svg="http://www.w3.org/2000/svg">
  <sodipodi:namedview
     id="namedview1"
     pagecolor="#ffffff"
     bordercolor="#000000"
     borderopacity="0.25"
     inkscape:showpageshadow="2"
     inkscape:pageopacity="0.0"
     inkscape:pagecheckerboard="0"
     inkscape:deskcolor="#d1d1d1"
     inkscape:document-units="mm"
     inkscape:zoom="0.68862935"
     inkscape:cx="396.43968"
     inkscape:cy="445.08704"
     inkscape:window-width="1920"
     inkscape:window-height="991"
     inkscape:window-x="-9"
     inkscape:window-y="-9"
     inkscape:window-maximized="1"
     inkscape:current-layer="layer1" />
  <defs
     id="defs1" />
  <g
     inkscape:label="Layer 1"
     inkscape:groupmode="layer"
     id="layer1">
    <path
       style="fill:#800080;stroke-width:0.264583"
       id="path2"
       d="M 2.4647724,12.438359 C 2.1106131,11.262297 1.8767011,10.057233 1.9157879,8.8281374 1.9893686,7.5684133 2.3909335,6.3883182 2.9503319,5.2705558 3.3481216,4.5055615 3.7061957,3.7386789 3.9056222,2.8976336 4.0158349,1.9637835 4.1655357,1.8257191 5.0613592,1.6427266 c 0.9956914,-0.1674105 1.9798927,-0.1331107 2.965427,0.060991 1.3020368,0.2855253 2.6267598,0.492279 3.9116448,0.8484408 0.985394,0.3654962 2.047193,0.3432437 3.060314,0.5589601 0.999028,0.1444826 1.965623,0.4271055 2.93573,0.6966495 1.176224,0.2774886 2.380087,0.4144888 3.567991,0.6369079 1.419042,0.2612268 2.854324,0.4194672 4.293409,0.5131009 0.930695,0.054468 1.863164,0.052173 2.795008,0.047989 1.350174,-0.00933 2.700364,-0.013642 4.050567,-0.011451 1.163169,0.0074 2.326309,0.00375 3.489478,-4.93e-5 1.224333,0.00148 2.448666,0.00116 3.672999,0.00286 0.939191,0.00225 1.87838,0.00471 2.817571,0.00598 0.886667,-0.097312 1.736146,-0.3666749 2.610996,-0.5230773 0.736754,-0.1673637 1.513147,-0.093874 2.247294,-0.2710801 0.06927,-0.016722 1.18128,-0.3950481 1.242825,-0.4158922 0.544298,-0.1487117 1.08046,-0.4062709 1.655463,-0.4190984 0.356262,-0.00795 0.349271,0.035875 0.620226,0.2025581 -1.064493,-0.5948426 -2.128983,-1.1896851 -3.193476,-1.7845277 0.423098,0.4588397 0.425233,1.1690431 0.369903,1.7592084 -0.148666,0.6727605 -0.256704,1.3497285 -0.316203,2.0360126 -0.07436,0.9232903 5.29e-4,1.8524786 -0.09168,2.7738422 -0.14482,0.7439533 -0.08057,1.4426308 -0.65151,1.9996419 -0.585177,0.62873 -1.329561,0.924559 -2.154418,1.077553 -0.834131,0.111024 -1.678403,0.09445 -2.517984,0.09619 -1.299705,-0.02424 -2.604754,0.06618 -3.899577,-0.06458 -1.12272,-0.133122 -2.216378,-0.40152 -3.339592,-0.536712 C 33.86269,10.716702 32.520884,10.526212 31.203471,10.189204 29.923605,9.8938499 28.638068,9.608563 27.340621,9.3972231 26.357357,9.2418333 25.360732,9.224506 24.367614,9.21055 23.378763,9.20561 22.389883,9.21246 21.401013,9.21296 c -0.869123,7.673e-4 -1.738249,-0.00204 -2.607369,9.525e-4 -1.080538,0.00797 -2.161096,0.00257 -3.241646,0.00362 -0.977048,-0.00204 -1.95409,-0.00214 -2.931138,-0.00206 -0.868256,-7.409e-4 -1.73651,-0.00212 -2.604766,-0.00283 C 9.2449088,9.1826796 8.4638173,9.280849 7.7015408,9.1471537 6.9410764,8.9841077 6.1686146,8.9049917 5.3934082,8.8600779 4.6231204,8.8249002 3.8518086,8.8256299 3.0808988,8.8248357 c -0.783136,8.202e-4 -1.5662775,3.175e-4 -2.34940651,0.00388 -0.45579569,0.039835 -0.88948152,0.126226 -1.3240972,0.2637737 0,0 3.25788221,2.2338196 3.25788221,2.2338196 v 0 c 0.4149238,-0.09947 0.8311996,-0.174599 1.2602583,-0.177385 0.7843826,0.0022 1.5687648,-0.0012 2.3531496,4.5e-4 0.7658761,0.003 1.5324545,0.0056 2.2969926,0.05631 0.7709887,0.06152 1.5332372,0.177188 2.2960762,0.302987 0.778994,0.05298 1.560534,0.01648 2.340926,0.02643 0.865667,-7.15e-4 1.731334,-0.0021 2.597001,-0.0028 0.975176,9.4e-5 1.950347,6e-6 2.925523,-0.002 1.083764,0.0011 2.167536,-0.0042 3.251292,0.0032 0.86753,0.0022 1.735057,-0.0021 2.602582,-0.0052 0.988617,-0.0036 1.977271,-0.0068 2.965844,0.0063 0.978451,0.01929 1.958608,0.0576 2.925125,0.224422 1.288767,0.222892 2.567578,0.504344 3.839155,0.809288 1.330417,0.305321 2.679263,0.501626 4.02726,0.712073 1.121047,0.162036 2.222634,0.440553 3.35494,0.521508 1.307984,0.07089 2.619759,0.01926 3.929189,0.04797 0.860468,-5.56e-4 1.729124,0.01198 2.576828,-0.158518 0.874093,-0.220884 1.653974,-0.604977 2.278925,-1.273781 0.109823,-0.119611 0.237024,-0.225335 0.32947,-0.358834 0.36904,-0.532922 0.289443,-1.267965 0.448418,-1.867324 0.108484,-0.9218361 0.02672,-1.8540425 0.104526,-2.7795145 0.05159,-0.6813966 0.146654,-1.3555488 0.311269,-2.0197712 0.104154,-0.6983849 0.05361,-1.4403785 -0.201996,-2.1027848 -3.518728,-2.1001393 -3.037096,-2.70639326 -5.998874,-1.6982 -0.351226,0.1128983 -0.839271,0.2826522 -1.206997,0.3522329 -0.746191,0.1411929 -1.521463,0.1114562 -2.264042,0.2839048 -0.857549,0.1667747 -1.704634,0.4155714 -2.5824,0.4540776 -0.933717,0.00127 -1.867429,0.0037 -2.801144,0.00595 -1.221724,0.00167 -2.44345,0.0013 -3.665177,0.00286 -1.162315,-0.00362 -2.3246,-0.00711 -3.48691,0.0023 -1.356129,0.0045 -2.712264,0.00378 -4.068391,-0.00217 -0.924579,-0.00507 -1.849833,-0.00741 -2.773047,-0.064258 C 21.206051,2.5278124 19.785536,2.3652391 18.382873,2.0900209 17.192331,1.8735619 15.986319,1.72393 14.816196,1.4101911 13.838206,1.1373137 12.854335,0.89088382 11.849465,0.73697083 10.831165,0.58950428 9.8052669,0.48637332 8.8204438,0.16544722 7.5182679,-0.13912474 6.2059586,-0.40178381 4.8931552,-0.6563856 3.8667425,-0.81198401 2.830068,-0.82179979 1.8100276,-0.59808802 0.87052297,-0.31694173 0.51213956,0.02744028 0.42380598,1.0253459 0.25028621,1.8432611 -0.09742597,2.5801374 -0.47292183,3.3238784 -1.042851,4.4961825 -1.4614555,5.7226908 -1.5590443,7.0343505 c -0.091854,1.2603205 0.12708,2.4858755 0.4473051,3.7053385 z" />
    <path
       style="fill:#800080;stroke-width:1.45216"
       d="M 137.9552,41.499217 C 131.5657,40.443119 121.43688,38.552027 115.44672,37.296785 107.29165,35.587888 92.589514,34.854243 56.924655,34.376506 30.72768,34.025593 8.9262395,33.370933 8.4770118,32.921705 7.7218902,32.166583 8.4370244,29.818389 14.287236,13.843418 15.785175,9.753045 17.494978,7.7890001 20.183976,7.0698514 22.573299,6.4308476 35.626573,8.4110112 55.550334,12.434879 l 31.579266,6.377852 39.9344,-0.05389 c 21.96392,-0.02964 43.09147,-0.572864 46.95011,-1.207166 l 7.01569,-1.153275 -0.94851,8.86368 c -1.26386,11.810476 -1.89246,13.683909 -5.18205,15.444448 -4.54365,2.431687 -24.44451,2.858689 -36.94404,0.792689 z"
       id="path3"
       transform="scale(0.26458333)" />
    <path
       style="fill:#800080;stroke-width:1.45216"
       d="M 152.65536,50.628217 C 147.16274,49.923031 136.43972,48.045277 128.82643,46.455431 117.50171,44.090545 108.88542,43.536135 81.452677,43.40719 63.010409,43.320505 38.934998,42.830401 27.951762,42.31807 12.446877,41.59482 7.9827632,41.792388 7.9845624,43.20176 7.9875306,45.526954 7.6357884,45.495036 1.61457,42.623716 -3.732321,40.073961 -5.0310749,37.364873 -5.0627312,28.695438 -5.0796265,24.068502 -0.20630329,8.6035006 3.5123294,1.4833463 6.0421475,-3.3605564 15.037412,-2.6909148 50.8256,5.0055263 c 23.189474,4.9870201 29.697249,5.4211377 72.14513,4.8126313 34.30992,-0.4918461 43.97594,-1.0721153 49.78906,-2.988927 7.11597,-2.3464148 7.29732,-2.329502 13.40577,1.2502916 3.40572,1.9958848 6.79199,4.7519558 7.52501,6.1245998 2.21274,4.143459 -0.92124,29.590403 -4.03111,32.731525 -5.01624,5.066631 -16.99294,6.261762 -37.0041,3.69257 z m 13.17295,-7.043588 c 11.41053,-0.03 14.43842,-3.468848 15.60768,-17.726101 l 0.91621,-11.171553 -5.49866,0.817525 c -3.02427,0.449638 -7.78581,1.382502 -10.58122,2.073027 -3.93188,0.971261 -2.92198,1.114059 4.46083,0.630743 l 9.54338,-0.62476 -1.28336,9.723286 c -0.70587,5.347806 -2.20785,10.664876 -3.33776,11.81571 -3.8232,3.893999 -25.08453,3.672803 -49.18344,-0.511687 -11.90659,-2.067439 -23.99582,-3.661068 -26.864958,-3.541399 -4.828183,0.20138 -4.892228,0.25977 -0.860132,0.784181 2.39606,0.311631 11.17775,1.913318 19.51486,3.559307 18.07064,3.567669 33.11827,5.487884 37.11938,4.736769 1.59738,-0.299872 6.29861,-0.554142 10.44719,-0.565048 z M 64.903676,33.767039 c -9.029506,-0.255191 -23.405891,-0.254292 -31.94752,0.002 -8.54163,0.256288 -1.153852,0.465081 16.417284,0.463984 17.571136,-0.0011 24.559742,-0.210789 15.530236,-0.465981 z M 12.7064,32.374843 C 10.909352,32.028716 9.43904,31.195648 9.43904,30.52358 c 0,-2.626711 6.426894,-18.322253 8.504799,-20.7701279 2.629101,-3.0972126 4.297219,-2.9269329 40.954802,4.1806229 14.024429,2.719203 29.381021,4.857083 34.12576,4.750845 L 101.6512,18.491761 90.76,17.289233 C 84.76984,16.627842 68.829059,13.77414 55.336041,10.947673 41.843023,8.1212045 27.422282,5.80864 23.289945,5.80864 H 15.776609 L 11.13744,17.78896 c -2.5515425,6.589176 -4.6309668,12.79716 -4.6209437,13.79552 0.011216,1.117187 1.8330578,1.739155 4.7377437,1.617442 3.412951,-0.14301 3.814973,-0.371982 1.45216,-0.827079 z"
       id="path4"
       transform="scale(0.26458333)" />
    <path
       style="fill:#800080;stroke-width:1.45216"
       d="M 152.4768,50.68582 C 147.68467,50.005041 137.22912,48.179619 129.24224,46.629327 117.15889,44.28389 105.77969,43.670231 61.470475,42.974523 23.939495,42.385243 8.065985,42.601407 7.6975197,43.706801 6.8608505,46.216807 -3.289366,40.657927 -4.2235086,37.178116 -5.9253558,30.838498 -4.8931831,22.216102 -1.4244166,13.79552 0.54964779,9.003392 2.1678173,4.3457342 2.1715156,3.4451693 2.1841645,0.36514055 6.396022,-1.6941931 12.637966,-1.6722667 c 3.432062,0.012056 19.63629,2.7335683 36.009394,6.047805 l 29.76928,6.0258847 43.5648,-0.627402 c 35.4087,-0.5099417 44.89997,-1.0759752 50.69643,-3.023399 7.05098,-2.3688989 7.2026,-2.3544126 13.40578,1.2808926 3.45078,2.0222894 6.8739,4.7999634 7.60692,6.1726074 2.21274,4.143459 -0.92124,29.590403 -4.03111,32.731525 -4.96618,5.016067 -18.59553,6.390698 -37.18266,3.750173 z m 20.67491,-7.94113 c 4.86577,-1.015631 7.21451,-6.007884 8.28825,-17.61665 l 0.96656,-10.449878 -5.52582,0.800448 c -3.0392,0.440247 -7.48624,1.382536 -9.8823,2.093975 -3.28047,0.974041 -2.1777,1.127746 4.46484,0.622316 l 8.82131,-0.671211 -1.28737,9.753194 c -0.70806,5.364259 -2.21186,10.694788 -3.34177,11.845622 -3.8232,3.893999 -25.08453,3.672803 -49.18344,-0.511687 -25.18665,-4.373365 -35.538614,-4.825107 -15.38173,-0.671234 27.68523,5.705293 49.6145,7.403166 62.06147,4.805105 z M 59.111988,33.772319 c -5.825431,-0.276342 -14.974039,-0.274489 -20.33024,0.0041 -5.356202,0.278608 -0.58994,0.504707 10.591692,0.502441 11.181632,-0.0023 15.563978,-0.230218 9.738548,-0.506561 z M 11.98032,32.398669 C 10.582616,32.033411 9.43904,31.15352 9.43904,30.443355 c 0,-2.783461 6.309446,-18.244164 8.443461,-20.6899029 2.70117,-3.0957421 4.359884,-2.9266755 41.01614,4.1806229 14.024429,2.719203 29.054285,4.858123 33.39968,4.753155 L 100.19904,18.49638 90.76,17.38924 C 85.568528,16.780313 69.945964,13.925571 56.043192,11.04537 42.140419,8.1651685 27.395855,5.80864 23.277496,5.80864 H 15.78957 l -3.804629,9.80208 c -2.0925453,5.391144 -4.2457283,11.599128 -4.78485,13.79552 -0.9024464,3.676579 -0.6508712,3.980074 3.170643,3.824988 2.45297,-0.09955 3.111365,-0.440103 1.609586,-0.832559 z"
       id="path5"
       transform="scale(0.26458333)" />
    <path
       style="fill:#800080;stroke-width:1.45216"
       d=""
       id="path6"
       transform="scale(0.26458333)" />
    <path
       style="fill:#800080;stroke-width:1.45216"
       d="M 156.83328,51.268792 C 154.43722,50.953197 143.32819,49.150869 132.14656,47.263617 114.39856,44.268084 105.23691,43.725579 60.015956,42.992418 23.661793,42.403014 8.0604058,42.618144 7.69516,43.713879 6.8608708,46.216748 -3.291632,40.649486 -4.2235086,37.178116 -5.9173284,30.868401 -4.9637585,23.072618 -1.2403225,12.789478 0.87290819,6.9532972 3.4012224,1.306944 4.3781538,0.24202672 7.2788809,-2.9199506 17.202613,-1.9902681 48.64736,4.3892882 l 29.76928,6.0396358 43.5648,-0.6788789 c 34.93702,-0.5444299 44.97719,-1.1459214 50.69643,-3.037149 7.03045,-2.3248098 7.22066,-2.3061003 13.40578,1.3186185 3.45078,2.0222894 6.8739,4.7999634 7.60692,6.1726074 2.21274,4.143459 -0.92124,29.590403 -4.03111,32.731525 -4.45656,4.501323 -17.9881,6.287523 -32.82618,4.333145 z m 20.39624,-11.268384 c 2.14894,-2.148934 3.5644,-5.240125 3.5644,-7.7842 0,-2.320895 0.40854,-7.200428 0.90786,-10.843409 l 0.90788,-6.623599 -6.35348,0.824397 c -9.98978,1.29623 -13.49209,3.478034 -4.0503,2.523186 l 8.1118,-0.820345 -1.30395,9.876821 c -0.71716,5.432252 -2.21954,10.809539 -3.3386,11.949527 -3.89301,3.965794 -24.08261,3.724875 -49.91424,-0.595617 -12.96858,-2.169071 -23.86807,-3.654921 -24.2211,-3.301889 -0.35303,0.353032 7.36928,2.120438 17.16069,3.927571 9.79141,1.807134 18.45603,3.492014 19.25472,3.744179 0.79869,0.252164 9.16015,0.510072 18.58104,0.573127 16.32475,0.109261 17.29623,-0.05269 20.69328,-3.449749 z M 56.315016,33.790702 c -3.370325,-0.304553 -9.251573,-0.308173 -13.06944,-0.008 -3.817866,0.300128 -1.060328,0.549308 6.127864,0.553734 7.188192,0.0044 10.311902,-0.241134 6.941576,-0.545687 z M 11.012922,32.053478 c -1.7343544,-1.097806 -1.5372091,-2.743609 1.258472,-10.505923 1.823245,-5.062306 4.340073,-10.369654 5.592952,-11.7941029 2.705425,-3.0759071 3.903711,-2.954458 41.384057,4.1943649 14.216797,2.711644 28.919917,4.8474 32.6736,4.746122 L 98.74688,18.509798 90.03392,17.364155 C 85.241792,16.734052 69.77288,13.876292 55.65856,11.013576 41.544239,8.1508614 26.764985,5.80864 22.815772,5.80864 h -7.180388 l -4.550332,12.491029 c -2.5026833,6.870066 -4.550332,13.07805 -4.550332,13.79552 0,0.71747 1.470312,1.294484 3.26736,1.282254 2.491375,-0.01696 2.778945,-0.331391 1.210842,-1.323965 z"
       id="path7"
       transform="scale(0.26458333)" />
    <path
       style="fill:#800080;stroke-width:1.45216"
       d="M 155.38112,51.262891 C 152.98506,50.94405 144.16318,49.345961 135.77696,47.71158 123.13365,45.247543 111.13288,44.512677 65.516605,43.409204 27.479662,42.489078 9.9390565,42.547231 8.6733683,43.597658 6.1038026,45.730209 -3.1664359,41.11586 -4.2235086,37.178116 -5.9173284,30.868401 -4.9637585,23.072618 -1.2403225,12.789478 0.87290819,6.9532972 3.3863394,1.321827 4.3450804,0.27509995 7.2304688,-2.8750875 15.924111,-2.069739 48.59236,4.3740127 L 79.758798,10.521535 121.92644,9.7516936 c 31.95435,-0.5833809 44.09097,-1.3184103 50.10852,-3.0347208 7.80675,-2.2266263 8.04543,-2.2036011 14.13185,1.363276 3.40504,1.9954852 6.79074,4.7512292 7.52376,6.1238732 2.21274,4.143459 -0.92124,29.590403 -4.03111,32.731525 -4.4853,4.530351 -18.99091,6.361516 -34.27834,4.327244 z m 20.61822,-9.878134 c 3.2609,-2.284022 4.0273,-4.841468 5.52519,-18.437357 l 0.91158,-8.274041 -5.54061,0.866939 c -9.07856,1.420517 -12.29235,3.454806 -3.97269,2.51467 l 7.37655,-0.833564 -1.18356,9.831153 c -0.65096,5.407134 -2.15808,10.805678 -3.34917,11.996765 -3.68443,3.68444 -24.97052,3.830597 -45.30605,0.311084 -23.09323,-3.99679 -27.35602,-3.619998 -7.02698,0.621124 19.69886,4.109652 47.63699,4.855451 52.56574,1.403227 z m -69.65887,-5.958104 c -0.48254,-0.48254 -1.73503,-0.534131 -2.78331,-0.114644 -1.15844,0.463568 -0.81434,0.807667 0.87735,0.877347 1.53082,0.06306 2.3885,-0.280162 1.90596,-0.762703 z m -54.42575,-1.59965 c -1.797048,-0.346127 -4.737672,-0.346127 -6.53472,0 -1.797048,0.346127 -0.326736,0.629321 3.26736,0.629321 3.594096,0 5.064408,-0.283194 3.26736,-0.629321 z M 11.043022,32.072082 C 9.3505135,31.000387 9.5757624,29.205074 12.410013,21.176716 17.43922,6.9308741 17.928135,6.6674125 34.314391,9.3731101 41.798181,10.608833 56.416416,13.233793 66.79936,15.206354 77.182304,17.178915 87.964592,18.714099 90.76,18.617875 95.61315,18.450817 95.645922,18.415339 91.48608,17.83189 89.090016,17.495824 74.06016,14.653179 58.0864,11.514901 42.11264,8.3766225 26.026441,5.8088728 22.339292,5.8087902 L 15.635384,5.80864 11.085052,18.299669 c -2.5026833,6.870066 -4.550332,13.07805 -4.550332,13.79552 0,0.71747 1.470312,1.294484 3.26736,1.282254 2.455745,-0.01671 2.763996,-0.340965 1.240942,-1.305361 z"
       id="path8"
       transform="scale(0.26458333)" />
    <path
       style="fill:#800080;stroke-width:1.45216"
       d="M 139.40736,48.511936 C 122.95528,45.450837 113.46204,44.809802 65.535004,43.523671 26.127357,42.46616 10.002594,42.494499 8.642038,43.623661 6.6454516,45.28068 -1.7810555,41.953029 -3.9712034,38.642657 -7.2733167,33.651567 -1.3979186,6.5451484 4.3450804,0.27509995 7.2218575,-2.8656859 15.880829,-2.0642295 48.64736,4.3756272 L 79.8688,10.511816 121.98144,9.6963618 c 31.21119,-0.604362 44.16825,-1.3886839 50.05352,-3.0298609 7.73893,-2.1580969 8.0927,-2.1254335 13.91128,1.2844894 9.35483,5.4822927 9.42163,5.6702557 7.7807,21.8906747 -1.64856,16.295833 -3.19305,18.928526 -12.35076,21.052779 -9.06335,2.102363 -21.72892,1.383357 -41.96882,-2.382508 z m 34.53052,-6.277133 c 4.27429,-1.625082 6.35298,-6.744593 7.53439,-18.556117 l 0.89968,-8.994916 -5.50853,0.842187 c -8.37763,1.280833 -10.98129,3.431954 -2.8873,2.385452 6.77739,-0.876274 6.95685,-0.802389 6.25096,2.573528 -0.39972,1.911637 -1.12119,6.526261 -1.60328,10.254721 -0.4821,3.72846 -1.87249,7.605575 -3.08975,8.615812 -4.10915,3.410292 -25.13118,3.363136 -45.62462,-0.102342 -10.46855,-1.770253 -19.33551,-2.916861 -19.70435,-2.548019 -0.36884,0.368841 5.07057,1.721386 12.08759,3.005653 7.01701,1.284268 14.06515,2.601006 15.66253,2.926083 5.84158,1.188802 32.58437,0.89 35.98268,-0.402042 z M 50.46256,33.890102 c -0.99836,-0.402846 -2.63204,-0.402846 -3.6304,0 -0.99836,0.402848 -0.18152,0.732449 1.8152,0.732449 1.99672,0 2.81356,-0.329601 1.8152,-0.732449 z M 10.11822,31.871633 C 8.7904807,29.723306 15.259656,12.056576 18.422036,9.1946605 20.853167,6.994517 23.1466,7.2057852 50.454726,12.145471 82.182473,17.88461 103.17345,20.619425 80.59488,16.072289 44.053265,8.7131121 27.410088,5.80864 21.782223,5.80864 H 15.635384 L 11.085052,18.299669 C 5.8525753,32.663239 5.7410661,33.39968 8.7986622,33.39968 c 1.2451678,0 1.8389688,-0.687621 1.3195578,-1.528047 z"
       id="path9"
       transform="scale(0.26458333)" />
    <path
       style="fill:#800080;stroke-width:1.45216"
       d="M 138.68128,48.519545 C 121.82409,45.475933 111.71692,44.778051 66.550007,43.539019 31.505526,42.577667 12.749583,42.582189 10.197192,43.552606 7.2912562,44.657442 5.2564597,44.435916 1.733586,42.631185 -4.3668837,39.505977 -5.0339859,38.286856 -5.0603234,30.215398 -5.0827013,23.357414 1.0558157,3.8635869 4.3781538,0.24202672 7.2627227,-2.9023374 17.090049,-1.9856097 49.37344,4.4393464 L 79.8688,10.508453 121.25536,9.6540634 c 28.81893,-0.5949417 44.03238,-1.5009484 50.09952,-2.9835761 8.46484,-2.0685542 8.88167,-2.0308194 14.63737,1.3251066 9.24259,5.3889941 9.32677,5.6240721 7.79846,21.7779611 -1.54131,16.291163 -3.11176,18.962987 -12.41453,21.120889 -9.10531,2.112094 -21.73422,1.409612 -42.6949,-2.374899 z m 35.2566,-6.284742 c 4.27429,-1.625082 6.35298,-6.744593 7.53439,-18.556117 l 0.89968,-8.994916 -5.50853,0.850536 c -7.3011,1.127313 -7.92021,1.891614 -1.53226,1.891614 h 5.1864 l -0.73633,6.17168 c -1.33442,11.184658 -2.72659,14.847368 -6.33932,16.678432 -5.28441,2.678332 -26.02744,2.195858 -44.83914,-1.042939 -16.89798,-2.909314 -24.10594,-3.023416 -10.00385,-0.158361 21.54795,4.3778 48.14184,5.896414 55.33896,3.160071 z M 10.143869,31.913136 c -1.3794662,-2.232025 4.81777,-19.586859 8.033458,-22.497017 2.680066,-2.4254262 4.307834,-2.2718362 36.501321,3.444126 18.532887,3.290519 33.972865,5.706055 34.311063,5.367858 0.338197,-0.338197 -1.90239,-1.059848 -4.979083,-1.603669 C 80.933935,16.080613 68.61456,13.717401 56.63424,11.372854 44.65392,9.0283052 30.560641,6.7324845 25.315841,6.2710296 L 15.779843,5.4320204 11.157281,18.354703 C 5.8169407,33.283987 5.7988032,33.39968 8.7986622,33.39968 c 1.2451678,0 1.8505108,-0.668945 1.3452068,-1.486544 z"
       id="path10"
       transform="scale(0.26458333)" />
    <path
       style="fill:#800080;stroke-width:1.45216"
       d="M 137.9552,48.520234 C 120.89199,45.579849 109.5705,44.795741 67.503144,43.640831 38.335534,42.840069 15.006948,42.800306 11.701889,43.545717 5.9561205,44.841599 -1.3905116,42.543329 -3.9712034,38.642657 -7.2842628,33.635023 -1.3910662,6.5308439 4.3781538,0.24202672 7.2280553,-2.8645471 17.100124,-1.9897032 45.74304,3.9077038 L 72.608,9.43904 116.1728,9.2072351 c 32.51563,-0.1730133 46.14294,-0.7846064 53.72992,-2.4113977 10.03501,-2.1516925 10.24378,-2.1342006 16.3101,1.3664869 3.37972,1.9503437 6.78093,4.7344017 7.55823,6.1867967 2.30132,4.300043 -0.82522,29.326451 -4.06897,32.570207 -6.21601,6.216014 -22.11143,6.707775 -51.74688,1.600906 z m 35.25589,-6.512931 c 5.05523,-1.762263 7.68519,-7.340063 7.41307,-15.722079 -0.14209,-4.376361 -0.38511,-3.928891 -1.49052,2.744472 -1.90069,11.474436 -3.09512,12.215907 -21.2615,13.198549 l -15.56046,0.841685 13.21579,0.247435 c 7.26867,0.136089 15.2263,-0.453438 17.68362,-1.310062 z m -41.06453,-2.146487 c -5.59082,-1.059398 -11.7988,-1.882549 -13.79552,-1.829228 -5.31249,0.141871 12.88021,3.765312 18.87808,3.759949 3.26839,-0.0029 1.45422,-0.692075 -5.08256,-1.930721 z M 10.143869,31.913136 c -1.3672927,-2.212327 4.804535,-19.574882 7.979657,-22.4483268 3.120343,-2.8238724 2.294702,-2.9041848 38.28291,3.7238808 12.653717,2.330477 24.089477,4.17152 25.4128,4.091207 C 86.060806,17.022474 36.696143,7.4131366 25.855301,6.3859429 L 15.406603,5.3959057 14.372068,9.5957129 C 13.803074,11.905606 12.236683,16.409408 10.8912,19.60416 6.7648801,29.401807 6.150455,33.39968 8.7709956,33.39968 c 1.2603844,0 1.8781774,-0.668945 1.3728734,-1.486544 z M 182.00405,16.323877 c -0.26623,-0.606124 -2.7712,-0.692147 -5.56661,-0.191163 l -5.08256,0.910878 4.71952,0.191164 c 2.63506,0.106733 4.77016,0.992881 4.83417,2.006364 0.0917,1.45216 0.26113,1.45216 0.84709,0 0.40284,-0.99836 0.51463,-2.31112 0.24839,-2.917243 z"
       id="path11"
       transform="scale(0.26458333)" />
    <path
       style="fill:#800080;stroke-width:1.45216"
       d="M 137.22912,48.489512 C 119.82865,45.595467 107.97865,44.773799 68.9776,43.757015 43.02024,43.08029 18.188304,43.003421 13.79552,43.586196 5.7888108,44.648419 -1.3033715,42.67504 -3.9712034,38.642657 -7.2896067,33.626945 -1.3782029,6.2215507 4.3118967,0.24202672 7.3011962,-2.8993221 17.078619,-1.9958551 49.37344,4.4058657 L 79.8688,10.450883 120.52928,9.524038 c 24.75189,-0.5642132 44.35354,-1.6921919 50.09952,-2.8829799 8.55452,-1.7728276 9.91532,-1.7138438 14.5216,0.62944 9.82604,4.9986509 10.37923,6.4298129 8.70949,22.5323049 -0.986,9.508698 -2.27925,15.177149 -3.86153,16.925545 -5.84549,6.459201 -21.40081,6.978357 -52.76924,1.761164 z m 39.33094,-8.755495 c 2.09561,-2.097577 3.26993,-5.395013 3.62013,-10.16512 l 0.51834,-7.060417 -1.4845,7.2608 c -2.17885,10.656919 -3.52843,11.477565 -20.61664,12.536467 l -14.83355,0.919185 14.84722,-0.193105 c 13.08389,-0.170173 15.21559,-0.561835 17.949,-3.29781 z m -41.06393,0.949221 c -5.39196,-1.626412 -19.50948,-3.451422 -18.50297,-2.391929 0.89139,0.93831 14.80806,3.453991 19.50988,3.526752 2.0199,0.03126 1.71327,-0.314316 -1.00691,-1.134823 z M 10.143869,31.913136 c -1.3672927,-2.212327 4.804535,-19.574882 7.979657,-22.4483268 3.03499,-2.7466291 3.8322,-2.68714 30.234512,2.2561478 8.227097,1.540354 16.068761,2.725656 17.42592,2.634006 C 69.687953,14.091324 35.878542,7.4293999 25.348873,6.3874944 L 15.845905,5.4471804 14.229651,10.34743 c -0.88894,2.695138 -2.929409,8.48164 -4.5343759,12.858893 -2.886592,7.872653 -2.9059057,10.193357 -0.084831,10.193357 0.7986879,0 1.0387289,-0.668945 0.5334249,-1.486544 z M 182.24608,18.152 c 0,-1.590286 -1.46989,-2.115511 -5.4456,-1.945841 -5.36152,0.228811 -5.37273,0.241442 -0.72608,0.818088 2.59574,0.322127 4.71952,1.197756 4.71952,1.945839 0,0.748085 0.32674,1.360154 0.72608,1.360154 0.39934,0 0.72608,-0.980208 0.72608,-2.17824 z M 81.653748,16.548573 c -0.482542,-0.48254 -1.73503,-0.534131 -2.783308,-0.114644 -1.158436,0.463567 -0.814336,0.807667 0.877348,0.877347 1.530817,0.06306 2.388499,-0.280162 1.90596,-0.762703 z m -6.47683,-1.527338 c -0.98316,-0.39778 -2.943576,-0.421994 -4.35648,-0.05381 -1.412905,0.368187 -0.608502,0.693643 1.787562,0.723237 2.396064,0.02959 3.552077,-0.271648 2.568918,-0.669428 z"
       id="path12"
       transform="scale(0.26458333)" />
    <path
       style="fill:#800080;stroke-width:1.45216"
       d="M 142.31168,49.2569 C 118.56778,45.169794 88.958956,43.482365 44.065878,43.657801 -4.4023687,43.847206 -5.0163793,43.679238 -5.0603234,30.218865 -5.0831525,23.226146 1.0218554,3.6994144 4.3118967,0.24202672 7.2826289,-2.87981 17.003962,-2.0058834 49.039984,4.2629837 c 25.465663,4.9831675 32.927057,5.8937453 47.92128,5.8482453 26.597776,-0.08071 72.274266,-2.5417705 77.825206,-4.1932402 3.92334,-1.1672382 5.92235,-0.9228847 10.16512,1.2425566 10.1914,5.2015256 10.76412,6.6547666 8.96855,22.7574636 -1.03031,9.239854 -2.41333,15.143521 -3.94378,16.83465 -5.52557,6.105692 -21.78074,6.959718 -47.66468,2.504241 z m 22.14544,-6.749952 c -2.99508,-0.313296 -7.89612,-0.313296 -10.8912,0 -2.99508,0.313295 -0.54456,0.569627 5.4456,0.569627 5.99016,0 8.44068,-0.256332 5.4456,-0.569627 z M 135.77696,40.66048 c -1.99672,-0.639461 -5.59082,-1.141771 -7.98688,-1.116245 -4.22181,0.04498 -4.19936,0.07949 0.72608,1.116245 7.24451,1.524902 12.0223,1.524902 7.2608,0 z m 41.09235,-1.127058 c 1.28379,-1.41857 2.6838,-5.50277 3.11115,-9.076 l 0.777,-6.496782 -1.79827,7.218561 c -1.2965,5.204401 -2.81087,7.73086 -5.42736,9.054592 -2.26661,1.146716 -2.75951,1.844069 -1.3129,1.857439 1.27392,0.01178 3.36659,-1.139239 4.65038,-2.55781 z m -54.55508,-1.202449 c -0.48254,-0.48254 -1.73503,-0.534131 -2.78331,-0.114644 -1.15844,0.463568 -0.81434,0.807667 0.87735,0.877347 1.53082,0.06305 2.3885,-0.280162 1.90596,-0.762703 z M 18.095523,9.4901508 C 20.862874,6.9857328 21.645562,7.0025106 38.802911,9.9340387 48.610143,11.609716 58.921392,13.325208 61.7168,13.746242 74.128848,15.615702 57.432289,11.648899 40.835426,8.7852015 14.66389,4.2694457 16.712577,3.5780785 11.333203,18.741271 8.8097755,25.854218 7.1387329,32.06748 7.6197754,32.548521 8.1008165,33.029562 10.007536,28.623848 11.85693,22.758045 13.706324,16.892241 16.513691,10.92169 18.095523,9.4901508 Z M 182.24608,17.42592 c 0,-0.798688 -2.12378,-1.374844 -4.71952,-1.280348 l -4.71952,0.171813 4.35648,1.108535 c 2.39606,0.609695 4.51985,1.185851 4.71952,1.280348 0.19967,0.0945 0.36304,-0.48166 0.36304,-1.280348 z M 74.392947,15.096413 c -0.482541,-0.48254 -1.735029,-0.534131 -2.783307,-0.114644 -1.158436,0.463567 -0.814336,0.807667 0.877347,0.877347 1.530818,0.06306 2.3885,-0.280162 1.90596,-0.762703 z"
       id="path13"
       transform="scale(0.26458333)" />
    <path
       style="fill:#800080;stroke-width:1.45216"
       d="M 140.85952,49.2569 C 117.19848,45.184057 87.529316,43.480986 43.343169,43.65926 -4.3159661,43.851547 -5.0164517,43.65704 -5.0603234,30.218865 -5.0831525,23.226146 1.0218554,3.6994144 4.3118967,0.24202672 6.8946887,-2.4721379 16.261641,-2.0928351 34.85184,1.4787024 76.390638,9.4591103 81.534383,10.16385 97.90378,10.11739 c 25.67985,-0.07288 69.8921,-2.5902178 75.94311,-4.3240075 4.50904,-1.2919733 6.2998,-1.0850887 10.8912,1.2582419 10.42552,5.3209326 10.98354,6.7105586 9.18205,22.8663846 -1.03031,9.239854 -2.41333,15.143521 -3.94378,16.83465 -5.53749,6.11886 -22.95793,7.007048 -49.11684,2.504241 z m 21.41936,-6.716937 c -1.79705,-0.346127 -4.73767,-0.346127 -6.53472,0 -1.79705,0.346127 -0.32674,0.629321 3.26736,0.629321 3.5941,0 5.06441,-0.283194 3.26736,-0.629321 z m -25.44305,-1.30467 c -0.48254,-0.48254 -1.73503,-0.534131 -2.78331,-0.114644 -1.15844,0.463568 -0.81434,0.807667 0.87735,0.877348 1.53082,0.06305 2.3885,-0.280163 1.90596,-0.762704 z m 39.78685,-1.663933 c 1.73186,-2.208298 1.70759,-2.328984 -0.18524,-0.921066 -1.19803,0.891118 -3.15845,1.983105 -4.35648,2.426637 -1.8221,0.67457 -1.7918,0.825165 0.18524,0.921066 1.2999,0.06305 3.26032,-1.028933 4.35648,-2.426637 z m -46.29132,0.127382 c -0.99836,-0.402846 -2.63204,-0.402846 -3.6304,0 -0.99836,0.402848 -0.18152,0.732449 1.8152,0.732449 1.99672,0 2.81356,-0.329601 1.8152,-0.732449 z m -8.01713,-1.367769 c -0.48254,-0.48254 -1.73503,-0.534131 -2.78331,-0.114644 -1.15844,0.463568 -0.81434,0.807667 0.87735,0.877347 1.53082,0.06305 2.3885,-0.280162 1.90596,-0.762703 z M 180.5471,28.31712 c -0.0343,-2.334761 -0.27069,-2.192371 -1.20534,0.72608 -1.59013,4.965182 -1.59013,8.782991 0,5.08256 0.68642,-1.597376 1.22882,-4.211264 1.20534,-5.80864 z M 17.558504,10.018616 C 18.849669,8.5918952 21.635193,7.134414 23.748558,6.7797691 25.877394,6.422528 25.013813,6.2241013 21.812165,6.3348401 16.048392,6.5341977 16.022924,6.5612857 12.067589,16.69984 9.8864534,22.290656 8.1246523,28.171904 8.1524757,29.76928 c 0.027822,1.597376 1.6273573,-1.609392 3.5545213,-7.126153 1.927165,-5.51676 4.560343,-11.19779 5.851507,-12.624511 z M 182.24608,17.42592 c 0,-0.798688 -2.12378,-1.374844 -4.71952,-1.280348 l -4.71952,0.171813 4.35648,1.108535 c 2.39606,0.609695 4.51985,1.185851 4.71952,1.280348 0.19967,0.0945 0.36304,-0.48166 0.36304,-1.280348 z M 74.392947,15.096413 c -0.482541,-0.48254 -1.735029,-0.534131 -2.783307,-0.114644 -1.158436,0.463567 -0.814336,0.807667 0.877347,0.877347 1.530818,0.06306 2.3885,-0.280162 1.90596,-0.762703 z M 47.92128,10.088307 C 40.733088,8.6287455 33.21816,7.4656481 31.22144,7.5036466 c -1.99672,0.037999 2.250848,1.2356616 9.43904,2.6614734 7.188192,1.425812 14.70312,2.588909 16.69984,2.58466 1.99672,-0.0042 -2.250848,-1.20191 -9.43904,-2.661473 z"
       id="path14"
       transform="scale(0.26458333)" />
    <path
       style="fill:#800080;stroke-width:1.45216"
       d="M 140.85952,49.264657 C 118.50483,45.427537 83.207402,43.457401 40.453354,43.660461 -3.8084295,43.870682 -5.0159808,43.521523 -5.0603234,30.500311 -5.0854792,23.113356 1.2812479,2.5522159 4.3935904,-0.03079886 7.7427269,-2.8103353 18.80382,-1.8409734 46.46912,3.6565778 c 14.376384,2.8568245 32.346864,5.5564623 39.9344,5.9991951 17.15569,1.0010351 80.14002,-1.7859468 87.44337,-3.8692651 4.50322,-1.284568 6.30574,-1.0751877 10.8912,1.2651166 10.54739,5.3831276 11.14283,6.8618966 9.24445,22.9585036 -1.06475,9.028183 -2.52067,15.101072 -4.01666,16.754118 -5.52383,6.103761 -22.94554,6.990845 -49.10636,2.500411 z m 19.9672,-6.661595 c -0.99836,-0.402846 -2.63204,-0.402846 -3.6304,0 -0.99836,0.402848 -0.18152,0.732449 1.8152,0.732449 1.99672,0 2.81356,-0.329601 1.8152,-0.732449 z m 15.79596,-3.031702 c 1.84353,-2.350691 1.77519,-2.381509 -0.91132,-0.410915 -1.59738,1.171702 -3.1766,2.315278 -3.50939,2.54128 -0.33278,0.226004 0.0773,0.410915 0.91132,0.410915 0.834,0 2.41323,-1.143576 3.50939,-2.54128 z m -46.29132,0.127382 c -0.99836,-0.402846 -2.63204,-0.402846 -3.6304,0 -0.99836,0.402848 -0.18152,0.732449 1.8152,0.732449 1.99672,0 2.81356,-0.329601 1.8152,-0.732449 z M 180.58979,29.0432 c 0,-1.372987 -0.46137,-1.104569 -1.24803,0.72608 -0.68642,1.597376 -1.24803,3.884528 -1.24803,5.08256 0,1.372987 0.46137,1.10457 1.24803,-0.72608 0.68642,-1.597376 1.24803,-3.884528 1.24803,-5.08256 z M 17.62381,9.9464542 C 18.879815,8.5585837 21.309527,7.1221028 23.023168,6.7542746 24.736809,6.3864464 23.877784,6.1865713 21.114224,6.3101081 16.292569,6.5256455 15.929578,6.9454002 12.129529,16.69984 9.9515088,22.290656 8.1603449,27.845168 8.1491647,29.0432 8.137986,30.241232 9.7513866,27.002333 11.734501,21.845647 13.717616,16.688962 16.367804,11.334325 17.62381,9.9464542 Z M 182.24608,17.42592 c 0,-0.798688 -1.79705,-1.387022 -3.99344,-1.307409 l -3.99344,0.144752 3.6304,1.162657 c 1.99672,0.639462 3.79377,1.227796 3.99344,1.307409 0.19967,0.07961 0.36304,-0.508721 0.36304,-1.307409 z M 56.967027,12.192093 c -0.482541,-0.48254 -1.735029,-0.534131 -2.783307,-0.114644 -1.158436,0.463567 -0.814336,0.807667 0.877347,0.877347 1.530818,0.06306 2.3885,-0.280162 1.90596,-0.762703 z M 50.46256,10.655542 c -0.99836,-0.402847 -2.63204,-0.402847 -3.6304,0 -0.99836,0.402848 -0.18152,0.732449 1.8152,0.732449 1.99672,0 2.81356,-0.329601 1.8152,-0.732449 z M 43.229398,9.212595 C 42.246237,8.8148148 40.285821,8.7906011 38.872918,9.1587867 37.460012,9.5269723 38.264416,9.8524288 40.66048,9.8820233 43.056544,9.9116179 44.212556,9.6103752 43.229398,9.212595 Z M 34.4888,7.7512225 c -0.99836,-0.4028471 -2.63204,-0.4028471 -3.6304,0 -0.99836,0.402847 -0.18152,0.7324492 1.8152,0.7324492 1.99672,0 2.81356,-0.3296022 1.8152,-0.7324492 z"
       id="path15"
       transform="scale(0.26458333)" />
    <path
       style="fill:#800080;stroke-width:1.45216"
       d="M 140.85952,49.310229 C 118.48923,45.595627 80.138992,43.472749 39.009126,43.672301 -3.6370223,43.879209 -5.0161664,43.466994 -5.0603234,30.500311 -5.0853904,23.139391 1.276989,2.5557506 4.3710161,-0.01206396 7.6934246,-2.7694184 17.384716,-1.9572201 46.031378,3.4793675 60.965692,6.3136141 78.2827,9.0386416 84.513618,9.5349841 98.688724,10.664145 166.57055,7.793617 173.84689,5.7573364 c 4.4783,-1.253251 6.33111,-1.0330662 10.8912,1.294288 10.54739,5.3831276 11.14283,6.8618966 9.24445,22.9585036 -1.06475,9.028183 -2.52067,15.101072 -4.01666,16.754118 -5.48989,6.066251 -22.57262,6.95193 -49.10636,2.545983 z m 35.76316,-9.738869 c 1.84353,-2.350691 1.77519,-2.381509 -0.91132,-0.410915 -1.59738,1.171702 -3.1766,2.315278 -3.50939,2.54128 -0.33278,0.226004 0.0773,0.410915 0.91132,0.410915 0.834,0 2.41323,-1.143576 3.50939,-2.54128 z m 3.71107,-10.80044 c -0.46356,-1.158436 -0.80767,-0.814336 -0.87734,0.877347 -0.0631,1.530818 0.28015,2.3885 0.7627,1.90596 0.48254,-0.482541 0.53412,-1.735029 0.11464,-2.783307 z M 15.625583,13.090443 C 16.664053,11.105275 19.127637,8.6643878 21.100215,7.6662504 24.236947,6.0790434 24.322497,5.8515589 21.7824,5.8522841 17.045557,5.8536364 15.677723,7.5041376 11.737054,17.973531 7.3904634,29.52136 6.9107946,32.788897 10.964746,23.23456 12.489738,19.640464 14.587114,15.075611 15.625583,13.090443 Z M 181.52,17.42592 c -0.49362,-0.798688 -2.32923,-1.387022 -4.07915,-1.307409 -2.96181,0.134749 -2.9308,0.225088 0.44875,1.307409 1.99672,0.639462 3.83234,1.227796 4.07915,1.307409 0.24681,0.07961 0.0449,-0.508721 -0.44875,-1.307409 z M 50.46256,10.655542 c -0.99836,-0.402847 -2.63204,-0.402847 -3.6304,0 -0.99836,0.402848 -0.18152,0.732449 1.8152,0.732449 1.99672,0 2.81356,-0.329601 1.8152,-0.732449 z M 42.445427,9.2877733 C 41.962886,8.8052328 40.710398,8.7536429 39.66212,9.1731292 c -1.158436,0.4635677 -0.814336,0.8076663 0.877347,0.8773468 1.530818,0.06305 2.3885,-0.280162 1.90596,-0.7627027 z m -7.2608,-1.45216 C 34.702086,7.3530727 33.449598,7.3014829 32.40132,7.7209692 c -1.158436,0.4635677 -0.814336,0.8076663 0.877347,0.8773466 1.530818,0.063054 2.3885,-0.2801618 1.90596,-0.7627025 z"
       id="path16"
       transform="scale(0.26458333)" />
    <path
       style="fill:#800080;stroke-width:1.45216"
       d="M 140.13344,49.244255 C 118.00658,45.630559 77.283177,43.431091 36.843752,43.665587 -3.3807701,43.898836 -5.0164458,43.384946 -5.0603234,30.500311 -5.0853904,23.139391 1.276989,2.5557506 4.3710161,-0.01206396 7.6800023,-2.7582789 17.345707,-1.9628063 45.74304,3.3927905 c 14.775728,2.7866291 31.766,5.4940865 37.75616,6.0165717 13.427881,1.1712328 79.85874,-1.4831353 89.13264,-3.5614588 5.76105,-1.2910787 7.5828,-1.1049635 12.18734,1.2450916 10.45861,5.337849 11.0594,6.840386 9.16336,22.917133 -1.06475,9.028183 -2.52067,15.101072 -4.01666,16.754118 -5.5256,6.105715 -22.46895,6.948935 -49.83244,2.480009 z m 35.56764,-8.567142 c 0.50875,-0.823171 -0.0742,-1.066621 -1.36645,-0.570715 -2.51576,0.965383 -2.97605,2.006242 -0.88722,2.006242 0.75156,0 1.76571,-0.645987 2.25367,-1.435527 z M 12.361307,20.282249 C 14.163314,15.463727 17.27174,10.235951 19.268919,8.6649692 21.625854,6.8110039 22.146006,5.80864 20.751143,5.80864 c -3.193191,0 -6.0856,4.0813229 -9.611098,13.561699 -3.2852171,8.834239 -3.5109917,9.672861 -2.6041396,9.672861 0.3019636,0 2.0233946,-3.942428 3.8254016,-8.760951 z M 181.52,17.42592 c -0.49362,-0.798688 -2.0025,-1.406231 -3.35307,-1.350095 -2.00178,0.08321 -1.91887,0.332697 0.44875,1.350095 3.88585,1.669808 3.93631,1.669808 2.90432,0 z M 42.445427,9.2877733 C 41.962886,8.8052328 40.710398,8.7536429 39.66212,9.1731292 c -1.158436,0.4635677 -0.814336,0.8076663 0.877347,0.8773468 1.530818,0.06305 2.3885,-0.280162 1.90596,-0.7627027 z"
       id="path17"
       transform="scale(0.26458333)" />
    <path
       style="fill:#800080;stroke-width:1.45216"
       d="M 140.13344,49.314532 C 117.85217,45.755588 74.039848,43.384557 35.459701,43.649807 -3.3422902,43.916582 -5.0172491,43.363566 -5.0603234,30.271423 -5.0845409,22.910678 0.82054054,3.6396651 4.1074417,0.35276408 7.240371,-2.7801657 16.338313,-2.1276279 46.46912,3.3910994 c 15.175072,2.7794504 31.511872,5.4762133 36.304,5.9928066 10.877745,1.172625 81.44743,-1.6509932 90.1814,-3.6083176 5.39177,-1.2083194 7.33971,-0.9920264 11.86466,1.3174066 10.55417,5.386621 11.19543,6.980577 9.2329,22.950025 -0.94994,7.729834 -2.52459,15.015874 -3.49922,16.191197 -5.4598,6.584063 -22.11379,7.601519 -50.41942,3.080315 z m 35.56764,-8.637419 c 0.50875,-0.823171 -0.0742,-1.066621 -1.36645,-0.570715 -2.51576,0.965383 -2.97605,2.006242 -0.88722,2.006242 0.75156,0 1.76571,-0.645987 2.25367,-1.435527 z M 10.846726,23.96064 c 0,-0.798688 -0.633458,-0.471952 -1.407686,0.72608 -0.7742278,1.198032 -1.4076861,2.831712 -1.4076861,3.6304 0,0.798688 0.6334583,0.471952 1.4076861,-0.72608 0.774228,-1.198032 1.407686,-2.831712 1.407686,-3.6304 z M 19.83266,8.0479643 c 2.953912,-2.1450031 3.02979,-2.406671 0.576203,-1.9870327 -2.97863,0.5094368 -7.16035,6.7117484 -8.641572,12.8171484 -0.48442,1.99672 0.366688,0.932605 1.891351,-2.364702 1.524665,-3.297305 4.302973,-7.1067415 6.174018,-8.4654137 z M 181.52,17.42592 c -0.49362,-0.798688 -2.0025,-1.406231 -3.35307,-1.350095 -2.00178,0.08321 -1.91887,0.332697 0.44875,1.350095 3.88585,1.669808 3.93631,1.669808 2.90432,0 z"
       id="path18"
       transform="scale(0.26458333)" />
    <path
       style="fill:#800080;stroke-width:1.45216"
       d="M 139.40736,49.276462 C 117.22485,45.87259 70.723283,43.400527 33.39968,43.641004 3.9603496,43.830682 -2.4410451,42.95014 -4.1584278,38.474714 -6.991009,31.093124 -1.5461797,6.0063853 4.1178171,0.34238869 7.2118666,-2.7516602 16.856514,-2.1463455 43.219575,2.7964828 c 38.146292,7.152074 42.868594,7.4857422 83.772735,5.919223 20.50959,-0.7854633 40.72166,-2.0788829 44.9157,-2.8742661 6.48115,-1.2291238 8.42836,-1.0363949 12.97524,1.2842408 10.48417,5.3509195 11.12941,6.9637075 9.16883,22.9173395 -0.94994,7.729834 -2.52459,15.015874 -3.49922,16.191197 -5.47078,6.597301 -21.69042,7.562081 -51.1455,3.042245 z M 10.610747,23.922215 c -0.447101,-0.447103 -1.2590921,0.358846 -1.8044232,1.790996 -0.7880655,2.069616 -0.6212646,2.236417 0.8129119,0.812912 0.9924323,-0.985049 1.4386123,-2.156807 0.9915113,-2.603908 z M 18.603452,9.076 c 1.660498,-1.8334588 2.201387,-3.26736 1.232496,-3.26736 -1.798536,0 -7.510556,8.358287 -7.443001,10.8912 0.0213,0.798688 0.761575,0.145216 1.645052,-1.45216 0.883477,-1.597376 2.937932,-4.374632 4.565453,-6.17168 z m 161.797178,7.472573 c -0.48255,-0.48254 -1.73502,-0.534131 -2.78331,-0.114644 -1.15843,0.463567 -0.81434,0.807667 0.87735,0.877347 1.53081,0.06306 2.3885,-0.280162 1.90596,-0.762703 z"
       id="path19"
       transform="scale(0.26458333)" />
    <path
       style="fill:#800080;stroke-width:1.45216"
       d="M 138.68128,49.25286 C 115.57787,45.860546 69.069763,43.398958 32.6736,43.64207 3.9590922,43.833871 -2.4467955,42.935155 -4.1584278,38.474714 -6.9438117,31.216119 -2.346964,8.4732809 3.3201136,1.4747362 6.8723196,-2.9120519 14.016672,-2.6787891 43.096666,2.7734387 c 13.105686,2.4571939 29.681458,5.0610695 36.835048,5.78639 14.52663,1.4728923 79.427266,-0.4582999 91.899606,-2.734577 6.54862,-1.1951619 8.55639,-0.9940127 13.06944,1.3093639 10.46503,5.3411594 11.11136,6.9591244 9.15132,22.9084044 -0.94994,7.729834 -2.52459,15.015874 -3.49922,16.191197 -5.47626,6.603917 -21.21586,7.519876 -51.87158,3.018643 z M 18.603452,9.076 c 1.660498,-1.8334588 2.201387,-3.26736 1.232496,-3.26736 -1.798536,0 -7.510556,8.358287 -7.443001,10.8912 0.0213,0.798688 0.761575,0.145216 1.645052,-1.45216 0.883477,-1.597376 2.937932,-4.374632 4.565453,-6.17168 z"
       id="path20"
       transform="scale(0.26458333)" />
    <path
       style="fill:#800080;stroke-width:1.45216"
       d="M 137.22912,49.246893 C 114.55936,45.9108 66.551615,43.394928 31.043771,43.68219 -2.5780221,43.954195 -4.1546622,43.444975 -4.802127,32.104743 -5.3019072,23.351182 -0.88829484,6.6719006 3.2948074,1.5059879 6.9418796,-2.9979558 13.291456,-2.6921851 48.64736,3.6899887 l 29.76928,5.3737198 42.11264,-0.7931333 c 23.16195,-0.4362235 45.84156,-1.5231924 50.39913,-2.4154867 7.3196,-1.4330527 8.9293,-1.2942804 13.79552,1.1893153 10.65826,5.4397052 11.29352,7.0059592 9.32815,22.9986162 -0.94994,7.729834 -2.52459,15.015874 -3.49922,16.191197 -5.49187,6.622729 -22.32844,7.573959 -53.32374,3.012676 z M 18.679197,8.9953742 c 2.554488,-2.8180382 2.629526,-3.1924387 0.47405,-2.3653052 -1.408453,0.5404742 -3.516863,2.8314564 -4.685355,5.091071 -2.453818,4.745161 -2.835469,7.875955 -0.429893,3.52654 0.883477,-1.597376 2.972015,-4.410914 4.641198,-6.2523058 z"
       id="path21"
       transform="scale(0.26458333)" />
    <path
       style="fill:#800080;stroke-width:1.45216"
       d="M 148.12032,50.684106 C 126.61627,46.97595 94.493176,44.795491 51.55168,44.129197 25.59432,43.726434 2.868931,43.032774 1.0508155,42.58773 -3.3175806,41.518422 -5.08256,37.901193 -5.08256,30.017711 -5.08256,22.266765 -0.26505972,5.9022378 3.3201136,1.4747362 6.939482,-2.994995 13.364522,-2.6801242 48.64736,3.6960802 l 29.76928,5.3798114 42.11264,-0.82965 c 23.16195,-0.4563074 45.84156,-1.5460176 50.39913,-2.421578 7.2925,-1.4009715 8.94732,-1.2546597 13.79552,1.2197402 10.73567,5.4792142 11.40708,7.1253042 9.39712,23.0391772 -1.91738,15.180775 -2.96266,17.293742 -10.01313,20.240885 -5.19214,2.170349 -24.37534,2.362055 -35.9876,0.35964 z M 18.738074,7.366809 c -0.741304,-0.7461034 -4.830899,4.454494 -4.896371,6.226547 -0.0254,0.687498 1.20451,-0.29271 2.733135,-2.17824 1.528627,-1.8855297 2.502082,-3.7072679 2.163236,-4.048307 z"
       id="path22"
       transform="scale(0.26458333)" />
  </g>
</svg>
