<?xml version="1.0" encoding="UTF-8" standalone="no"?>
<!-- Created with Inkscape (http://www.inkscape.org/) -->

<svg
   width="178mm"
   height="103mm"
   viewBox="0 0 178 103"
   version="1.1"
   id="svg1"
   inkscape:version="1.4.2 (f4327f4, 2025-05-13)"
   sodipodi:docname="maleTurtle.svg"
   xmlns:inkscape="http://www.inkscape.org/namespaces/inkscape"
   xmlns:sodipodi="http://sodipodi.sourceforge.net/DTD/sodipodi-0.dtd"
   xmlns="http://www.w3.org/2000/svg"
   xmlns:svg="http://www.w3.org/2000/svg">
  <sodipodi:namedview
     id="namedview1"
     pagecolor="#ffffff"
     bordercolor="#000000"
     borderopacity="0.25"
     inkscape:showpageshadow="2"
     inkscape:pageopacity="0.0"
     inkscape:pagecheckerboard="0"
     inkscape:deskcolor="#d1d1d1"
     inkscape:document-units="mm"
     inkscape:zoom="0.68862935"
     inkscape:cx="396.43968"
     inkscape:cy="212.74144"
     inkscape:window-width="1920"
     inkscape:window-height="991"
     inkscape:window-x="-9"
     inkscape:window-y="-9"
     inkscape:window-maximized="1"
     inkscape:current-layer="layer1" />
  <defs
     id="defs1" />
  <g
     inkscape:label="Layer 1"
     inkscape:groupmode="layer"
     id="layer1">
    <path
       style="fill:#a0892c;stroke-width:0.264583"
       id="path1"
       sodipodi:type="arc"
       sodipodi:cx="85.104134"
       sodipodi:cy="49.371925"
       sodipodi:rx="68.96701"
       sodipodi:ry="28.624191"
       sodipodi:start="6.0230513"
       sodipodi:end="6.0201891"
       sodipodi:arc-type="slice"
       d="M 151.75078,42.009496 A 68.96701,28.624191 0 0 1 102.89083,77.027795 68.96701,28.624191 0 0 1 18.482937,56.773933 68.96701,28.624191 0 0 1 67.222099,21.726648 68.96701,28.624191 0 0 1 151.69974,41.930354 l -66.595606,7.441571 z" />
    <path
       style="fill:#a0892c;stroke-width:0.250546"
       id="path4"
       d="m 14.811517,44.80924 c -1.968283,0.876112 -3.931686,1.755524 -5.9373782,2.520326 -1.6949949,0.632139 -3.3842897,1.300723 -4.9497483,2.271225 -0.8203118,0.509106 -1.6494518,1.083175 -2.2586636,1.890845 -0.132669,0.368398 -0.2286831,0.476742 -0.1461093,0.891656 0.2946185,1.4804 3.6593487,3.032247 4.2441735,3.412043 1.0986619,0.385353 2.2419951,0.619964 3.3743249,0.857695 1.085872,0.322601 2.186204,0.567917 3.284245,0.830694 1.222485,0.298733 2.457851,0.540371 3.678183,0.849182 1.016077,0.149482 2.009622,0.382143 3.00816,0.630812 0.663051,0.298024 1.355486,0.458306 2.063302,0.542631 0.109765,0.03054 0.21953,0.06108 0.329295,0.09162 0,0 -2.82408,-2.389479 -2.82408,-2.389479 v 0 c -0.11561,-0.02233 -0.23122,-0.04466 -0.34683,-0.06699 -0.696993,-0.117266 -1.364714,-0.341775 -2.03858,-0.567708 -0.992439,-0.24901 -1.996093,-0.403569 -2.994948,-0.615762 -1.223075,-0.279858 -2.448039,-0.549 -3.6690697,-0.840406 C 8.5231631,54.855353 7.4252428,54.566822 6.3252859,54.281731 5.2107801,54.03811 4.0589632,53.85196 3.0209443,53.320862 3.8851699,53.885724 4.7469277,54.455305 5.6136213,55.015444 5.7382893,55.096015 5.3630352,54.85526 5.247205,54.759682 4.8819402,54.458277 4.4907742,54.06423 4.6973411,53.529208 5.2964299,52.77626 6.0811628,52.229927 6.8587723,51.733722 8.401819,50.779536 10.066961,50.122346 11.732928,49.487764 13.75302,48.703301 15.725976,47.784075 17.74669,47.002157 Z" />
    <path
       style="fill:#a0892c;stroke-width:0.264583"
       id="path6"
       d="m 11.558379,52.329029 c 1.466321,0.109524 2.944084,0.02368 4.413452,-0.01378 0.06413,-0.0056 0.245947,0.01881 0.192377,-0.01688 -1.153061,-0.768284 -2.303507,-1.548752 -3.524666,-2.203413 -0.142666,-0.07648 -0.321332,0.03984 -0.482479,0.05518 -0.771355,0.07344 -1.542227,0.107045 -2.3131071,0.189066 -1.2010123,0.149056 -2.4038856,0.277987 -3.612692,0.34 -0.9684692,-0.01683 -1.8315141,0.358749 -2.5497009,0.987563 -0.2490295,0.265612 -0.6089851,0.87794 -0.1476486,1.167355 3.3102245,2.076632 2.3515865,1.751446 4.0226739,2.265886 0.7763872,0.282033 1.5615946,0.554501 2.3609725,0.766673 0.7547412,0.08325 1.4748642,0.30181 2.2176002,0.439163 1.679143,0.378537 1.209034,0.310377 -3.3708834,-2.377607 C 8.5726647,53.815776 8.3242078,53.86648 8.1048359,53.831288 7.8981923,53.798139 7.690722,53.768304 7.4863475,53.723232 7.3561648,53.694522 6.9879865,53.542358 7.1026972,53.610276 c 1.0845535,0.642173 2.2017537,1.227537 3.3026308,1.841307 -0.005,0.114814 -0.0986,0.265727 -0.01487,0.344443 0.08723,0.082 0.238998,-0.01458 0.358525,-0.02138 0.664507,-0.03779 1.328384,-0.05184 1.993844,-0.05889 1.005414,-0.07075 1.94328,-0.311963 2.864428,-0.710388 0.559382,-0.255974 2.051851,-0.608455 2.186034,-1.324711 0.02376,-0.126852 -0.02602,-0.256799 -0.03903,-0.385199 -1.417018,-1.824799 -3.582954,-2.456828 -5.700111,-2.576203 -0.99553,-0.0034 -1.998377,-0.07875 -2.988044,0.04528 -0.1593403,0.04437 -0.3186803,0.08873 -0.4780206,0.133102 0,0 3.2433186,2.24128 3.2433186,2.24128 v 0 c 0.148497,-0.02975 0.296993,-0.0595 0.44549,-0.08925 0.982742,-0.06834 1.971207,-0.03181 2.954503,0.0132 0.422632,0.03741 0.846046,0.07315 1.2577,0.183597 0.131263,0.03522 0.502264,0.199764 0.387377,0.127162 -2.731197,-1.725943 -4.196688,-2.185075 -2.742004,-1.705671 0.06712,0.02289 0.16149,0.01003 0.201356,0.06869 0.103132,0.151725 -0.22682,0.300836 -0.385634,0.392676 -0.508735,0.294192 -1.066582,0.480083 -1.612517,0.689901 -0.895781,0.347641 -1.82174,0.547057 -2.7851511,0.585835 -0.4108648,0.0078 -2.1637326,-0.02921 -2.4427029,0.147349 -0.1757222,0.111212 -0.2790417,0.308419 -0.4185626,0.462629 1.1841874,0.664737 2.3506001,1.362181 3.5525626,1.99421 0.113687,0.05978 0.251818,0.05098 0.378396,0.07281 0.205527,0.03544 0.411733,0.06685 0.617804,0.09898 0.225891,0.03523 0.829924,0.274023 0.678071,0.103116 C 9.9453529,54.063905 10.361061,54.200895 8.9851131,53.915206 8.2553058,53.740658 7.5167926,53.632028 6.7875583,53.457239 5.9984869,53.2171 5.2102069,52.966603 4.4451994,52.657462 c -1.4278183,-0.6872 -0.1778788,-0.09711 2.7619449,1.672378 0.07459,0.0449 -0.1549527,-0.07995 -0.2356545,-0.112607 -0.052086,-0.02109 -0.1343475,0.0011 -0.1615496,-0.04812 -0.02896,-0.05234 0.00967,-0.122666 0.037866,-0.175422 0.046838,-0.08762 0.1213726,-0.157337 0.182059,-0.236005 0.6968926,-0.563277 1.5131004,-0.78491 2.4059644,-0.779783 1.1997784,-0.08413 2.3921884,-0.23614 3.5863394,-0.376986 0.782413,-0.071 1.570486,-0.09171 2.351099,-0.178827 0.179339,-0.02 0.663464,0.04595 0.535258,-0.08103 -0.899908,-0.891362 -1.970738,-1.592868 -2.987629,-2.348044 -0.04019,-0.02985 -0.09934,0.01244 -0.149015,0.01865 -1.456758,0.09232 -2.9334481,0.133149 -4.3840503,-0.04697 z" />
    <path
       style="fill:#a0892c;stroke-width:0.264583"
       id="path7"
       d="m 10.965107,53.998206 c 1.880399,-0.597583 3.471076,-1.354683 4.998137,-2.604881 0.518794,-0.56591 1.840283,-1.522344 2.035735,-2.262756 0.02756,-0.104387 6.09e-4,-0.215922 9.26e-4,-0.323882 -1.19372,-0.687017 -2.342384,-1.459061 -3.581161,-2.061051 -0.107085,-0.05204 -0.206142,0.120361 -0.315496,0.167444 -0.593488,0.255537 -1.248633,0.369109 -1.862007,0.566851 -1.031596,0.390295 -2.032282,0.887976 -2.981342,1.449956 -0.621978,0.553353 -1.3119348,0.940091 -2.0559445,1.295358 -0.5764196,0.298498 -1.1197793,0.640786 -1.6319095,1.038347 0,0 3.3306332,2.104046 3.3306332,2.104046 v 0 c 0.5026326,-0.371885 1.0353789,-0.690576 1.5986768,-0.963782 0.751539,-0.357119 1.414376,-0.814472 2.069061,-1.326359 0.934429,-0.537236 1.893632,-1.052428 2.924001,-1.380344 0.617081,-0.183746 1.257824,-0.425088 1.888194,-0.552255 0.06751,-0.01363 0.137733,0.0011 0.2066,0.0016 C 16.519674,48.4844 15.450137,47.822315 14.3806,47.16023 c 0.05637,0.01016 0.156688,-0.02545 0.169104,0.03046 0.09571,0.431019 -1.593956,1.789324 -1.896016,2.12924 -1.452454,1.191561 -3.108267,1.985012 -4.9337047,2.450078 z" />
    <path
       style="fill:#a0892c;stroke-width:0.264583"
       id="path8"
       d="m 9.2072506,55.022985 c 1.2859554,0.144499 2.5776694,0.216662 3.8702004,0.266951 1.094422,0.08068 2.202588,-0.04199 3.290254,0.107916 2.573488,0.329451 2.868237,1.098952 -1.58324,-2.102305 -0.179542,0.06018 -0.396892,-0.187145 -0.546289,-0.193921 -0.0354,-0.0016 -0.110655,0.04608 -0.08229,0.06733 3.074942,2.303791 2.155508,1.889382 3.659441,2.533425 0.313448,0.146238 0.667538,0.157046 0.993787,0.251907 0.106619,0.031 0.404931,0.180417 0.308867,0.124738 -3.207144,-1.858894 -4.415366,-1.420934 -3.16035,-1.85239 0.0086,-0.04159 0.05225,-0.09162 0.02572,-0.12478 -0.02742,-0.03429 -0.09022,-0.02241 -0.131495,-0.0075 -0.309803,0.112162 -0.385199,0.421878 -0.401923,0.708302 0.53881,1.505932 0.05898,0.307004 3.649138,2.31738 0.07862,0.04402 0.179652,0.02088 0.26665,0.04433 0.09784,0.02638 0.373061,0.155453 0.285476,0.104492 -4.23979,-2.466967 -4.149937,-2.413328 -3.027755,-1.690833 0.251987,0.039 -0.861356,0.102418 -0.893114,0.104516 -0.751544,0.105045 -1.422904,-0.09715 -2.107878,-0.372888 -1.269702,-0.706054 -1.426362,-0.794621 2.842184,1.624827 0.06636,0.03761 -0.191791,-0.04252 -0.195634,-0.118705 -0.0065,-0.128138 0.138784,-0.216427 0.219312,-0.316307 0.655195,-0.704421 1.30458,-1.412449 1.956112,-2.120228 0.331556,-0.339053 0.513155,-1.043757 0.0061,-1.352531 -2.608483,-1.588418 -2.527676,-1.54051 -4.020867,-2.276216 1.055665,0.603475 2.112362,1.205151 3.166996,1.810425 0.04102,0.02355 -0.08074,-0.07874 -0.126033,-0.06516 -0.04406,0.01323 -0.02163,0.139795 -0.06414,0.122203 -1.192024,-0.493308 -2.33499,-1.098997 -3.52126,-1.605981 -0.04779,-0.02043 0.06357,0.08491 0.07859,0.134659 0.02396,0.07937 0.02422,0.164047 0.03633,0.246068 0.09713,0.754504 -0.06461,1.402675 -0.497901,2.021464 -0.59995,0.625814 -1.603516,0.639871 -2.37511,0.337233 3.943528,2.659848 2.259561,2.399765 4.448018,1.485897 0.10721,-0.04477 1.070603,-0.381309 1.147703,-0.408397 0.722522,-0.351282 2.056347,-0.672576 2.459959,-1.440061 0.05301,-0.100804 0.06081,-0.219522 0.09122,-0.329282 -0.04222,-0.131141 -0.05147,-0.277971 -0.126646,-0.393425 -0.07589,-0.116557 -0.19069,-0.208267 -0.310789,-0.278421 -1.250834,-0.730665 -2.520446,-1.429054 -3.794,-2.119355 -0.139435,-0.07558 -0.296238,-0.113657 -0.441822,-0.176583 -0.121705,-0.0526 -0.474518,-0.236109 -0.359676,-0.169846 1.047543,0.604419 2.105877,1.189939 3.158815,1.784908 -0.440193,-0.373772 -0.532217,-0.936159 -0.598192,-1.4791 -0.05068,-1.043541 0.462582,-1.920867 1.278871,-2.52943 0.603725,-0.287785 1.203955,-0.608081 1.60143,-1.159034 0.08795,-0.109429 0.06452,-0.24965 0.105624,-0.371729 0.01807,-0.05367 -0.0063,0.133146 0.04048,0.165007 0.05162,0.03513 0.360756,0.06276 0.387027,0.06589 0.310785,0.0508 0.599812,0.04457 0.908445,-0.0049 0,0 -3.226494,-2.30305 -3.226494,-2.30305 v 0 c -0.291531,-7.93e-4 -0.580003,-0.01976 -0.868959,-0.06169 -0.352842,-0.03615 -0.839976,0.0039 -0.765371,0.490614 -0.367741,0.513985 -1.014508,0.735873 -1.521565,1.080493 -0.864474,0.729879 -1.45089,1.70907 -1.474444,2.866781 0.03933,0.638665 0.12223,1.210379 0.451544,1.76902 1.206406,0.714052 2.404928,1.441596 3.619217,2.142159 0.112965,0.06517 0.239798,0.102627 0.359879,0.153514 2.319485,0.982941 -4.610845,-2.531993 -1.933118,-1.327009 0.0705,0.668954 -1.802549,1.203518 -2.289872,1.428083 -0.720889,0.25314 -1.483186,0.497594 -2.12005,0.93517 -0.132462,0.09101 -0.491034,0.201361 -0.370871,0.308088 0.998374,0.886733 2.193575,1.523294 3.290363,2.284939 0.96156,0.125577 1.976506,0.05252 2.633035,-0.744791 0.46761,-0.69011 0.719343,-1.407115 0.642583,-2.250411 -0.0035,-0.149315 -0.01253,-0.5568 -0.01436,-0.557848 -1.188369,-0.678341 -2.418749,-1.286208 -3.673294,-1.832546 -0.110541,-0.04814 -0.09287,0.415306 0.03236,0.360254 1.209596,0.694457 2.419192,1.388912 3.628787,2.083369 1.420035,0.677659 0.117365,0.06774 -2.748228,-1.667955 -0.442825,-0.268218 0.613761,0.195662 0.517079,0.483939 -0.0392,0.116877 -0.143491,0.200493 -0.215237,0.300739 -0.65536,0.717603 -1.315068,1.430954 -1.989813,2.130285 -0.140054,0.175135 -0.687143,0.795726 -0.315201,1.025043 3.060732,1.887064 2.401908,1.589339 3.967819,2.258065 0.719428,0.247613 1.457104,0.327136 2.215313,0.232085 0.564254,-0.06437 1.298946,-0.138637 1.329974,-0.853689 -0.775501,-1.436208 -0.09786,-0.269785 -3.760119,-2.292527 -0.09179,-0.0507 -0.20142,-0.05925 -0.299239,-0.09702 -0.07745,-0.02991 -0.296549,-0.148717 -0.225573,-0.105635 1.062136,0.644713 2.143621,1.257451 3.200205,1.911223 0.04442,0.02748 -0.10295,-0.01775 -0.154425,-0.02661 -0.292828,-0.123645 0.47065,-0.302199 0.524993,-0.602626 0.09841,-1.832184 -3.354861,-2.066308 -4.881904,-2.652045 -1.498451,-0.442942 -0.166014,-0.08533 2.71465,2.237414 0.01892,0.01527 -0.05257,0.04879 -0.03402,0.0645 0.134506,0.113949 0.469177,0.02283 0.618092,0.09793 -3.2088,-2.505191 -2.129256,-2.29512 -4.786215,-2.613395 -1.093375,-0.07029 -2.191537,-0.015 -3.2859592,-0.07556 -1.2964594,-0.05387 -2.5943542,-0.129813 -3.8786983,-0.323112 z" />
    <path
       style="fill:#a0892c;stroke-width:0.264583"
       id="path14"
       sodipodi:type="arc"
       sodipodi:cx="165.59767"
       sodipodi:cy="45.913971"
       sodipodi:rx="12.294954"
       sodipodi:ry="8.2606726"
       sodipodi:start="6.0230513"
       sodipodi:end="6.0201891"
       sodipodi:arc-type="slice"
       d="m 177.47897,43.789243 a 12.294954,8.2606726 0 0 1 -8.71041,10.105952 12.294954,8.2606726 0 0 1 -15.04765,-5.845074 12.294954,8.2606726 0 0 1 8.68888,-10.114317 12.294954,8.2606726 0 0 1 15.06008,5.830599 l -11.8722,2.147568 z" />
    <path
       style="fill:#110923;fill-opacity:1;stroke-width:0.264583"
       id="path15"
       sodipodi:type="arc"
       sodipodi:cx="169.63196"
       sodipodi:cy="42.648121"
       sodipodi:rx="2.8816299"
       sodipodi:ry="2.6895213"
       sodipodi:start="6.0230513"
       sodipodi:end="6.0201891"
       sodipodi:arc-type="slice"
       d="m 172.41664,41.956349 a 2.8816299,2.6895213 0 0 1 -2.04151,3.29031 2.8816299,2.6895213 0 0 1 -3.52679,-1.903047 2.8816299,2.6895213 0 0 1 2.03646,-3.293034 2.8816299,2.6895213 0 0 1 3.5297,1.898335 l -2.78254,0.699208 z" />
    <path
       style="fill:#d3bc5f;fill-opacity:1;stroke-width:0.264583"
       d="m 30.737386,31.505821 c -5.062119,-5.279263 6.592067,6.20785 -2.689521,-3.073739 -0.466728,-0.466727 -1.723831,-1.246132 -2.305304,-1.536869 -0.307374,-0.153686 -0.845278,0.153686 -1.152652,0 -0.682066,-0.341032 -1.23902,-0.811619 -1.921087,-1.152652 -0.229103,-0.114551 -0.539331,0.114552 -0.768434,0 -0.473301,-0.23665 -0.265892,-0.709272 -0.384218,-0.768435 -0.664421,-0.33221 -1.643171,-0.106301 -2.305304,-0.768434 -0.09056,-0.09056 0.256145,0 0.384218,0 0.640362,0 1.280724,0 1.921086,0 1.664942,0 3.329884,0 4.994826,0 2.517185,0 -0.223284,0.1215 2.305304,-0.384218 0.704434,-0.140886 7.300195,6.5e-5 7.684346,0.384218 0.09056,0.09056 -0.09056,0.293656 0,0.384217 0.234387,0.234387 1.459013,0.230193 1.921087,0.384217 0.397981,0.13266 0.771483,0.57785 1.152652,0.768435 0.952883,0.476442 3.652284,-0.763994 4.22639,0.384217 0.188447,0.376894 -0.175942,0.56016 -0.384217,0.768435 -0.384217,0.384217 -0.666652,0.909651 -1.152652,1.152652 -1.127038,0.56352 -3.099353,-0.563518 -4.22639,0 -0.324001,0.161999 -0.512289,0.512289 -0.768435,0.768435"
       id="path36" />
    <path
       style="fill:#d3bc5f;fill-opacity:1;stroke-width:0.264583"
       d="m 31.505821,68.006467 c 0.384217,0.512289 0.640363,1.921087 1.152652,1.536869 0.512289,-0.384217 -1.152652,-2.177232 -1.152652,-1.536869 0,1.127297 1.700683,3.734951 1.152652,5.379043 -0.05727,0.171828 -0.303218,0.222218 -0.384217,0.384217 -0.923849,1.847697 -0.06962,1.455208 -1.921087,2.689521 -0.301405,0.200938 -0.424781,0.653884 -0.768435,0.768435 -0.243001,0.081 -0.525433,-0.081 -0.768434,0 -0.343654,0.114551 -0.46703,0.5675 -0.768435,0.768435 -0.709324,0.472884 -1.59598,0.67977 -2.305304,1.152652 -0.348605,0.232404 -2.14971,1.308245 -1.536869,1.921086 0.184388,0.184388 2.829369,0.174689 3.457956,0.384218 0.171828,0.05728 0.222218,0.303217 0.384217,0.384217 0.497139,0.248571 3.76279,0.231801 4.226391,0 0.413022,-0.20651 0.714576,-0.622409 1.152652,-0.768435 0.3645,-0.121499 0.775895,0.07535 1.152652,0 1.051171,-0.210232 2.190226,-1.144196 3.073738,-1.536869 0.482545,-0.214463 1.064562,-0.148063 1.53687,-0.384217 0.114551,-0.05728 0,-0.256146 0,-0.384218 0.128071,-0.128071 0.212388,-0.32694 0.384217,-0.384217 0.243001,-0.081 0.539332,0.114551 0.768434,0 0.114552,-0.05727 -0.09056,-0.293656 0,-0.384217 0.824508,-0.824508 2.199961,-0.881534 3.073739,-1.53687 0.318236,-0.238675 3.046376,-2.332667 2.305304,-3.073738 -0.202499,-0.202499 -0.565933,-0.181716 -0.768435,-0.384218"
       id="path37" />
    <path
       style="fill:#d3bc5f;fill-opacity:1;stroke-width:0.289361"
       d="m 112.21199,76.525325 c 0.15144,0.518162 -0.15145,1.68403 0.45433,1.55449 0.6058,-0.129539 -0.45433,-2.088599 -0.45433,-1.55449 0,1.430827 0.86004,2.886743 0.45433,4.274847 -1.28351,4.391438 -2.17946,8.391912 -4.54341,12.435919 -0.7491,1.281511 -1.66921,1.256 -2.2717,1.943113 -0.28734,0.327715 -0.16699,0.838151 -0.45433,1.165868 -0.2032,0.231729 -0.72084,0.147608 -0.90869,0.388622 -0.16802,0.215571 0.0957,0.531459 0,0.777244 -0.30135,0.773261 -1.84193,1.207894 -2.2717,1.943114 -0.0678,0.115864 0.10714,0.297021 0,0.388622 -0.26685,0.228246 -3.121096,1.334816 -3.634731,1.554486 -1.34462,0.57507 -2.670722,2.02844 -4.089072,2.33173 -0.850265,0.18183 -1.54196,0.15306 -2.271701,0.77725 -0.338644,0.28967 0.918358,-0.23649 1.363022,-0.38862 1.201409,-0.41105 2.379402,-0.89743 3.634731,-1.16587 0.587696,-0.12567 1.216247,0.0643 1.817364,0 2.756477,-0.29472 5.162197,-1.60137 7.723787,-2.33174 0.96092,-0.27397 1.77256,-0.23352 2.72605,-0.777236 1.7267,-0.984625 3.79008,-1.654153 5.45208,-2.720358 1.46274,-0.938366 10.12776,-7.723194 10.44985,-8.549694 0.0957,-0.245787 -0.0958,-0.531457 0,-0.777245 0.13545,-0.347594 0.67107,-0.472384 0.90869,-0.777245 0.50302,-0.645409 2.06808,-2.800927 2.27169,-3.497603 0.0734,-0.251345 -0.0957,-0.531456 0,-0.777243 0.13546,-0.347594 0.67107,-0.472385 0.90868,-0.777246 0.25641,-0.328973 2.18802,-3.599879 2.2717,-3.886225 0.55261,-1.890691 0,-5.358478 0,-7.383827"
       id="path38" />
    <path
       style="fill:#d3bc5f;fill-opacity:1;stroke-width:0.438827"
       d="m 107.77658,20.773159 c 0.26854,1.375115 0.009,-4.392439 -2.58077,-8.18218 -0.61622,-0.901682 -0.22701,-1.072275 -0.64521,-1.888196 -0.27204,-0.530753 -0.95295,-0.7650536 -1.29037,-1.2587952 -0.73031,-1.0686263 -0.7625,-2.1170318 -1.29041,-3.1469919 -0.44992,-0.8778204 -0.19527,-2.2691703 -0.64519,-3.1469922 -0.39772,-0.7759828 -2.580774,-2.28180526 -2.580774,-3.14699071 0,-0.11963267 3.005284,1.18703571 3.225964,1.25879721 0.40805,0.1326886 0.88235,-0.1326886 1.29041,0 1.0255,0.3334612 2.26469,1.4193291 3.22596,1.8881935 0.57709,0.2814766 1.30965,-0.1526574 1.93561,0 1.28207,0.3126749 2.00141,1.4103686 3.22594,1.888195 3.14305,1.2264325 6.0735,2.9623896 9.03275,4.4057891 0.19235,0.093835 0.43013,0 0.64519,0 0.43014,0.2097987 0.89027,0.3691741 1.2904,0.6293982 0.50612,0.32916 0.7463,0.99342 1.29038,1.258797 0.84359,0.411463 1.31326,-0.584771 1.93558,0.629399 0.34281,0.668789 1.01633,1.715523 1.2904,2.517593 0.13602,0.398066 -0.19236,0.883496 0,1.258796 0.43848,0.855455 1.49712,1.662139 1.93559,2.517594 0.0963,0.187649 0,0.419599 0,0.629398 0,0.419599 -0.19236,0.883495 0,1.258795 0.0963,0.187651 0.49311,-0.148348 0.64518,0 0.33396,0.325776 0.31126,2.191821 0.64522,2.517596 1.3349,1.302247 -0.0522,-1.990006 1.29038,0.629397 0.6276,1.224485 1.29038,4.807021 1.29038,6.293983"
       id="path40" />
    <path
       style="fill:#d3bc5f;fill-opacity:1;stroke-width:0.264583"
       d="m 127.17594,23.437257 c 0.22945,-1.976245 -0.85062,-3.566806 -1.15266,-5.379043 -0.10527,-0.631649 0.15531,-1.299843 0,-1.921086 -0.27144,-1.085777 -1.1817,-2.008236 -1.53687,-3.073739 -0.29086,-0.872584 0.34716,-1.57393 -0.38421,-2.305304"
       id="path41" />
  </g>
</svg>
