<?xml version="1.0" encoding="UTF-8" standalone="no"?>
<!-- Created with Inkscape (http://www.inkscape.org/) -->

<svg
   width="102mm"
   height="82mm"
   viewBox="0 0 102 82"
   version="1.1"
   id="svg1"
   inkscape:version="1.4.2 (f4327f4, 2025-05-13)"
   sodipodi:docname="rope.svg"
   xmlns:inkscape="http://www.inkscape.org/namespaces/inkscape"
   xmlns:sodipodi="http://sodipodi.sourceforge.net/DTD/sodipodi-0.dtd"
   xmlns="http://www.w3.org/2000/svg"
   xmlns:svg="http://www.w3.org/2000/svg">
  <sodipodi:namedview
     id="namedview1"
     pagecolor="#ffffff"
     bordercolor="#000000"
     borderopacity="0.25"
     inkscape:showpageshadow="2"
     inkscape:pageopacity="0.0"
     inkscape:pagecheckerboard="0"
     inkscape:deskcolor="#d1d1d1"
     inkscape:document-units="mm"
     inkscape:zoom="0.68862935"
     inkscape:cx="396.43968"
     inkscape:cy="561.25984"
     inkscape:window-width="1920"
     inkscape:window-height="991"
     inkscape:window-x="-9"
     inkscape:window-y="-9"
     inkscape:window-maximized="1"
     inkscape:current-layer="layer1" />
  <defs
     id="defs1" />
  <g
     inkscape:label="Layer 1"
     inkscape:groupmode="layer"
     id="layer1">
    <path
       style="fill:#4d4d4d;stroke-width:0.264583"
       id="path1"
       d="M 2.6587622,4.7576316 C 3.8670954,5.2474471 5.0390427,5.782806 6.1632305,6.4438278 0.71648023,3.0765885 4.8739803,5.8805513 5.9733637,6.9915706 c 0.7351149,0.7709082 1.4516304,1.5569401 2.0788288,2.4186372 0.6726492,0.9411782 1.2805056,1.9192982 1.8487459,2.9260892 0.9945256,1.713225 2.0566116,3.384993 2.9499206,5.154509 0.704069,1.374581 1.261758,2.814404 1.808108,4.256542 0.650452,1.56202 1.32486,3.114452 1.960671,4.682907 0.609918,1.447549 1.176116,2.912142 1.769481,4.366446 0.633609,1.484077 1.234705,2.981224 1.853915,4.471614 0.558361,1.355241 1.235028,2.65571 1.89102,3.964868 0.617129,1.506908 1.456103,2.900286 2.284498,4.297511 0.809162,1.299387 1.548185,2.637787 2.357384,3.936918 0.572614,0.826881 1.162341,1.652299 1.863611,2.375977 0.548127,0.557612 1.098061,1.110424 1.637697,1.676225 0.569905,0.552715 1.133404,1.108808 1.74466,1.61634 1.481876,1.255403 3.271472,2.062728 4.944158,3.034903 0.985948,0.573037 -1.977388,-1.136571 -2.96608,-1.704853 1.096269,0.731504 2.251477,1.367311 3.357901,2.082421 0.880197,0.56424 1.756505,1.135531 2.61896,1.726634 0.829831,0.623864 1.723313,1.155935 2.594604,1.718768 1.894843,1.017233 3.755345,2.29049 5.788393,3.078937 2.866165,1.687232 -4.153326,-2.582066 -1.809433,-0.994793 0.177155,0.119967 0.350161,0.245954 0.526153,0.367614 0.173046,0.119627 0.347303,0.237493 0.520954,0.356238 0.833763,0.479219 1.625063,1.023895 2.440438,1.532475 0.749834,0.598358 1.503666,1.181459 2.303692,1.713251 2.119474,1.351708 -1.194445,-0.749541 4.536364,2.656316 0.933743,0.554932 -1.883815,-1.081963 -2.829587,-1.616139 -0.158072,-0.08928 0.309145,0.190514 0.466323,0.281364 1.143955,0.661212 2.984262,1.716796 4.406754,2.532901 -0.382489,-0.248314 1.543005,0.845108 1.162058,0.625213 -0.935783,-0.54016 -3.743703,-2.159527 -2.812637,-1.611281 1.282578,0.755232 2.582185,1.481233 3.867227,2.232266 0.957321,0.559498 -3.846782,-2.207779 -2.884046,-1.657652 1.274014,0.727996 2.545252,1.460842 3.817879,2.191261 0.701083,0.294545 1.370677,0.661117 2.028341,1.041416 0,0 -3.069992,-2.479109 -3.069992,-2.479109 v 0 c -0.666681,-0.360519 -1.338209,-0.710086 -2.023486,-1.034079 0.97218,0.565028 3.890423,2.257179 2.916542,1.695082 -1.281599,-0.739701 -2.560949,-1.483299 -3.839707,-2.227908 -0.948087,-0.552061 3.796398,2.201281 2.8477,1.650273 -1.680726,-0.976173 -3.342431,-1.979732 -5.05799,-2.89174 -1.530109,-0.872437 -0.800502,-0.458319 2.312094,1.346999 0.159001,0.09222 -0.318114,-0.184256 -0.476854,-0.276932 -1.292434,-0.75457 -2.587347,-1.504923 -3.876664,-2.264809 -0.714862,-0.421317 4.457983,2.633213 2.161879,1.234152 -0.792946,-0.52251 -1.582624,-1.041406 -2.273052,-1.698697 -0.785915,-0.56439 -1.636418,-1.051676 -2.469859,-1.543973 -1.946275,-1.280062 -3.845491,-2.661925 -5.991669,-3.605586 -1.434214,-0.644313 -4.951066,-2.467589 0.982083,0.792729 -0.879494,-0.544727 -1.761088,-1.094806 -2.598007,-1.699197 -0.852702,-0.616442 -1.746184,-1.176612 -2.631742,-1.744048 -1.088996,-0.735936 -2.256613,-1.3373 -3.333813,-2.090838 -6.577095,-3.819165 -3.619032,-2.099337 -0.777441,-0.456565 0.105219,0.06083 -0.208468,-0.125079 -0.314542,-0.184409 -0.335788,-0.187823 -0.298498,-0.130395 -0.603782,-0.379895 -0.101428,-0.08289 -0.194257,-0.175781 -0.291388,-0.263673 -0.643102,-0.46084 -1.189501,-1.029382 -1.759263,-1.572717 -0.578,-0.525439 -1.072184,-1.144032 -1.644123,-1.676977 -0.733216,-0.690168 -1.321917,-1.499285 -1.926743,-2.302187 -0.81215,-1.305275 -1.582415,-2.632073 -2.385198,-3.943467 -0.841878,-1.368306 -1.673026,-2.75422 -2.262134,-4.253428 -0.65486,-1.311397 -1.371331,-2.593644 -1.927298,-3.952724 C 23.157544,35.415471 22.57889,33.911569 21.937417,32.433162 21.332624,30.982089 20.784658,29.509127 20.159209,28.066637 19.535391,26.49933 18.855361,24.954291 18.205207,23.397728 17.66829,21.931771 17.097242,20.476319 16.379141,19.087652 15.508703,17.318983 14.460193,15.649934 13.484472,13.93847 12.924566,12.919059 12.331755,11.929811 11.665111,10.976162 11.044322,10.098911 10.36223,9.280989 9.607847,8.5142011 9.2153405,8.0593125 8.7977016,7.7196833 8.3316489,7.3416969 6.6812874,6.0031912 5.2822003,4.8945834 3.1334392,3.9915062 1.9771596,3.3428484 0.77007997,2.7900431 -0.47846657,2.3421165 Z" />
    <path
       style="fill:#4d4d4d;stroke-width:0.264583"
       id="path2"
       d="M 3.460828,3.0851864 C 4.6243226,2.9584499 5.7764102,2.7899233 6.9115934,2.5019773 7.9898009,2.1995059 9.0994335,2.0491867 10.213662,1.9675893 c 0.929744,-0.071895 1.843974,-0.068263 2.761915,0.087777 0.769894,0.046046 1.48917,0.2927282 2.236778,0.4429059 1.540799,0.5159553 4.736947,2.3772332 -1.047921,-0.888277 0.749502,0.5691336 1.395059,1.2471225 2.167843,1.7874146 1.587711,1.0138794 3.245993,1.8979398 4.883903,2.8326156 0.129899,0.074127 0.514938,0.3044622 0.384829,0.2307037 -0.985981,-0.5589513 -1.968363,-1.1242262 -2.952545,-1.686339 1.006065,0.6062922 1.693243,1.5164363 2.307021,2.493682 0.725486,1.0986751 1.322418,2.2721443 1.994807,3.4020599 0.617429,1.237006 1.556914,2.214962 2.544311,3.160037 0.871033,0.704629 1.534457,1.606372 2.197329,2.498025 0.643112,0.949961 1.257816,1.918428 1.879912,2.882217 0.706943,1.156199 1.431308,2.301857 2.102482,3.479418 0.578091,0.942919 1.202455,1.855186 1.754738,2.81395 0.477454,0.81691 1.062868,1.562085 1.635289,2.313017 0.538334,0.777492 1.07909,1.553655 1.634908,2.318975 0.570151,0.889932 1.114399,1.797736 1.626875,2.722272 0.499983,0.819703 0.844995,1.709957 1.140354,2.619216 0.366387,1.081273 0.869945,2.110436 1.384417,3.127624 0.469376,0.983234 1.030798,1.917779 1.566682,2.865292 0.52359,1.037844 1.164985,2.006293 1.874113,2.925005 0.548791,0.778405 1.17225,1.48939 1.853276,2.152849 0.690806,0.575368 1.337855,1.205291 2.049143,1.755179 0.730819,0.518227 1.426159,1.08212 2.130658,1.634623 0.773419,0.679971 1.619805,1.259035 2.467705,1.839843 0.83784,0.458317 1.613588,0.995114 2.365393,1.580894 0.65246,0.531447 1.383078,0.947198 2.076953,1.418788 1.57172,1.044639 3.25982,1.903328 4.874318,2.874889 0.954119,0.574164 -3.859313,-2.223672 -2.901865,-1.655075 0.784198,0.465709 8.214182,4.716537 0.872752,0.513001 1.832382,1.137015 3.683251,2.239753 5.588619,3.255324 -1.00289,-0.575357 -4.04767,-2.233334 -3.008675,-1.72607 1.319924,0.644417 2.553258,1.453923 3.852934,2.138257 0.318211,0.167553 0.692017,0.203004 1.021545,0.34703 0.151824,0.06636 0.58473,0.311722 0.441286,0.228793 -0.985031,-0.56947 -1.977623,-1.125765 -2.966434,-1.688647 0.793615,0.478713 1.209762,1.1743 1.449564,2.044538 0.204071,0.84536 0.01498,1.698525 -0.176834,2.526721 -0.310494,1.023027 -0.813924,1.980213 -1.315445,2.921135 -0.486807,0.899967 -1.137417,1.680853 -1.768652,2.477616 -0.495244,0.735142 -1.205905,1.161301 -2.029711,1.435621 -0.771549,0.209497 -1.574486,0.219761 -2.368191,0.22919 -0.516479,0.0011 -0.258439,0.0011 -0.77412,-5.29e-4 0,0 3.198066,2.323523 3.198066,2.323523 v 0 c 0.518211,-0.0016 0.258707,5.3e-4 0.77851,-0.0064 0.822857,-0.02434 1.653847,-0.06709 2.438916,-0.339759 0.861293,-0.34589 1.61549,-0.837912 2.14598,-1.618941 0.641914,-0.817229 1.285153,-1.631802 1.788575,-2.546673 0.519885,-0.969245 1.037955,-1.955299 1.37653,-3.004095 0.210526,-0.878765 0.435083,-1.785429 0.263707,-2.691201 -0.20407,-0.941226 -0.532545,-1.73563 -1.329357,-2.332389 -1.26438,-0.727832 -2.52,-1.471102 -3.79314,-2.183498 -0.230328,-0.128884 -0.73301,-0.290915 -0.971542,-0.378666 -0.166053,-0.06109 -0.645594,-0.283287 -0.496208,-0.188476 1.021898,0.64856 7.910317,4.607163 -0.835649,-0.441198 -1.382033,-0.726673 -0.639577,-0.34325 2.645378,1.56538 0.123201,0.07158 -0.246936,-0.142557 -0.366115,-0.220654 -0.629978,-0.412811 -0.08459,-0.103423 -0.726752,-0.484934 -0.127397,-0.07569 -0.25822,-0.145454 -0.387331,-0.218183 -1.260626,-0.733647 -2.518585,-1.471896 -3.781875,-2.200947 -0.969285,-0.559377 3.859863,2.267085 2.899855,1.691931 -12.664559,-7.587514 2.128829,1.303978 -1.492721,-0.914726 -0.158118,-0.09687 -0.318403,-0.190161 -0.477605,-0.285242 -0.677619,-0.496646 -1.411957,-0.892217 -2.080157,-1.396949 -0.74872,-0.600988 -1.492988,-1.20283 -2.368783,-1.615326 -0.855027,-0.56211 -1.712708,-1.12063 -2.467506,-1.816529 -0.723194,-0.523719 -1.389021,-1.125045 -2.116961,-1.643634 -0.761283,-0.482825 -1.353333,-1.17285 -2.081313,-1.702663 -0.686017,-0.651271 -1.350901,-1.318373 -1.881513,-2.106813 -0.72554,-0.89471 -1.392385,-1.842244 -1.908892,-2.87464 -0.534937,-0.93898 -1.078238,-1.8752 -1.555723,-2.844898 C 43.9094,39.229556 43.415336,38.208852 43.019966,37.153278 42.736724,36.22545 42.446342,35.298538 41.921842,34.471184 41.423267,33.524171 40.836249,32.629107 40.312271,31.696186 39.747187,30.941785 39.204323,30.168929 38.694868,29.376486 38.118796,28.63134 37.530659,27.897092 37.016973,27.106115 36.484348,26.135466 35.878931,25.209343 35.260605,24.291242 34.598289,23.09986 33.847119,21.961529 33.158977,20.785079 32.532293,19.825625 31.920344,18.855811 31.315136,17.883476 30.61159,17.00658 30.019857,16.015935 29.12015,15.315824 28.119715,14.417968 27.149012,13.4795 26.540579,12.261306 25.857507,11.133224 25.257517,9.9594568 24.539511,8.8517803 23.936345,7.8511105 23.319637,6.8607709 22.319482,6.2047558 21.057586,5.4631362 19.798162,4.7172951 18.533795,3.9798971 18.401382,3.9026719 17.997329,3.6831489 18.129365,3.7610166 19.138992,4.3564415 20.154404,4.9420025 21.166801,5.5327049 21.286794,5.6027171 20.924161,5.3970758 20.806578,5.323088 20.029511,4.8341274 20.847501,5.2952297 19.999479,4.8357863 19.196021,4.306784 18.514202,3.7225914 17.840636,3.0325102 15.986339,1.9660956 14.154784,0.69799921 12.066092,0.10282705 11.324016,-0.0868955 10.577373,-0.21968751 9.8162373,-0.31214123 8.8818364,-0.43196319 7.9431046,-0.38864021 7.0050381,-0.32207678 5.883566,-0.21262614 4.7713428,-0.02819661 3.6835315,0.2711206 2.5567539,0.52707404 1.4129636,0.71393999 0.25633668,0.75698701 Z" />
    <path
       style="fill:#4d4d4d;stroke-width:0.264583"
       id="path3"
       d="M 3.070919,4.6470752 C 3.4423855,4.2831776 3.8788019,3.9963288 4.298425,3.6926493 c 0,0 -3.31847568,-2.1072353 -3.31847568,-2.1072353 v 0 C 0.54090813,1.9020108 0.09280609,2.2097739 -0.30602488,2.5776813 Z" />
    <path
       style="fill:#4d4d4d;stroke-width:0.264583"
       id="path4"
       d="m 13.110641,11.717547 c 1.273962,-0.5775 2.513978,-1.236232 3.709386,-1.9622546 0.823326,-0.5776936 1.690846,-1.0936708 2.565525,-1.5896269 0.513988,-0.270501 0.974827,-0.6258981 1.445868,-0.9623409 0,0 -3.315168,-2.1095245 -3.315168,-2.1095245 v 0 c -0.464524,0.3261047 -0.921673,0.6670066 -1.42878,0.9262538 -0.877329,0.4966817 -1.741691,1.0191689 -2.56218,1.6060663 -1.186679,0.7212113 -2.412231,1.3914448 -3.7079019,1.8967495 z" />
    <path
       style="fill:#4d4d4d;stroke-width:0.264583"
       id="path5"
       d="M 12.605164,1.6589079 C 11.362621,1.9276834 10.193631,2.4460505 9.0668148,3.0225791 8.273195,3.5549374 7.561038,4.1868407 6.7412337,4.6817891 6.2484608,5.0260509 5.7431728,5.3481684 5.2589517,5.7048762 c 0,0 3.3311276,2.1142002 3.3311276,2.1142002 v 0 c 0.480644,-0.3436186 0.9750208,-0.6661383 1.4634727,-0.9984756 0.80266,-0.4984983 1.498567,-1.1354456 2.295795,-1.6405307 1.11787,-0.5594466 2.272368,-1.0547456 3.510662,-1.2760994 z" />
    <path
       style="fill:#4d4d4d;stroke-width:0.264583"
       id="path6"
       d="m 15.045243,19.154631 c 1.778806,-0.274053 3.487533,-0.959753 5.166795,-1.593879 1.26516,-0.593554 2.579807,-1.064609 3.882556,-1.565976 1.049658,-0.415281 2.076446,-0.878522 3.036188,-1.473735 0,0 -3.294316,-2.127307 -3.294316,-2.127307 v 0 c -0.950156,0.573817 -1.96668,1.013359 -3.002747,1.409673 -1.295544,0.495077 -2.582569,1.009681 -3.842304,1.590905 -1.673184,0.634122 -3.380728,1.304179 -5.174536,1.475568 z" />
    <path
       style="fill:#4d4d4d;stroke-width:0.264583"
       id="path7"
       d="m 21.602158,26.708161 c 1.743445,-0.61748 3.568777,-0.997737 5.379637,-1.365658 1.494663,-0.325554 2.942349,-0.841363 4.360802,-1.407979 0.930711,-0.399572 0.463873,-0.193785 1.400336,-0.617769 0,0 -3.253928,-2.160979 -3.253928,-2.160979 v 0 c -0.933209,0.41288 -0.468177,0.21307 -1.394891,0.599902 -1.405379,0.545256 -2.831922,1.053572 -4.310174,1.363841 -1.832771,0.40353 -3.673803,0.804116 -5.460586,1.381688 z" />
    <path
       style="fill:#4d4d4d;stroke-width:0.264583"
       id="path8"
       d="m 25.828548,39.003115 c 1.598271,-0.651044 3.171962,-1.360998 4.768112,-2.016096 1.751168,-0.670113 3.492031,-1.374198 5.256059,-2.010169 1.439912,-0.411697 2.777191,-1.0634 4.147338,-1.648436 0.757616,-0.274198 0.392748,-0.128506 1.095952,-0.433684 0,0 -3.273605,-2.180466 -3.273605,-2.180466 v 0 c -0.689658,0.29564 -0.328295,0.147286 -1.085263,0.44218 -1.351518,0.598181 -2.692384,1.208646 -4.108751,1.646716 -1.761863,0.657098 -3.516257,1.3378 -5.266949,2.023213 -1.595948,0.675574 -3.178963,1.38466 -4.811696,1.969789 z" />
    <path
       style="fill:#4d4d4d;stroke-width:0.264583"
       id="path9"
       d="m 29.988017,46.817036 c 1.153946,-0.342987 2.357229,-0.444032 3.534119,-0.671571 1.391852,-0.183867 2.69502,-0.709379 3.982715,-1.24592 1.525683,-0.609711 2.906419,-1.4996 4.321448,-2.320287 0.622461,-0.372065 1.241223,-0.749292 1.853972,-1.137097 0,0 -3.291657,-2.118847 -3.291657,-2.118847 v 0 c -0.608484,0.384378 -1.222632,0.758888 -1.839527,1.129652 -1.39651,0.81825 -2.769486,1.688904 -4.284474,2.279612 -1.282152,0.515679 -2.584768,0.974474 -3.960752,1.162611 -1.18587,0.205023 -2.375577,0.385927 -3.552724,0.63958 z" />
    <path
       style="fill:#4d4d4d;stroke-width:0.264583"
       id="path10"
       d="m 41.569478,58.278995 c 1.678517,-0.431541 3.218667,-1.282242 4.793679,-1.987931 1.339868,-0.678077 2.66809,-1.387909 3.893073,-2.259648 0.898184,-0.569147 1.72357,-1.240509 2.565493,-1.887468 0.588986,-0.398495 0.295285,-0.198964 0.881105,-0.598578 0,0 -3.316965,-2.118063 -3.316965,-2.118063 v 0 c -0.589709,0.405161 -0.29337,0.199228 -0.888905,0.617963 -0.841483,0.639556 -1.671116,1.295493 -2.554192,1.877894 -1.204574,0.850145 -2.498267,1.568069 -3.820311,2.218316 -1.56192,0.719418 -3.108013,1.54943 -4.80782,1.892454 z" />
    <path
       style="fill:#4d4d4d;stroke-width:0.264583"
       id="path11"
       d="m 52.763451,63.213395 c 1.693246,-0.691089 3.410268,-1.299933 5.051933,-2.111791 1.71654,-0.840658 3.327863,-1.871014 4.996423,-2.798193 0,0 -3.260912,-2.121721 -3.260912,-2.121721 v 0 c -1.649558,0.949947 -3.271462,1.94904 -4.988275,2.77726 -1.637553,0.806228 -3.343701,1.435333 -5.065434,2.038316 z" />
    <path
       style="fill:#4d4d4d;stroke-width:0.264583"
       id="path12"
       d="m 72.254916,62.742767 c 1.106159,-0.735523 2.268244,-1.396727 3.485531,-1.929879 0.82165,-0.295619 1.710383,-0.607811 2.561177,-0.285557 1.368796,0.894199 -0.328806,-0.224223 -2.803072,-1.550799 -0.102312,-0.05486 0.179707,0.147193 0.26543,0.225475 0.251375,0.22956 0.413551,0.459044 0.572664,0.757148 0.338143,0.660188 0.502314,1.371089 0.59582,2.101011 0.07593,0.760063 0.07462,1.524931 0.07672,2.287937 -2.65e-4,0.769072 -0.003,1.538139 -0.0044,2.307211 0.07325,0.791739 -0.285398,1.38761 -0.771983,1.974498 -0.68448,0.742469 -1.588037,1.240653 -2.400387,1.829655 -0.877195,0.542605 -1.763586,1.060079 -2.622476,1.633225 -1.306552,0.872215 -2.702639,1.587093 -4.132699,2.230726 -1.536145,0.539467 -3.086005,1.131176 -4.70353,1.362125 -0.799536,0.06104 -1.630688,0.179584 -2.397707,-0.128003 -0.143743,-0.05764 -0.549008,-0.286779 -0.413835,-0.211195 1.00392,0.561356 2.013551,1.112435 3.020325,1.668653 -0.708491,-0.677754 -0.83792,-1.668772 -0.839248,-2.604357 0.154691,-0.623753 0.04728,-0.318368 0.326567,-0.914615 0,0 -3.423507,-1.940356 -3.423507,-1.940356 v 0 c -0.329726,0.684231 -0.194037,0.330935 -0.407096,1.059878 -0.04384,1.013662 0.0816,2.080681 0.683575,2.928298 3.153971,1.897454 3.542012,2.80879 6.648641,2.386099 1.629513,-0.303246 3.20703,-0.867563 4.755327,-1.450173 1.447453,-0.656812 2.848094,-1.406649 4.185523,-2.267773 0.875048,-0.557038 1.779135,-1.063699 2.638838,-1.643668 0.846103,-0.600607 1.774425,-1.122098 2.466726,-1.908964 0.528513,-0.646504 0.975651,-1.337487 0.909135,-2.208675 0.0011,-0.769472 0.0035,-1.538938 0.0049,-2.308408 -2.64e-4,-0.775903 0.0027,-1.553003 -0.05661,-2.327174 -0.0757,-0.758867 -0.19875,-1.515226 -0.538636,-2.20713 -0.690229,-1.87366 -3.128074,-2.841398 -4.778388,-3.482502 -0.933278,-0.122142 -1.835116,0.151466 -2.689593,0.517668 -1.222857,0.578374 -2.393733,1.261174 -3.548499,1.964396 z" />
    <path
       style="fill:#4d4d4d;stroke-width:0.264583"
       id="path13"
       d="m 82.592761,66.933722 c 1.164026,0.264575 2.34006,0.466159 3.526232,0.597794 1.026165,0.127596 2.046218,0.297596 3.078331,0.393576 0.870281,0.07455 1.74397,0.08683 2.616875,0.09291 0.992452,0.007 1.984814,-0.0086 2.977235,-0.01212 0.742034,-0.01307 1.499248,-0.01648 2.222285,0.179893 0.18482,0.0502 0.703022,0.298502 0.538321,0.200771 -3.337575,-1.980441 -3.699274,-2.444732 -2.681978,-1.328505 0.372304,0.765879 0.349687,1.625481 0.176366,2.439461 -0.217635,0.895485 -0.537797,1.76661 -0.854024,2.631837 -0.35858,0.962565 -0.859854,1.848564 -1.438839,2.691569 -0.510789,0.816687 -1.329211,1.262666 -2.182119,1.644922 -1.220065,0.41809 -2.425044,0.867614 -3.629213,1.328579 -1.285539,0.453451 -2.60337,0.809665 -3.918791,1.167014 -1.587984,0.491561 -3.185147,0.493268 -4.804733,0.195233 -1.236218,-0.221091 -2.417085,-0.550918 -3.570309,-1.037955 -0.379933,-0.249642 -0.820226,-0.376343 -1.226698,-0.567359 -0.115443,-0.05425 -0.443648,-0.252 -0.332864,-0.188772 3.207345,1.830548 4.016354,2.438214 2.690929,1.476687 -0.677739,-0.587217 -1.267146,-1.2645 -1.814129,-1.972562 -0.08621,-0.119657 -0.172416,-0.239313 -0.258625,-0.35897 0,0 -3.620236,-1.570543 -3.620236,-1.570543 v 0 c 0.08532,0.12102 0.170635,0.242041 0.255953,0.363058 0.520105,0.750666 1.13973,1.41963 1.776476,2.071304 1.637117,1.423141 3.673091,2.282484 5.624457,3.186044 1.155163,0.462574 2.366015,0.713703 3.588004,0.938358 1.660432,0.235283 3.300288,0.194871 4.910457,-0.325115 1.327693,-0.367249 2.670093,-0.695719 3.958418,-1.188426 1.206937,-0.473356 2.431188,-0.892114 3.64522,-1.345943 0.911395,-0.424942 1.763028,-0.943068 2.310765,-1.81782 0.586844,-0.875729 1.09378,-1.794566 1.480289,-2.778607 0.325024,-0.879443 0.651779,-1.766377 0.893619,-2.671381 0.204552,-0.905455 0.227145,-1.831914 -0.04762,-2.729749 -1.228077,-2.460495 -4.42358,-2.956409 -6.858696,-2.933829 -1.001623,-0.0019 -2.003203,-0.01164 -3.004831,-0.01278 -0.862534,-0.0098 -1.725792,-0.02897 -2.584886,-0.11303 -1.027952,-0.107137 -2.043631,-0.293214 -3.071464,-0.397311 -1.191119,-0.146206 -2.367375,-0.37251 -3.540995,-0.621438 z" />
    <path
       style="fill:#4d4d4d;stroke-width:0.264583"
       id="path14"
       d="m 98.00942,74.796432 c 0.15956,-0.0429 0.319122,-0.08581 0.478682,-0.128709 0,0 -3.244022,-2.233591 -3.244022,-2.233591 v 0 c -0.167135,0.04169 -0.334272,0.08337 -0.501409,0.125055 z" />
    <path
       style="fill:#4d4d4d;stroke-width:0.264583"
       id="path15"
       d="m 97.59386,75.89421 c 0.836632,0.244292 0.39396,0.124163 1.329537,0.354726 0,0 -3.101231,-2.377588 -3.101231,-2.377588 v 0 c -0.941012,-0.2639 -0.494898,-0.123814 -1.340451,-0.41348 z" />
    <path
       style="fill:#4d4d4d;stroke-width:0.264583"
       id="path16"
       d="m 100.26676,71.54433 c 0.53913,0.06597 1.07967,0.118446 1.62036,0.169553 0,0 -3.156149,-2.341351 -3.156149,-2.341351 v 0 c -0.546158,-0.0573 -1.092634,-0.113914 -1.63503,-0.201401 z" />
    <path
       style="fill:#4d4d4d;stroke-width:0.264583"
       id="path17"
       d="m 82.516574,77.41622 c 0.274783,-1.275482 0.599345,-2.540257 0.963287,-3.793104 0.311359,-1.068176 0.7464,-2.073703 1.299014,-3.03739 0.46735,-0.630227 0.942227,-1.268709 1.560841,-1.757545 0,0 -3.349982,-2.094476 -3.349982,-2.094476 v 0 c -0.624904,0.547669 -1.136137,1.210577 -1.61372,1.88817 -0.571072,0.990473 -1.030695,2.019548 -1.344967,3.121612 -0.351838,1.258689 -0.660977,2.527689 -0.992508,3.791881 z" />
    <path
       style="fill:#ccff00;stroke-width:0.264583"
       id="path18"
       d="m 82.699896,77.74556 c -0.325694,-0.45066 -0.552275,-0.952572 -0.773578,-1.458857 0,0 -3.564414,-1.645901 -3.564414,-1.645901 v 0 c 0.19866,0.525002 0.407678,1.041106 0.710242,1.517496 z" />
    <path
       style="fill:#ccff00;stroke-width:1.45216"
       d="m 290.97411,297.21816 c -2.89659,-0.93698 -7.74372,-3.90352 -10.77139,-6.59231 -4.86762,-4.3228 -5.21405,-5.05146 -2.99269,-6.2946 1.3817,-0.77324 7.72807,-4.89708 14.10305,-9.1641 7.42662,-4.97092 11.33169,-6.8832 10.86946,-5.32268 -0.39678,1.33954 -1.15212,4.24092 -1.67854,6.44752 -0.52642,2.20659 -1.89091,4.53456 -3.03221,5.17326 -3.59237,2.0104 -0.44914,6.22182 7.33891,9.83293 l 7.4037,3.43289 1.1587,-4.69081 c 3.61726,-14.64387 5.90161,-20.43606 9.81957,-24.89836 l 4.36617,-4.9728 -3.31574,-2.45565 c -3.30772,-2.44971 -3.30388,-2.45351 1.5853,-1.56839 2.69557,0.48799 11.406,0.88726 19.3565,0.88726 h 14.45547 l -0.93786,4.71952 c -0.51581,2.59574 -2.87781,8.76711 -5.24888,13.71416 -3.83236,7.99593 -5.17028,9.40113 -12.04956,12.65556 -10.89752,5.15535 -32.02796,11.04415 -39.1542,10.9118 -3.30507,-0.0614 -8.37917,-0.87822 -11.27576,-1.8152 z"
       id="path19"
       transform="scale(0.26458333)" />
    <path
       style="fill:#ccff00;stroke-width:1.45216"
       d=""
       id="path20"
       transform="scale(0.26458333)" />
    <path
       style="fill:#ccff00;stroke-width:1.45216"
       d="m 305.56802,285.49251 -5.19422,-3.04739 1.71798,-6.53472 c 0.94489,-3.59409 2.79218,-9.06504 4.1051,-12.15766 2.66276,-6.27223 3.07125,-8.57392 0.93496,-5.26826 -1.04581,1.61828 -1.4134,0.76519 -1.42992,-3.31845 -0.0204,-5.04918 0.21422,-5.37015 2.88208,-3.94235 1.59738,0.85489 2.90432,2.51156 2.90432,3.68149 0,1.43837 1.55172,2.12715 4.79213,2.12715 7.35068,0 8.60147,2.29767 4.52271,8.30805 -1.90719,2.81041 -4.57834,8.7889 -5.93588,13.28554 -1.35754,4.49663 -2.83653,8.56681 -3.28665,9.04484 -0.45011,0.47803 -3.15579,-0.50218 -6.01261,-2.17824 z"
       id="path21"
       transform="scale(0.26458333)" />
    <path
       style="fill:#ccff00;stroke-width:1.45216"
       d="m 234.52384,280.91469 c 0,-4.79558 0.22235,-5.00429 5.33149,-5.00429 4.40236,0 6.39476,-1.1097 11.4328,-6.36769 7.95718,-8.30457 13.73107,-20.54961 13.73107,-29.1203 0,-7.08695 0.65243,-7.68811 4.87355,-4.49055 2.38001,1.8029 3.65405,1.55034 10.8912,-2.15899 l 8.19589,-4.20072 0.41999,13.18977 c 0.49616,15.58169 0.65004,15.33202 -16.05375,26.04706 -12.76379,8.18763 -19.81296,11.54971 -31.1984,14.88 l -7.62384,2.23 z"
       id="path22"
       transform="scale(0.26458333)" />
    <path
       style="fill:#ccff00;stroke-width:1.45216"
       d="m 225.0848,261.85534 c -2.39606,-1.27683 -12.77025,-7.87511 -23.05374,-14.66284 -10.2835,-6.78773 -23.6404,-15.0744 -29.68199,-18.41481 -6.0416,-3.3404 -11.16289,-6.68141 -11.38064,-7.42446 -0.21775,-0.74304 4.644,-3.63553 10.80391,-6.42774 6.1599,-2.79222 15.29154,-7.85742 20.29252,-11.25601 l 9.0927,-6.17926 10.88273,7.56572 10.88274,7.56572 -8.35815,4.76728 c -4.59699,2.622 -12.7691,6.50965 -18.16024,8.63923 -5.39114,2.12957 -9.80091,4.25882 -9.79948,4.73165 10e-4,0.47284 2.85174,2.65962 6.33404,4.85953 6.2102,3.92322 6.4534,3.9568 12.69901,1.75322 3.50215,-1.23563 12.32982,-5.43233 19.61704,-9.32599 l 13.24949,-7.07938 4.90731,2.96763 c 6.11112,3.6956 7.03546,5.0985 7.06331,10.72011 0.0263,5.3018 -7.03117,19.97599 -12.33364,25.64474 -4.25044,4.54404 -6.86452,4.85549 -13.05692,1.55566 z"
       id="path23"
       transform="scale(0.26458333)" />
    <path
       style="fill:#ccff00;stroke-width:1.45216"
       d="m 134.76318,204.96423 c -7.87454,-6.22446 -17.28521,-16.51328 -21.06554,-23.03126 l -2.47517,-4.26763 11.66377,-1.89416 c 8.38581,-1.36183 15.44109,-3.78861 25.10439,-8.63506 l 13.44063,-6.74089 4.80486,6.96931 c 3.83373,5.56071 11.26631,12.73243 20.35716,19.6427 2.89349,2.19944 -34.56527,23.55596 -41.31652,23.55596 -1.8867,0 -6.61781,-2.51953 -10.51358,-5.59897 z"
       id="path24"
       transform="scale(0.26458333)" />
    <path
       style="fill:#ccff00;stroke-width:1.45216"
       d="m 99.713921,157.61051 c -4.854389,-9.95607 -5.383824,-11.59977 -3.326795,-10.32845 0.698856,0.43192 10.991044,-3.05224 22.871524,-7.74256 26.99779,-10.65852 28.1318,-11.00416 28.14978,-8.57992 0.008,1.05218 1.61142,5.34379 3.56359,9.5369 1.95218,4.19311 3.03754,7.62384 2.41192,7.62384 -0.62561,0 -6.12902,2.84455 -12.2298,6.32123 -10.85483,6.18589 -21.2153,10.03143 -31.63814,11.74325 -5.19266,0.85283 -5.21522,0.83309 -9.802079,-8.57429 z"
       id="path25"
       transform="scale(0.26458333)" />
    <path
       style="fill:#ccff00;stroke-width:1.45216"
       d="m 81.641123,117.18913 c -4.360712,-10.54258 -7.743686,-19.383912 -7.51772,-19.647401 0.225966,-0.26349 1.971626,0.543589 3.879244,1.793509 3.198781,2.095922 4.607079,1.991542 18.116624,-1.342802 8.056529,-1.988461 16.961169,-4.58179 19.788089,-5.762954 l 5.13986,-2.147572 8.15214,11.63397 c 4.48368,6.39869 8.49672,12.53194 8.91788,13.62946 0.52254,1.36172 -1.6876,2.91848 -6.95895,4.90167 -13.49033,5.07534 -26.36691,10.02905 -34.095686,13.11686 l -7.492914,2.99358 z"
       id="path26"
       transform="scale(0.26458333)" />
    <path
       style="fill:#ccff00;stroke-width:1.45216"
       d="m 67.894084,83.930278 c -1.64495,-4.230532 -3.450951,-8.835454 -4.013336,-10.233158 -0.636221,-1.58121 -0.360496,-2.54128 0.729838,-2.54128 0.963795,0 9.234692,-2.993597 18.37977,-6.652438 12.431178,-4.973573 17.108844,-6.252884 18.535084,-5.069216 2.18315,1.811855 13.0272,19.026888 12.25347,19.452507 -2.50763,1.379429 -21.371656,7.179512 -29.099311,8.947109 -5.34094,1.221669 -10.629677,2.573822 -11.752749,3.004785 -1.414814,0.542915 -2.960504,-1.578803 -5.032766,-6.908309 z"
       id="path27"
       transform="scale(0.26458333)" />
    <path
       style="fill:#ccff00;stroke-width:1.45216"
       d="m 52.162545,52.938243 c -2.127424,-3.630175 -3.625282,-6.81721 -3.328574,-7.0823 0.296708,-0.265092 3.356594,-1.902874 6.799746,-3.639515 3.443153,-1.736643 9.887658,-5.47794 14.321125,-8.313994 9.116181,-5.831551 8.988115,-5.877815 15.515756,5.605093 3.610483,6.351278 3.703693,6.929363 1.319768,8.185204 -4.597899,2.422153 -27.97512,11.845829 -29.385835,11.845829 -0.755669,0 -3.114562,-2.970142 -5.241986,-6.600317 z"
       id="path28"
       transform="scale(0.26458333)" />
    <path
       style="fill:#ccff00;stroke-width:1.45216"
       d="m 37.000956,31.186347 c -1.010297,-1.217332 -1.580415,-2.431244 -1.26693,-2.697582 4.801524,-4.079363 14.303817,-9.839558 18.473582,-11.1985 2.932025,-0.955557 5.680528,-2.270705 6.107785,-2.922552 0.427259,-0.651847 2.714411,0.09201 5.08256,1.653027 2.458657,1.620671 3.361398,2.842308 2.104389,2.847772 -1.210735,0.0053 -7.418719,3.262554 -13.79552,7.238426 -12.732746,7.938741 -14.010424,8.327219 -16.705866,5.079409 z"
       id="path29"
       transform="scale(0.26458333)" />
    <path
       style="fill:#ccff00;stroke-width:1.45216"
       d=""
       id="path30"
       transform="scale(0.26458333)" />
    <path
       style="fill:#ccff00;stroke-width:1.45216"
       d=""
       id="path31"
       transform="scale(0.26458333)" />
    <path
       style="fill:#ccff00;stroke-width:1.45216"
       d=""
       id="path32"
       transform="scale(0.26458333)" />
    <path
       style="fill:#ccff00;stroke-width:1.45216"
       d="M 18.152,17.45665 C 13.889717,14.762283 15.928255,12.34634 23.944695,10.591525 36.932592,7.7484474 37.935444,8.3000975 29.76928,13.79552 21.466933,19.382587 21.287926,19.439 18.152,17.45665 Z"
       id="path33"
       transform="scale(0.26458333)" />
  </g>
</svg>
